
<svg width="394" height="434" xmlns="http://www.w3.org/2000/svg" xmlns:xlink="http://www.w3.org/1999/xlink"><defs><path id="a" d="M0 0h275v43H0z"/><path id="c" d="M0 .767h275v42.977H0z"/><path id="e" d="M0 .512h275v42.976H0z"/><path id="g" d="M0 .256h275v42.977H0z"/><path id="i" d="M0 0h275v43H0z"/><path id="k" d="M0 .767h275v42.977H0z"/><path id="m" d="M0 .512h275v42.976H0z"/></defs><g fill="none" fill-rule="evenodd"><path fill="#FFFFFF" d="M0 0h394v434H0z"/><g transform="translate(38.198 53.568)"><mask id="b" fill="white"><use xlink:href="#a"/></mask><g mask="url(#b)"><path d="M17.038 26.28c-.868 0-1.632-.186-2.292-.557a3.924 3.924 0 0 1-1.543-1.56c-.369-.67-.553-1.455-.553-2.356 0-.9.19-1.686.571-2.356.381-.67.906-1.19 1.574-1.56.668-.37 1.432-.556 2.292-.556.452 0 .865.048 1.24.145a4.5 4.5 0 0 1 .972.359l-.171 1.499a6.383 6.383 0 0 0-.957-.353 4.052 4.052 0 0 0-1.097-.139c-.598 0-1.099.127-1.5.381a2.384 2.384 0 0 0-.907 1.05c-.204.447-.306.957-.306 1.53 0 .573.1 1.083.3 1.53.2.446.498.796.895 1.05s.891.381 1.482.381c.411 0 .78-.045 1.106-.135.326-.09.654-.209.984-.356l.17 1.498a5.475 5.475 0 0 1-1.06.366 5.142 5.142 0 0 1-1.2.138ZM20.362 26.107v-9.214h1.516v3.968l-.342-.27c.256-.18.535-.346.837-.498.301-.151.662-.227 1.081-.227.538 0 .976.12 1.314.36.338.239.587.57.746.995.159.423.238.914.238 1.47v3.416h-1.515v-3.305c0-.573-.092-.997-.275-1.271-.184-.275-.483-.412-.899-.412-.354 0-.644.083-.87.249-.227.166-.425.39-.596.673l.28-.824v4.89h-1.515ZM27.109 26.107v-6.143h1.418l.036.651c.155-.172.373-.344.654-.516a1.735 1.735 0 0 1 1.192-.233l-.11 1.499a1.55 1.55 0 0 0-.266-.05 2.789 2.789 0 0 0-.26-.012c-.256 0-.49.06-.702.179-.212.118-.361.264-.447.436v4.19H27.11ZM31.142 26.107v-6.143h1.516v6.143h-1.516Zm0-7.076v-1.524h1.516v1.524h-1.516ZM35.811 26.23a4.68 4.68 0 0 1-1.09-.117 5.459 5.459 0 0 1-.975-.338l.134-1.302c.314.184.622.333.926.446.303.112.622.168.956.168.302 0 .532-.049.69-.147.16-.098.24-.254.24-.467 0-.16-.043-.29-.126-.393a1.104 1.104 0 0 0-.376-.276 7.405 7.405 0 0 0-.623-.265 5.31 5.31 0 0 1-.957-.454 1.753 1.753 0 0 1-.599-.593c-.136-.231-.204-.517-.204-.857 0-.352.091-.663.275-.934.183-.27.444-.48.782-.632.338-.152.74-.228 1.204-.228.387 0 .734.043 1.042.13.307.085.591.202.852.35l-.134 1.302a5.002 5.002 0 0 0-.825-.476 2.19 2.19 0 0 0-.91-.188c-.262 0-.463.054-.606.16a.534.534 0 0 0-.214.455c0 .237.1.415.3.534.2.119.52.264.96.436.284.11.532.226.742.344.21.12.384.25.522.393.139.144.242.307.309.489s.1.392.1.63c0 .388-.092.72-.277.992-.186.272-.457.48-.813.623-.357.143-.792.215-1.305.215ZM41.238 26.23c-.383 0-.695-.079-.935-.236a1.442 1.442 0 0 1-.532-.606 1.803 1.803 0 0 1-.171-.767v-3.404h-.868l.135-1.253h.733v-1.351l1.516-.16v1.511h1.344v1.253h-1.344v2.777c0 .311.018.535.055.673.036.137.12.223.25.258.13.034.338.052.623.052h.416l-.134 1.253h-1.088ZM43.45 26.107v-6.143h1.516v6.143H43.45Zm0-7.076v-1.524h1.516v1.524H43.45ZM47.703 26.23c-.326 0-.623-.073-.892-.218a1.625 1.625 0 0 1-.642-.63c-.158-.274-.238-.606-.238-.995 0-.348.08-.646.241-.894a2.05 2.05 0 0 1 .636-.62 3.62 3.62 0 0 1 .856-.393c.307-.096.61-.167.91-.212.3-.045.563-.072.792-.08-.017-.352-.106-.608-.27-.768-.162-.16-.44-.24-.83-.24-.273 0-.54.038-.798.114a5.626 5.626 0 0 0-.877.353l-.134-1.24c.366-.18.734-.316 1.103-.406.368-.09.742-.135 1.121-.135.456 0 .85.082 1.18.246.33.164.584.427.763.79.18.362.27.84.27 1.433v1.659c0 .307.014.53.042.667.029.137.082.224.159.26.077.037.19.056.336.056h.196l-.135 1.253h-.55c-.228 0-.43-.03-.608-.09a1.376 1.376 0 0 1-.455-.248 1.285 1.285 0 0 1-.306-.375c-.2.226-.47.4-.81.526-.34.125-.693.187-1.06.187Zm.636-1.167c.134 0 .301-.036.501-.108.2-.071.379-.183.538-.334V23.22c-.285.012-.57.06-.856.141a1.934 1.934 0 0 0-.715.363.752.752 0 0 0-.287.602c0 .25.065.435.196.556.13.12.338.18.623.18ZM52.47 26.107v-6.143h1.418l.06 1.143-.354-.467c.233-.197.51-.375.832-.534a2.5 2.5 0 0 1 1.124-.24c.782 0 1.363.261 1.742.783s.568 1.2.568 2.03v3.428h-1.516v-3.305c0-.573-.094-.997-.284-1.271-.19-.275-.498-.412-.926-.412-.346 0-.629.085-.849.255-.22.17-.414.396-.58.679l.28-.75v4.804H52.47ZM64.68 26.28c-.346 0-.703-.035-1.07-.102a9.12 9.12 0 0 1-1.02-.246 5.217 5.217 0 0 1-.746-.28l.184-1.67c.285.139.582.268.892.387.31.118.627.215.953.288.326.074.656.111.99.111.416 0 .75-.082 1.003-.246.252-.164.378-.413.378-.75 0-.257-.07-.465-.213-.623-.143-.157-.361-.299-.654-.423a18.862 18.862 0 0 0-1.125-.427 7.79 7.79 0 0 1-1.228-.544 2.489 2.489 0 0 1-.862-.771c-.212-.311-.318-.708-.318-1.192 0-.475.117-.898.349-1.268.232-.37.58-.662 1.042-.872.462-.211 1.038-.317 1.726-.317.522 0 1.019.059 1.491.175.473.117.876.243 1.21.378l-.159 1.61a8.89 8.89 0 0 0-1.353-.495 4.964 4.964 0 0 0-1.287-.169c-.456 0-.808.076-1.057.227-.248.152-.373.38-.373.682 0 .242.07.436.208.584.139.147.336.273.593.378.257.104.564.213.923.328.619.197 1.14.413 1.561.648.422.236.74.52.953.854.214.334.321.746.321 1.238 0 .246-.039.513-.116.802-.077.288-.23.562-.458.82-.228.258-.561.47-1 .635-.437.166-1.017.25-1.738.25ZM68.982 26.107v-6.143h1.516v6.143h-1.516Zm0-7.076v-1.524h1.516v1.524h-1.516ZM73.48 26.23c-.363 0-.659-.073-.89-.218a1.32 1.32 0 0 1-.51-.584 1.94 1.94 0 0 1-.164-.807v-7.728h1.515v7.101c0 .328.02.56.058.697.039.137.111.22.217.246.106.027.259.04.458.04l-.134 1.253h-.55ZM76.72 26.107l-2.348-6.143h1.491l1.503 4.251 1.504-4.25h1.491l-2.347 6.142zM82.353 26.23c-.326 0-.623-.073-.892-.218a1.625 1.625 0 0 1-.642-.63c-.158-.274-.238-.606-.238-.995 0-.348.08-.646.241-.894a2.05 2.05 0 0 1 .636-.62 3.62 3.62 0 0 1 .856-.393c.307-.096.61-.167.91-.212.3-.045.563-.072.792-.08-.017-.352-.106-.608-.27-.768-.162-.16-.44-.24-.83-.24-.273 0-.54.038-.798.114a5.626 5.626 0 0 0-.877.353l-.134-1.24c.366-.18.734-.316 1.103-.406.368-.09.742-.135 1.121-.135.456 0 .85.082 1.18.246.33.164.584.427.763.79.18.362.27.84.27 1.433v1.659c0 .307.014.53.042.667.029.137.082.224.159.26.077.037.19.056.336.056h.196l-.135 1.253h-.55c-.228 0-.43-.03-.608-.09a1.376 1.376 0 0 1-.455-.248 1.285 1.285 0 0 1-.306-.375c-.2.226-.47.4-.81.526-.34.125-.693.187-1.06.187Zm.636-1.167c.134 0 .301-.036.5-.108.2-.071.38-.183.539-.334V23.22c-.285.012-.57.06-.856.141a1.934 1.934 0 0 0-.715.363.752.752 0 0 0-.287.602c0 .25.065.435.196.556.13.12.338.18.623.18Z" fill="#0A1F44" fill-rule="nonzero"/></g></g><g transform="translate(38.198 95.568)"><mask id="d" fill="white"><use xlink:href="#c"/></mask><g mask="url(#d)"><path d="M16.964 27.032c-.904 0-1.678-.185-2.322-.555a3.704 3.704 0 0 1-1.479-1.563c-.342-.671-.513-1.459-.513-2.363 0-.897.19-1.68.571-2.349.381-.669.908-1.188 1.58-1.556.672-.369 1.446-.553 2.322-.553.453 0 .885.047 1.299.141.413.095.767.215 1.06.363l-.17 1.498a5.542 5.542 0 0 0-1.012-.353 4.84 4.84 0 0 0-1.177-.138c-.635 0-1.157.127-1.564.383a2.317 2.317 0 0 0-.905 1.044c-.195.44-.293.938-.293 1.495 0 .585.099 1.103.297 1.553.197.45.493.804.889 1.06.395.255.888.383 1.479.383.179 0 .367-.012.565-.037a8.7 8.7 0 0 0 .608-.098v-1.535h-1.173v-1.301h2.737v3.83c-.297.177-.691.33-1.182.458-.491.129-1.03.193-1.617.193ZM20.973 26.86v-6.139h1.516v6.14h-1.516Zm0-7.072v-1.523h1.516v1.523h-1.516ZM23.907 26.86v-6.139h1.417l.062 1.142-.355-.467c.232-.196.51-.374.831-.534a2.5 2.5 0 0 1 1.125-.24c.782 0 1.362.262 1.741.784.38.521.569 1.198.569 2.029v3.425H27.78v-3.303c0-.573-.095-.996-.284-1.27-.19-.275-.498-.412-.926-.412-.346 0-.63.085-.85.255a2.36 2.36 0 0 0-.58.678l.281-.749v4.801h-1.515ZM31.973 26.983c-.326 0-.623-.072-.892-.218a1.624 1.624 0 0 1-.642-.629c-.158-.274-.238-.606-.238-.995 0-.348.08-.645.241-.893a2.05 2.05 0 0 1 .636-.62c.263-.166.548-.297.856-.393.307-.096.61-.167.91-.212.3-.045.563-.071.792-.08-.017-.352-.106-.607-.27-.767-.162-.16-.44-.24-.83-.24-.273 0-.54.038-.798.114a5.628 5.628 0 0 0-.877.353l-.134-1.24c.366-.18.734-.315 1.103-.405a4.71 4.71 0 0 1 1.121-.135c.456 0 .85.082 1.18.245.33.164.584.427.763.79.18.361.27.84.27 1.433v1.657c0 .307.014.53.042.667.029.137.082.224.159.26.077.037.19.056.336.056h.196l-.135 1.252h-.55c-.228 0-.43-.03-.608-.089a1.376 1.376 0 0 1-.455-.248 1.285 1.285 0 0 1-.306-.375c-.2.225-.47.4-.81.525-.34.125-.693.187-1.06.187Zm.636-1.166c.134 0 .301-.036.501-.108.2-.071.379-.183.538-.334v-1.4c-.285.012-.57.06-.856.141a1.934 1.934 0 0 0-.715.362.751.751 0 0 0-.287.602c0 .25.065.435.196.556.13.12.338.18.623.18ZM39.722 26.86v-8.595h3.227c.827 0 1.441.177 1.842.531.402.354.602.869.602 1.544 0 .504-.113.924-.339 1.262-.226.338-.565.584-1.017.74v-.295c.684.147 1.195.418 1.534.81.338.393.507.913.507 1.56 0 .774-.249 1.374-.746 1.802-.497.428-1.177.641-2.04.641h-3.57Zm1.565-1.4h1.772c.428 0 .769-.087 1.023-.263.255-.176.382-.494.382-.952 0-.467-.134-.784-.403-.952-.269-.167-.603-.251-1.002-.251h-1.772v2.419Zm0-3.818h1.43c.379 0 .663-.078.852-.233.19-.156.284-.406.284-.75 0-.356-.094-.61-.284-.764-.19-.153-.473-.23-.852-.23h-1.43v1.977ZM47.068 26.86v-6.139h1.418l.036.65c.155-.171.373-.343.654-.515a1.735 1.735 0 0 1 1.192-.233l-.11 1.498a1.551 1.551 0 0 0-.266-.05 2.79 2.79 0 0 0-.26-.012c-.256 0-.49.06-.703.178-.211.12-.36.264-.446.436v4.187h-1.515ZM51.101 26.86v-6.139h1.516v6.14H51.1Zm0-7.072v-1.523h1.516v1.523H51.1ZM56.454 29.955c-.57 0-1.068-.07-1.494-.212-.425-.141-.755-.343-.99-.605a1.361 1.361 0 0 1-.351-.94c0-.306.084-.58.253-.819.17-.24.415-.449.737-.629a1.21 1.21 0 0 1-.391-.368.89.89 0 0 1-.147-.504c0-.196.056-.367.168-.512.112-.146.26-.261.443-.347a2.11 2.11 0 0 1-.703-.85 2.666 2.666 0 0 1-.238-1.127c0-.442.096-.849.287-1.219.192-.37.472-.667.84-.89.37-.223.82-.335 1.354-.335.277 0 .533.035.767.105.234.07.443.165.627.288.122-.07.299-.132.531-.187.232-.055.491-.083.776-.083h.391l-.097.958H58.52a1.67 1.67 0 0 0-.196.012c.123.188.214.4.275.632.062.234.092.473.092.719 0 .442-.095.848-.284 1.218a2.2 2.2 0 0 1-.834.89c-.367.224-.817.335-1.35.335-.115 0-.225-.008-.33-.024a4.346 4.346 0 0 1-.319-.062c-.09.037-.134.103-.134.197 0 .11.067.194.202.251.134.058.344.109.63.154l1.05.135c.656.086 1.17.272 1.543.559.373.286.56.693.56 1.221 0 .41-.118.767-.352 1.072-.234.305-.573.542-1.017.712-.445.17-.978.255-1.602.255Zm.062-1.154c.513 0 .902-.064 1.167-.19.265-.128.397-.322.397-.584 0-.233-.093-.405-.278-.516-.185-.11-.48-.196-.883-.258l-1.338-.196c-.2.078-.367.185-.502.322a.735.735 0 0 0-.201.537c0 .3.144.521.434.667.289.145.69.218 1.204.218Zm-.294-4.445c.363 0 .637-.12.822-.36.186-.24.278-.557.278-.954 0-.401-.092-.72-.278-.958-.185-.237-.46-.356-.822-.356-.366 0-.644.119-.83.356-.188.237-.282.557-.282.958 0 .397.094.715.281.954.187.24.465.36.831.36ZM62.578 29.955c-.57 0-1.069-.07-1.494-.212-.426-.141-.756-.343-.99-.605a1.361 1.361 0 0 1-.352-.94c0-.306.085-.58.254-.819.169-.24.414-.449.736-.629a1.21 1.21 0 0 1-.39-.368.89.89 0 0 1-.148-.504c0-.196.056-.367.168-.512.112-.146.26-.261.444-.347a2.11 2.11 0 0 1-.703-.85 2.666 2.666 0 0 1-.239-1.127c0-.442.096-.849.288-1.219.191-.37.471-.667.84-.89.369-.223.82-.335 1.354-.335.277 0 .532.035.766.105.235.07.444.165.627.288.122-.07.3-.132.532-.187.232-.055.49-.083.776-.083h.391l-.098.958H64.643a1.67 1.67 0 0 0-.195.012c.122.188.214.4.275.632.06.234.091.473.091.719 0 .442-.094.848-.284 1.218a2.2 2.2 0 0 1-.834.89c-.367.224-.817.335-1.35.335-.115 0-.225-.008-.33-.024a4.346 4.346 0 0 1-.318-.062c-.09.037-.135.103-.135.197 0 .11.068.194.202.251.134.058.344.109.63.154l1.05.135c.656.086 1.17.272 1.544.559.372.286.559.693.559 1.221 0 .41-.117.767-.352 1.072-.234.305-.573.542-1.017.712-.444.17-.978.255-1.601.255Zm.06-1.154c.514 0 .903-.064 1.168-.19.265-.128.397-.322.397-.584 0-.233-.092-.405-.278-.516-.185-.11-.48-.196-.883-.258l-1.338-.196c-.2.078-.367.185-.501.322a.735.735 0 0 0-.202.537c0 .3.145.521.434.667.29.145.69.218 1.204.218Zm-.292-4.445c.362 0 .636-.12.821-.36.186-.24.279-.557.279-.954 0-.401-.093-.72-.279-.958-.185-.237-.459-.356-.821-.356-.367 0-.644.119-.832.356-.187.237-.28.557-.28.958 0 .397.093.715.28.954.188.24.465.36.832.36ZM68.017 26.983c-.404 0-.767-.039-1.091-.116a5.46 5.46 0 0 1-.975-.338l.135-1.302c.313.185.622.333.925.445.304.113.623.17.957.17.301 0 .531-.05.69-.148.16-.098.239-.254.239-.467 0-.16-.042-.29-.126-.393a1.104 1.104 0 0 0-.375-.276 7.407 7.407 0 0 0-.624-.264 5.31 5.31 0 0 1-.956-.454 1.752 1.752 0 0 1-.6-.593c-.136-.23-.204-.516-.204-.856 0-.352.092-.663.275-.933.184-.27.444-.481.782-.633.339-.151.74-.227 1.204-.227.387 0 .735.043 1.042.13.308.085.592.202.853.349l-.135 1.302a5.003 5.003 0 0 0-.825-.476 2.19 2.19 0 0 0-.91-.187c-.261 0-.463.053-.605.16a.533.533 0 0 0-.214.453c0 .238.1.416.3.535.199.118.519.264.959.436.285.11.532.225.742.343.21.12.384.25.523.393.138.144.241.306.308.488.068.183.101.392.101.63 0 .389-.093.719-.278.991-.185.272-.456.48-.813.623-.356.144-.791.215-1.304.215Z" fill="#0A1F44" fill-rule="nonzero"/></g></g><g transform="translate(38.198 139.568)"><mask id="f" fill="white"><use xlink:href="#e"/></mask><g mask="url(#f)"><path d="M15.644 26.777a5.9 5.9 0 0 1-1.069-.102 9.124 9.124 0 0 1-1.02-.245 5.219 5.219 0 0 1-.746-.28l.183-1.67c.285.14.583.269.892.387.31.119.628.215.954.289.326.073.656.11.99.11.415 0 .75-.082 1.002-.245.253-.164.379-.414.379-.75 0-.257-.071-.465-.214-.622-.143-.158-.36-.3-.654-.424a18.869 18.869 0 0 0-1.124-.427 7.792 7.792 0 0 1-1.229-.543 2.489 2.489 0 0 1-.861-.77c-.212-.312-.318-.709-.318-1.192 0-.475.116-.897.348-1.268.232-.37.58-.66 1.042-.871.463-.211 1.038-.317 1.727-.317.521 0 1.018.059 1.49.175.473.117.877.243 1.21.378l-.158 1.609a8.894 8.894 0 0 0-1.354-.495 4.967 4.967 0 0 0-1.286-.169c-.457 0-.809.076-1.057.228a.746.746 0 0 0-.373.681c0 .242.069.436.208.583.138.148.336.274.592.378.257.104.565.214.923.328.62.197 1.14.413 1.562.648.421.236.739.52.953.854.214.333.32.746.32 1.237 0 .245-.038.512-.115.8a2.03 2.03 0 0 1-.459.82c-.228.258-.561.47-.999.636-.438.166-1.017.249-1.739.249ZM21.829 26.727c-.383 0-.695-.078-.935-.236a1.441 1.441 0 0 1-.532-.605 1.801 1.801 0 0 1-.17-.767v-3.401h-.869l.135-1.253h.733v-1.35l1.516-.16v1.51h1.344v1.253h-1.344v2.775c0 .31.018.535.055.672.036.137.12.223.25.258s.338.052.624.052h.415l-.134 1.252h-1.088ZM26.938 26.727c-.738 0-1.352-.148-1.843-.445a2.848 2.848 0 0 1-1.103-1.178 3.54 3.54 0 0 1-.366-1.606c0-.56.115-1.078.345-1.553.23-.475.567-.857 1.011-1.145.444-.289.986-.433 1.626-.433.586 0 1.075.12 1.466.362.392.242.685.564.88.967.196.403.294.848.294 1.335 0 .136-.008.272-.025.409-.016.137-.04.28-.073.426h-3.948c.057.381.176.69.358.924.181.236.403.409.666.52.263.11.545.165.846.165.355 0 .685-.046.99-.138.306-.092.587-.214.844-.365l.073 1.289a4.267 4.267 0 0 1-.868.325 4.478 4.478 0 0 1-1.173.141Zm-1.7-3.88h2.47c0-.186-.035-.373-.104-.56a1.07 1.07 0 0 0-.345-.475c-.161-.129-.378-.193-.651-.193-.391 0-.699.116-.923.348a1.739 1.739 0 0 0-.446.88ZM31.913 26.605l-2.347-6.14h1.49l1.504 4.25 1.504-4.25h1.49l-2.346 6.14zM39.136 26.727c-.738 0-1.352-.148-1.843-.445a2.848 2.848 0 0 1-1.103-1.178 3.54 3.54 0 0 1-.367-1.606c0-.56.115-1.078.346-1.553.23-.475.567-.857 1.011-1.145.444-.289.986-.433 1.626-.433.586 0 1.075.12 1.466.362s.685.564.88.967c.196.403.294.848.294 1.335 0 .136-.009.272-.025.409-.016.137-.04.28-.073.426H37.4c.057.381.176.69.357.924.182.236.404.409.667.52.262.11.545.165.846.165.354 0 .684-.046.99-.138.306-.092.587-.214.843-.365l.074 1.289a4.267 4.267 0 0 1-.868.325 4.478 4.478 0 0 1-1.173.141Zm-1.7-3.88h2.47c0-.186-.035-.373-.104-.56a1.07 1.07 0 0 0-.346-.475c-.16-.129-.377-.193-.65-.193-.392 0-.7.116-.923.348a1.739 1.739 0 0 0-.446.88ZM45.063 26.604l1.186-8.595h1.283l2.09 3.917L51.7 18.01h1.283l1.186 8.595h-1.626l-.819-6.458.428.086-2.53 4.567-2.542-4.555.427-.086-.818 6.446zM56.662 26.727c-.326 0-.623-.072-.892-.217a1.624 1.624 0 0 1-.642-.63c-.159-.274-.238-.606-.238-.994 0-.348.08-.646.241-.894a2.05 2.05 0 0 1 .636-.62c.263-.166.548-.297.855-.393.308-.096.612-.166.911-.212.3-.045.563-.071.791-.08-.016-.351-.106-.607-.268-.767-.163-.16-.44-.24-.832-.24-.273 0-.538.039-.797.114a5.628 5.628 0 0 0-.877.353l-.134-1.24c.366-.18.734-.315 1.103-.405a4.71 4.71 0 0 1 1.121-.135c.456 0 .85.082 1.18.246.33.163.584.426.763.788.18.363.27.84.27 1.434v1.658c0 .307.013.529.042.666.028.137.081.224.159.26.077.038.19.056.336.056h.196l-.135 1.252h-.55c-.228 0-.43-.03-.608-.089a1.376 1.376 0 0 1-.455-.248 1.285 1.285 0 0 1-.306-.375c-.2.225-.47.4-.81.525-.34.125-.693.187-1.06.187Zm.636-1.166c.134 0 .301-.036.5-.107.2-.072.38-.184.539-.335v-1.4c-.286.012-.57.06-.856.141a1.934 1.934 0 0 0-.715.363.751.751 0 0 0-.287.601c0 .25.065.435.195.556.13.12.339.181.624.181ZM63.849 29.699c-.57 0-1.069-.07-1.494-.212-.426-.141-.756-.343-.99-.605a1.361 1.361 0 0 1-.352-.939c0-.307.085-.58.254-.82.169-.239.414-.449.736-.629a1.21 1.21 0 0 1-.39-.368.89.89 0 0 1-.147-.504c0-.196.056-.367.168-.512.112-.146.26-.261.443-.347a2.11 2.11 0 0 1-.703-.85 2.666 2.666 0 0 1-.238-1.127c0-.442.095-.848.287-1.219.191-.37.471-.667.84-.89.369-.223.82-.335 1.354-.335.277 0 .532.035.767.105.234.07.443.165.626.288.122-.07.3-.132.532-.187.232-.055.49-.083.776-.083h.391l-.098.958H65.914a1.67 1.67 0 0 0-.195.012c.122.188.214.4.275.633.061.233.092.472.092.718 0 .442-.095.848-.285 1.219a2.2 2.2 0 0 1-.834.89c-.366.223-.817.334-1.35.334-.114 0-.224-.008-.33-.024a4.346 4.346 0 0 1-.318-.062c-.09.037-.135.103-.135.197 0 .11.068.194.202.252.135.057.344.108.63.153l1.05.135c.657.086 1.17.272 1.544.559.372.286.559.694.559 1.222 0 .409-.117.766-.352 1.071-.234.305-.573.542-1.017.712-.444.17-.978.255-1.601.255Zm.061-1.154c.513 0 .902-.064 1.167-.19.265-.127.397-.322.397-.584 0-.233-.092-.405-.278-.516-.185-.11-.48-.196-.883-.257l-1.338-.197c-.2.078-.367.185-.501.322a.735.735 0 0 0-.202.538c0 .298.145.52.434.666.29.145.69.218 1.204.218Zm-.293-4.445c.362 0 .636-.12.822-.36.185-.239.278-.557.278-.954 0-.401-.093-.72-.278-.958-.186-.237-.46-.356-.822-.356-.367 0-.644.119-.831.356-.188.238-.282.557-.282.958 0 .397.094.715.282.955.187.239.464.359.83.359ZM70.498 26.727c-.738 0-1.352-.148-1.843-.445a2.848 2.848 0 0 1-1.103-1.178 3.54 3.54 0 0 1-.366-1.606c0-.56.115-1.078.345-1.553.23-.475.567-.857 1.011-1.145.444-.289.986-.433 1.626-.433.586 0 1.075.12 1.466.362.392.242.685.564.88.967.196.403.294.848.294 1.335 0 .136-.008.272-.025.409-.016.137-.04.28-.073.426h-3.948c.057.381.176.69.358.924.181.236.403.409.666.52.263.11.545.165.846.165.355 0 .685-.046.99-.138.306-.092.587-.214.844-.365l.073 1.289a4.267 4.267 0 0 1-.868.325 4.478 4.478 0 0 1-1.173.141Zm-1.7-3.88h2.47c0-.186-.035-.373-.104-.56a1.07 1.07 0 0 0-.345-.475c-.161-.129-.378-.193-.651-.193-.391 0-.699.116-.923.348a1.739 1.739 0 0 0-.446.88ZM76.792 26.727c-.737 0-1.351-.148-1.842-.445a2.848 2.848 0 0 1-1.103-1.178 3.54 3.54 0 0 1-.367-1.606c0-.56.115-1.078.345-1.553.23-.475.568-.857 1.012-1.145.444-.289.986-.433 1.625-.433.587 0 1.076.12 1.467.362.39.242.684.564.88.967.195.403.293.848.293 1.335 0 .136-.008.272-.024.409-.017.137-.041.28-.074.426h-3.947c.057.381.176.69.357.924.181.236.403.409.666.52.263.11.545.165.847.165.354 0 .684-.046.99-.138.305-.092.586-.214.843-.365l.073 1.289a4.267 4.267 0 0 1-.867.325 4.478 4.478 0 0 1-1.174.141Zm-1.699-3.88h2.47c0-.186-.035-.373-.105-.56a1.07 1.07 0 0 0-.345-.475c-.16-.129-.378-.193-.65-.193-.392 0-.7.116-.924.348a1.739 1.739 0 0 0-.446.88Z" fill="#0A1F44" fill-rule="nonzero"/></g></g><g transform="translate(38.198 183.568)"><mask id="h" fill="white"><use xlink:href="#g"/></mask><g mask="url(#h)"><path d="M17.038 26.52c-.868 0-1.632-.184-2.292-.555a3.923 3.923 0 0 1-1.543-1.56c-.369-.668-.553-1.453-.553-2.354 0-.9.19-1.685.571-2.354.381-.67.906-1.19 1.574-1.56.668-.37 1.432-.555 2.292-.555.452 0 .865.048 1.24.144.375.096.699.216.972.36l-.171 1.497a6.385 6.385 0 0 0-.957-.353 4.054 4.054 0 0 0-1.097-.138c-.598 0-1.099.127-1.5.38a2.383 2.383 0 0 0-.907 1.05c-.204.447-.306.956-.306 1.53 0 .572.1 1.082.3 1.528.2.446.498.796.895 1.05s.891.38 1.482.38c.411 0 .78-.045 1.106-.135a6.96 6.96 0 0 0 .984-.356l.17 1.498a5.477 5.477 0 0 1-1.06.366 5.145 5.145 0 0 1-1.2.138ZM23.027 26.472c-.664 0-1.23-.146-1.7-.436a2.89 2.89 0 0 1-1.072-1.16 3.434 3.434 0 0 1-.37-1.585c0-.577.124-1.109.37-1.596a2.9 2.9 0 0 1 1.073-1.17c.468-.292 1.035-.438 1.699-.438.664 0 1.23.146 1.699.439a2.9 2.9 0 0 1 1.072 1.17c.247.486.37 1.018.37 1.595 0 .573-.123 1.101-.37 1.584a2.89 2.89 0 0 1-1.072 1.16c-.469.291-1.035.437-1.7.437Zm0-1.253c.509 0 .901-.179 1.176-.537.275-.358.413-.822.413-1.39 0-.578-.138-1.047-.413-1.41-.275-.362-.667-.543-1.176-.543-.506 0-.897.181-1.174.543-.277.363-.415.832-.415 1.41 0 .568.138 1.032.415 1.39.277.358.668.537 1.174.537ZM27.219 26.349v-6.14h1.418l.036.651c.155-.172.373-.344.654-.516a1.735 1.735 0 0 1 1.192-.233l-.11 1.498a1.551 1.551 0 0 0-.266-.049 2.79 2.79 0 0 0-.26-.012c-.256 0-.49.06-.702.178-.212.119-.361.264-.447.436v4.187H27.22ZM31.742 29.32l1.356-3.377-2.542-5.734h1.687l1.564 3.954 1.589-3.954h1.687l-3.826 9.111zM44.599 26.52c-.905 0-1.679-.184-2.322-.555a3.704 3.704 0 0 1-1.48-1.562c-.341-.672-.513-1.46-.513-2.364 0-.896.19-1.68.572-2.348.38-.67.907-1.188 1.58-1.557.672-.368 1.446-.552 2.322-.552.452 0 .885.047 1.298.14.414.095.767.216 1.06.363l-.17 1.498a5.542 5.542 0 0 0-1.012-.353 4.84 4.84 0 0 0-1.176-.138c-.636 0-1.157.128-1.565.384a2.317 2.317 0 0 0-.904 1.043c-.196.44-.293.939-.293 1.495 0 .586.098 1.103.296 1.554.198.45.494.803.89 1.059.394.256.887.383 1.478.383.18 0 .368-.012.565-.036a8.7 8.7 0 0 0 .608-.099v-1.534H44.66v-1.302h2.738v3.831c-.298.176-.692.328-1.183.457-.49.13-1.03.194-1.616.194ZM51.126 26.472c-.636 0-1.143-.127-1.522-.381a2.125 2.125 0 0 1-.819-1.047c-.167-.444-.25-.954-.25-1.532V20.21h1.515v3.303c0 .57.095.992.284 1.268.19.277.498.415.926.415.342 0 .626-.082.852-.246a1.89 1.89 0 0 0 .566-.688l-.27.774v-4.826h1.516v6.14h-1.417l-.074-1.068.33.43c-.146.188-.378.362-.693.521-.316.16-.63.24-.944.24ZM54.853 26.35l3.312-5.404.171.552h-3.202V20.21h5.06l-3.312 5.403-.232-.553h3.57v1.29zM61.111 26.349v-6.14h1.296l.097.897-.22-.27c.233-.185.51-.351.835-.5.323-.15.701-.225 1.133-.225.326 0 .614.048.865.144.25.097.465.234.645.412.179.178.324.39.434.635l-.367-.086a1.99 1.99 0 0 1 .858-.816 2.776 2.776 0 0 1 1.28-.289c.563 0 1.021.117 1.376.35.354.233.615.562.782.985.167.424.25.92.25 1.49v3.413H68.86v-3.303c0-.573-.089-.997-.266-1.271-.177-.274-.471-.411-.883-.411-.204 0-.382.035-.535.107a.972.972 0 0 0-.379.313c-.1.137-.174.303-.223.497a2.685 2.685 0 0 0-.073.654v3.414h-1.515v-3.303c0-.38-.04-.696-.12-.946-.08-.25-.205-.435-.379-.555-.173-.121-.398-.181-.675-.181-.354 0-.645.082-.87.248-.227.166-.425.39-.596.673l.28-.823v4.887h-1.515ZM73.052 26.472c-.326 0-.623-.073-.892-.218a1.624 1.624 0 0 1-.642-.63c-.159-.274-.238-.605-.238-.994 0-.348.08-.646.241-.893a2.05 2.05 0 0 1 .636-.62c.263-.166.548-.297.855-.394.308-.096.612-.166.911-.211.3-.045.563-.072.791-.08-.016-.352-.106-.608-.268-.768-.163-.16-.44-.239-.832-.239-.273 0-.538.038-.797.114a5.628 5.628 0 0 0-.877.353l-.134-1.24c.366-.18.734-.316 1.103-.406a4.71 4.71 0 0 1 1.12-.135c.457 0 .85.082 1.18.246.33.163.585.426.764.789.18.362.27.84.27 1.433v1.658c0 .307.013.529.042.666.028.137.081.224.159.26.077.038.19.056.336.056h.196l-.135 1.253h-.55c-.228 0-.43-.03-.608-.09a1.376 1.376 0 0 1-.455-.248 1.285 1.285 0 0 1-.306-.375c-.2.226-.47.4-.81.525-.34.125-.693.188-1.06.188Zm.636-1.167c.134 0 .301-.036.5-.107.2-.072.38-.183.539-.335v-1.4c-.286.013-.57.06-.856.142a1.934 1.934 0 0 0-.715.362.751.751 0 0 0-.287.601c0 .25.065.435.195.556.13.12.339.181.624.181ZM77.819 26.349v-6.14h1.418l.06 1.142-.354-.466c.233-.197.51-.375.831-.534a2.5 2.5 0 0 1 1.125-.24c.782 0 1.363.261 1.742.783.378.522.568 1.198.568 2.029v3.426h-1.516v-3.303c0-.573-.094-.997-.284-1.271-.19-.274-.498-.411-.926-.411-.346 0-.63.085-.85.254a2.36 2.36 0 0 0-.58.679l.281-.75v4.802H77.82Z" fill="#0A1F44" fill-rule="nonzero"/></g></g><g transform="translate(38.198 227.568)"><mask id="j" fill="white"><use xlink:href="#i"/></mask><g mask="url(#j)"><path d="M17.832 24.068h-3.58v-1.376h3.58v1.376Zm-1.992-5.025h.403l-2.469 7.064H12.26l3.043-8.6h1.48l3.042 8.6H18.31l-2.469-7.064ZM22.049 26.23c-.363 0-.66-.073-.89-.218a1.32 1.32 0 0 1-.51-.584 1.94 1.94 0 0 1-.165-.807v-7.728H22v7.101c0 .328.02.56.058.697.039.137.111.22.217.246.106.027.259.04.458.04L22.6 26.23h-.55ZM26.877 26.23c-.465 0-.866-.076-1.204-.227a3.672 3.672 0 0 1-.947-.62l.452-.32-.074 1.044h-1.417v-9.214h1.515v4.091l-.366-.233c.268-.279.569-.496.9-.652a2.656 2.656 0 0 1 1.14-.233c.6 0 1.103.145 1.51.436.408.29.716.678.926 1.161.21.483.315 1.012.315 1.585s-.105 1.102-.315 1.585c-.21.483-.518.87-.926 1.16-.407.292-.91.437-1.51.437Zm-.22-1.253c.301 0 .558-.082.77-.246.212-.164.372-.39.482-.679.11-.288.165-.623.165-1.004 0-.38-.055-.716-.165-1.004a1.515 1.515 0 0 0-.482-.68 1.221 1.221 0 0 0-.77-.245c-.355 0-.644.082-.868.246a1.44 1.44 0 0 0-.498.679 2.86 2.86 0 0 0-.162 1.004c0 .38.054.716.162 1.004.108.29.274.515.498.68.224.163.513.245.868.245ZM33.623 26.23c-.737 0-1.351-.148-1.842-.445a2.849 2.849 0 0 1-1.103-1.18A3.544 3.544 0 0 1 30.31 23c0-.561.115-1.08.345-1.554.23-.475.568-.857 1.012-1.146.444-.289.986-.433 1.625-.433.587 0 1.076.12 1.467.362s.684.565.88.968c.196.403.293.849.293 1.336 0 .135-.008.271-.024.409-.016.137-.04.279-.073.426h-3.948c.057.381.176.69.357.925.182.235.404.408.666.519.263.11.545.166.847.166.354 0 .684-.046.99-.138.305-.092.586-.214.843-.366l.073 1.29a4.266 4.266 0 0 1-.867.326 4.475 4.475 0 0 1-1.174.141Zm-1.699-3.882h2.47c0-.186-.035-.374-.105-.562a1.07 1.07 0 0 0-.345-.474c-.16-.129-.378-.193-.65-.193-.392 0-.7.116-.923.348a1.74 1.74 0 0 0-.447.88ZM36.972 26.107v-6.143h1.418l.037.651c.154-.172.372-.344.654-.516a1.735 1.735 0 0 1 1.191-.233l-.11 1.499a1.55 1.55 0 0 0-.266-.05 2.789 2.789 0 0 0-.26-.012c-.256 0-.49.06-.702.179-.212.118-.36.264-.446.436v4.19h-1.516ZM42.998 26.23c-.383 0-.695-.079-.935-.236a1.442 1.442 0 0 1-.532-.606 1.803 1.803 0 0 1-.171-.767v-3.404h-.868l.135-1.253h.733v-1.351l1.516-.16v1.511h1.344v1.253h-1.344v2.777c0 .311.018.535.055.673.036.137.12.223.25.258.13.034.338.052.623.052h.416l-.134 1.253h-1.088ZM50.673 26.28c-.346 0-.702-.035-1.07-.102a9.12 9.12 0 0 1-1.02-.246 5.217 5.217 0 0 1-.745-.28l.183-1.67c.285.139.583.268.892.387.31.119.628.215.954.288.326.074.656.111.99.111.415 0 .75-.082 1.002-.246.252-.163.379-.413.379-.75 0-.257-.072-.465-.214-.623-.143-.157-.36-.299-.654-.423a18.862 18.862 0 0 0-1.124-.427 7.79 7.79 0 0 1-1.229-.544 2.489 2.489 0 0 1-.861-.771c-.212-.311-.318-.708-.318-1.192 0-.475.116-.898.348-1.268.232-.37.58-.662 1.042-.872.462-.211 1.038-.317 1.726-.317.522 0 1.019.059 1.492.175.472.117.875.243 1.21.378l-.16 1.61a8.89 8.89 0 0 0-1.353-.495 4.964 4.964 0 0 0-1.286-.169c-.457 0-.81.076-1.058.227-.248.152-.372.38-.372.682 0 .242.069.436.207.584.139.147.337.273.593.378.257.104.564.214.923.328.62.197 1.14.413 1.561.648.422.236.74.52.954.854.214.334.32.746.32 1.238 0 .246-.038.513-.116.802-.077.288-.23.562-.458.82-.228.258-.561.47-1 .635-.437.166-1.017.25-1.738.25ZM56.369 26.23c-.326 0-.623-.073-.892-.218a1.625 1.625 0 0 1-.642-.63c-.159-.274-.238-.606-.238-.995 0-.348.08-.646.241-.894a2.05 2.05 0 0 1 .636-.62 3.62 3.62 0 0 1 .855-.393c.308-.096.611-.167.91-.212.3-.045.564-.072.792-.08-.016-.352-.106-.608-.269-.768-.163-.16-.44-.24-.83-.24-.274 0-.54.038-.798.114a5.626 5.626 0 0 0-.877.353l-.135-1.24c.367-.18.735-.316 1.103-.406.369-.09.743-.135 1.122-.135.456 0 .85.082 1.18.246.33.164.584.427.763.79.18.362.269.84.269 1.433v1.659c0 .307.014.53.043.667.028.137.081.224.159.26.077.037.189.056.336.056h.195l-.134 1.253h-.55c-.228 0-.431-.03-.608-.089a1.376 1.376 0 0 1-.456-.249 1.285 1.285 0 0 1-.305-.375c-.2.226-.47.4-.81.526-.34.125-.693.187-1.06.187Zm.635-1.167c.135 0 .302-.036.502-.108.2-.071.378-.183.537-.334V23.22c-.285.012-.57.06-.855.141a1.934 1.934 0 0 0-.715.363.752.752 0 0 0-.287.602c0 .25.065.435.195.556.13.12.338.18.623.18ZM61.136 26.107v-6.143h1.417l.061 1.143-.354-.467c.232-.197.51-.375.831-.534a2.5 2.5 0 0 1 1.125-.24c.782 0 1.362.261 1.741.783.38.522.569 1.2.569 2.03v3.428H65.01v-3.305c0-.573-.095-.997-.284-1.271-.19-.275-.498-.412-.926-.412-.346 0-.63.085-.85.255-.22.17-.413.396-.58.679l.281-.75v4.804h-1.515ZM69.777 26.23c-.383 0-.695-.079-.935-.236a1.442 1.442 0 0 1-.532-.606 1.803 1.803 0 0 1-.171-.767v-3.404h-.868l.135-1.253h.733v-1.351l1.515-.16v1.511H71v1.253h-1.345v2.777c0 .311.019.535.055.673.037.137.12.223.251.258.13.034.338.052.623.052H71l-.135 1.253h-1.087ZM74.714 26.23c-.664 0-1.23-.145-1.699-.436a2.89 2.89 0 0 1-1.072-1.161 3.437 3.437 0 0 1-.37-1.585c0-.577.124-1.11.37-1.597a2.901 2.901 0 0 1 1.072-1.17c.469-.293 1.035-.44 1.7-.44.663 0 1.23.147 1.698.44.469.292.826.683 1.073 1.17.246.487.37 1.02.37 1.597 0 .573-.124 1.102-.37 1.585a2.89 2.89 0 0 1-1.073 1.16c-.468.292-1.035.437-1.699.437Zm0-1.253c.51 0 .902-.18 1.177-.538.275-.358.412-.822.412-1.391 0-.577-.137-1.047-.412-1.41-.275-.362-.667-.543-1.177-.543-.505 0-.896.18-1.173.543-.277.363-.416.833-.416 1.41 0 .57.139 1.033.416 1.391.277.359.668.538 1.173.538ZM80.642 26.23a4.68 4.68 0 0 1-1.09-.117 5.459 5.459 0 0 1-.975-.338l.134-1.302c.314.184.622.333.926.446.303.112.622.168.956.168.302 0 .532-.049.69-.147.16-.098.24-.254.24-.467 0-.16-.043-.29-.126-.393a1.104 1.104 0 0 0-.376-.276 7.405 7.405 0 0 0-.623-.265 5.31 5.31 0 0 1-.957-.454 1.753 1.753 0 0 1-.599-.593c-.136-.231-.204-.517-.204-.857 0-.352.091-.663.275-.934.183-.27.444-.48.782-.632.338-.152.74-.228 1.204-.228.387 0 .734.043 1.042.13.307.085.592.202.852.35l-.134 1.302a5.002 5.002 0 0 0-.825-.476 2.19 2.19 0 0 0-.91-.188c-.261 0-.463.054-.606.16a.534.534 0 0 0-.214.455c0 .237.1.415.3.534.2.119.52.264.96.436.284.11.532.226.742.344.21.12.384.25.522.393.139.144.242.307.309.489s.1.392.1.63c0 .389-.092.72-.277.992-.186.272-.457.48-.813.623-.357.143-.792.215-1.305.215Z" fill="#0A1F44" fill-rule="nonzero"/></g></g><g transform="translate(38.198 269.568)"><mask id="l" fill="white"><use xlink:href="#k"/></mask><g mask="url(#l)"><path d="m12.76 26.86 1.186-8.595h1.283l2.09 3.917 2.078-3.917h1.283l1.186 8.595H20.24l-.819-6.458.428.086-2.53 4.567-2.542-4.555.427-.086-.818 6.446zM22.99 26.86v-6.139h1.516v6.14H22.99Zm0-7.072v-1.523h1.516v1.523H22.99ZM27.659 26.983c-.403 0-.767-.039-1.091-.116a5.46 5.46 0 0 1-.975-.338l.135-1.302c.313.185.622.333.926.446.303.112.622.168.956.168.301 0 .532-.049.69-.147.16-.098.239-.254.239-.467 0-.16-.042-.29-.125-.393a1.104 1.104 0 0 0-.376-.276 7.407 7.407 0 0 0-.624-.264 5.31 5.31 0 0 1-.956-.454 1.752 1.752 0 0 1-.599-.593c-.136-.23-.205-.516-.205-.856 0-.352.092-.663.275-.933.184-.27.445-.481.783-.633.338-.151.74-.227 1.204-.227.387 0 .734.043 1.041.13.308.085.592.202.853.35l-.134 1.3a5.003 5.003 0 0 0-.825-.475 2.19 2.19 0 0 0-.911-.187c-.26 0-.462.053-.605.16a.533.533 0 0 0-.214.454c0 .237.1.415.3.534.2.118.519.264.959.436.285.11.533.225.742.343.21.12.384.25.523.393.139.144.241.306.309.488.067.183.1.392.1.63 0 .389-.092.72-.278.991-.185.272-.456.48-.812.623-.357.144-.792.215-1.305.215ZM33.086 26.983c-.383 0-.695-.078-.935-.236a1.441 1.441 0 0 1-.532-.605 1.801 1.801 0 0 1-.171-.767v-3.402h-.868l.134-1.252h.734v-1.35l1.515-.16v1.51h1.345v1.252h-1.345v2.776c0 .31.019.535.055.672.037.137.12.223.25.258.131.034.339.052.624.052h.416l-.135 1.252h-1.087ZM35.787 29.832l1.356-3.377-2.542-5.734h1.687l1.564 3.954 1.59-3.954h1.686l-3.826 9.111zM47.324 27.032a5.9 5.9 0 0 1-1.069-.1 9.124 9.124 0 0 1-1.02-.246 5.219 5.219 0 0 1-.746-.28l.183-1.67c.285.14.583.268.892.387.31.119.628.215.954.289.326.073.656.11.99.11.415 0 .75-.082 1.002-.245.253-.164.379-.414.379-.75 0-.257-.071-.465-.214-.623-.143-.157-.36-.298-.654-.423a18.869 18.869 0 0 0-1.124-.427 7.792 7.792 0 0 1-1.229-.543 2.489 2.489 0 0 1-.861-.77c-.212-.312-.318-.709-.318-1.192 0-.475.116-.897.348-1.268.232-.37.58-.66 1.042-.872.463-.21 1.038-.316 1.727-.316.521 0 1.018.059 1.49.175.473.117.877.243 1.21.378l-.158 1.608a8.894 8.894 0 0 0-1.354-.494 4.967 4.967 0 0 0-1.286-.169c-.457 0-.809.076-1.057.227a.746.746 0 0 0-.373.682c0 .241.069.436.208.583.138.148.336.273.592.378.257.104.565.214.923.328.62.197 1.14.413 1.561.648.422.235.74.52.954.853.214.334.32.746.32 1.237 0 .246-.038.513-.115.802a2.03 2.03 0 0 1-.459.82c-.228.257-.561.469-.999.635-.438.166-1.017.248-1.739.248ZM53.02 26.983c-.326 0-.623-.072-.892-.218a1.624 1.624 0 0 1-.642-.629c-.159-.274-.238-.606-.238-.995 0-.347.08-.645.241-.893a2.05 2.05 0 0 1 .636-.62c.262-.166.548-.297.855-.393.308-.096.611-.167.91-.212.3-.045.564-.071.792-.08-.016-.352-.106-.607-.269-.767-.163-.16-.44-.24-.83-.24-.274 0-.54.038-.798.114a5.628 5.628 0 0 0-.877.353l-.135-1.24c.367-.18.735-.315 1.103-.405a4.71 4.71 0 0 1 1.122-.135c.456 0 .85.082 1.18.245.33.164.584.427.763.79.18.361.269.84.269 1.433v1.658c0 .306.014.529.043.666.028.137.081.224.159.26.077.037.19.056.336.056h.195l-.134 1.252h-.55c-.228 0-.431-.03-.608-.089a1.376 1.376 0 0 1-.455-.248 1.285 1.285 0 0 1-.306-.375c-.2.225-.47.4-.81.525-.34.125-.693.187-1.06.187Zm.636-1.166c.134 0 .301-.036.5-.108.2-.071.38-.183.538-.334v-1.4c-.285.012-.57.06-.855.141a1.934 1.934 0 0 0-.715.362.751.751 0 0 0-.287.602c0 .25.065.435.195.556.13.12.338.18.624.18ZM57.787 26.86v-6.139h1.417l.062 1.142-.355-.467c.232-.196.51-.374.831-.534a2.5 2.5 0 0 1 1.125-.24c.782 0 1.362.262 1.741.784.38.521.569 1.198.569 2.029v3.426H61.66v-3.304c0-.573-.095-.996-.284-1.27-.19-.275-.498-.412-.926-.412-.346 0-.63.085-.85.255a2.36 2.36 0 0 0-.58.678l.281-.749v4.802h-1.515ZM67.002 26.983c-.62 0-1.14-.145-1.561-.436a2.712 2.712 0 0 1-.954-1.16 3.868 3.868 0 0 1-.32-1.584c0-.573.107-1.101.32-1.584.214-.483.532-.87.954-1.16.421-.291.942-.436 1.561-.436.448 0 .827.074 1.137.224.31.15.582.34.819.574l-.367.32v-4.09h1.516v9.21h-1.43l-.074-1.044.44.319a3.83 3.83 0 0 1-.886.62c-.305.152-.69.227-1.155.227Zm.22-1.252c.334 0 .607-.082.82-.246.21-.163.368-.39.47-.678.101-.289.152-.623.152-1.004 0-.38-.05-.715-.152-1.004a1.435 1.435 0 0 0-.47-.678c-.213-.164-.486-.246-.82-.246a1.34 1.34 0 0 0-.813.246c-.224.164-.395.39-.513.678a2.635 2.635 0 0 0-.177 1.004c0 .38.059.715.177 1.004.118.288.29.515.513.678.224.164.495.246.813.246ZM74.458 26.983c-.738 0-1.352-.148-1.843-.445a2.848 2.848 0 0 1-1.103-1.179 3.54 3.54 0 0 1-.366-1.605c0-.56.115-1.079.345-1.553.23-.475.567-.857 1.011-1.145.444-.289.986-.433 1.626-.433.586 0 1.075.12 1.466.362.392.241.685.564.88.967.196.403.294.848.294 1.335 0 .135-.008.271-.025.409-.016.137-.04.279-.073.426h-3.948c.057.38.176.689.358.924.181.236.403.409.666.52.263.11.545.165.846.165.355 0 .685-.046.99-.138.306-.092.587-.214.844-.366l.073 1.29a4.267 4.267 0 0 1-.868.325 4.478 4.478 0 0 1-1.173.141Zm-1.7-3.88h2.47c0-.186-.035-.373-.104-.561a1.07 1.07 0 0 0-.345-.475c-.161-.128-.378-.192-.651-.192-.391 0-.699.116-.923.347a1.739 1.739 0 0 0-.446.881ZM77.807 26.86v-6.139h1.417l.037.65c.155-.171.373-.343.654-.515a1.735 1.735 0 0 1 1.192-.233l-.11 1.498a1.551 1.551 0 0 0-.266-.05 2.79 2.79 0 0 0-.26-.012c-.257 0-.49.06-.703.178-.212.12-.36.264-.446.436v4.188h-1.515ZM83.575 26.983c-.403 0-.766-.039-1.09-.116a5.46 5.46 0 0 1-.975-.338l.134-1.302c.314.185.623.333.926.446.304.112.623.168.957.168.301 0 .531-.049.69-.147.16-.098.238-.254.238-.467 0-.16-.041-.29-.125-.393a1.104 1.104 0 0 0-.376-.276 7.407 7.407 0 0 0-.623-.264 5.31 5.31 0 0 1-.956-.454 1.752 1.752 0 0 1-.6-.593c-.136-.23-.204-.516-.204-.856 0-.352.092-.663.275-.933.183-.27.444-.481.782-.633.338-.151.74-.227 1.204-.227.387 0 .735.043 1.042.13.308.085.592.202.853.35l-.135 1.3a5.003 5.003 0 0 0-.825-.475 2.19 2.19 0 0 0-.91-.187c-.261 0-.463.053-.605.16a.533.533 0 0 0-.214.454c0 .237.1.415.3.534.199.118.519.264.959.436.285.11.532.225.742.343.21.12.384.25.523.393.138.144.241.306.308.488.067.183.101.392.101.63 0 .389-.093.72-.278.991-.185.272-.456.48-.813.623-.356.144-.791.215-1.305.215Z" fill="#0A1F44" fill-rule="nonzero"/></g></g><g transform="translate(38.198 313.568)"><mask id="n" fill="white"><use xlink:href="#m"/></mask><g mask="url(#n)"><path d="M13.163 26.604V18.01h1.54l3.654 5.55v-5.55h1.565v8.595H18.64l-3.912-5.894v5.894zM24.176 26.727c-.665 0-1.23-.145-1.7-.435a2.89 2.89 0 0 1-1.072-1.16 3.434 3.434 0 0 1-.37-1.585c0-.577.124-1.109.37-1.596a2.9 2.9 0 0 1 1.073-1.17c.468-.292 1.034-.439 1.699-.439.664 0 1.23.147 1.698.44a2.9 2.9 0 0 1 1.073 1.169c.246.487.37 1.02.37 1.596 0 .573-.124 1.101-.37 1.584a2.89 2.89 0 0 1-1.073 1.16c-.468.291-1.034.436-1.698.436Zm0-1.252c.509 0 .9-.18 1.176-.537.275-.358.412-.822.412-1.39 0-.578-.137-1.048-.412-1.41-.275-.362-.667-.543-1.176-.543-.506 0-.897.18-1.174.543-.277.362-.415.832-.415 1.41 0 .568.138 1.032.415 1.39.277.358.668.537 1.174.537ZM30.274 26.727c-.383 0-.694-.078-.935-.236a1.441 1.441 0 0 1-.531-.605 1.801 1.801 0 0 1-.171-.767v-3.401h-.868l.134-1.253h.734v-1.35l1.515-.16v1.51h1.345v1.253h-1.345v2.775c0 .31.019.535.055.672.037.137.12.223.25.258.131.035.339.052.624.052h.416l-.135 1.252h-1.088ZM36.972 26.727c-.403 0-.767-.038-1.09-.116a5.46 5.46 0 0 1-.975-.338l.134-1.301c.314.184.622.332.926.445.303.112.622.169.956.169.302 0 .532-.05.69-.148.16-.098.24-.254.24-.466 0-.16-.043-.291-.126-.393a1.104 1.104 0 0 0-.376-.277 7.407 7.407 0 0 0-.623-.264 5.31 5.31 0 0 1-.957-.454 1.752 1.752 0 0 1-.599-.592c-.136-.232-.204-.517-.204-.857 0-.352.091-.663.275-.933.183-.27.444-.481.782-.632.338-.152.74-.228 1.204-.228.387 0 .734.043 1.042.13.307.085.592.202.852.35l-.134 1.3a5.003 5.003 0 0 0-.825-.475 2.19 2.19 0 0 0-.91-.187c-.261 0-.463.053-.606.16a.533.533 0 0 0-.214.454c0 .237.1.415.3.534.2.119.52.264.96.436.285.11.532.225.742.344.21.118.384.25.522.393.139.143.242.305.309.488.067.182.1.392.1.629 0 .389-.092.72-.277.991-.186.273-.457.48-.813.624-.357.143-.791.214-1.305.214ZM43.352 26.727c-.737 0-1.351-.148-1.842-.445a2.848 2.848 0 0 1-1.103-1.178 3.54 3.54 0 0 1-.367-1.606c0-.56.115-1.078.345-1.553.23-.475.568-.857 1.012-1.145.444-.289.986-.433 1.625-.433.587 0 1.076.12 1.467.362s.684.564.88.967c.195.403.293.848.293 1.335 0 .136-.008.272-.024.409-.017.137-.041.28-.074.426h-3.947c.057.381.176.69.357.924.181.236.403.409.666.52.263.11.545.165.847.165.354 0 .684-.046.99-.138.305-.092.586-.214.843-.365l.073 1.289a4.267 4.267 0 0 1-.867.325 4.478 4.478 0 0 1-1.174.141Zm-1.699-3.88h2.47c0-.186-.035-.373-.105-.56a1.07 1.07 0 0 0-.345-.475c-.16-.129-.378-.193-.65-.193-.392 0-.7.116-.924.348a1.739 1.739 0 0 0-.446.88ZM48.266 26.727c-.363 0-.66-.072-.89-.217a1.32 1.32 0 0 1-.51-.584 1.939 1.939 0 0 1-.165-.807v-7.724h1.516v7.098c0 .327.019.56.058.697.038.137.11.219.217.245a2 2 0 0 0 .458.04l-.134 1.252h-.55ZM52.8 26.727c-.737 0-1.352-.148-1.843-.445a2.848 2.848 0 0 1-1.103-1.178 3.54 3.54 0 0 1-.366-1.606c0-.56.115-1.078.345-1.553.23-.475.567-.857 1.011-1.145.444-.289.986-.433 1.626-.433.587 0 1.076.12 1.467.362.39.242.684.564.88.967.195.403.293.848.293 1.335 0 .136-.008.272-.024.409-.017.137-.041.28-.074.426h-3.948c.057.381.177.69.358.924.181.236.403.409.666.52.263.11.545.165.846.165.355 0 .685-.046.99-.138.306-.092.587-.214.844-.365l.073 1.289a4.267 4.267 0 0 1-.868.325 4.478 4.478 0 0 1-1.173.141Zm-1.699-3.88h2.469c0-.186-.035-.373-.104-.56a1.07 1.07 0 0 0-.345-.475c-.161-.129-.378-.193-.651-.193-.391 0-.699.116-.923.348a1.739 1.739 0 0 0-.446.88ZM58.984 26.727c-.7 0-1.288-.144-1.763-.432a2.812 2.812 0 0 1-1.075-1.155 3.489 3.489 0 0 1-.364-1.593c0-.585.12-1.12.36-1.605.241-.485.602-.873 1.082-1.164.481-.29 1.084-.436 1.81-.436.342 0 .651.038.928.114.277.076.514.169.71.28l-.123 1.227a3.237 3.237 0 0 0-.633-.245 2.723 2.723 0 0 0-.736-.099c-.587 0-1.041.178-1.363.535-.322.356-.483.82-.483 1.393 0 .545.165 1.002.495 1.372.33.37.777.556 1.339.556.24 0 .477-.036.712-.107.234-.072.461-.171.681-.298l.135 1.29c-.212.11-.468.199-.767.266a4.28 4.28 0 0 1-.945.101ZM63.702 26.727c-.383 0-.694-.078-.935-.236a1.441 1.441 0 0 1-.531-.605 1.801 1.801 0 0 1-.172-.767v-3.401h-.867l.134-1.253h.733v-1.35l1.516-.16v1.51h1.344v1.253H63.58v2.775c0 .31.018.535.055.672.037.137.12.223.25.258s.339.052.624.052h.415l-.134 1.252h-1.088ZM68.811 26.727c-.737 0-1.351-.148-1.842-.445a2.848 2.848 0 0 1-1.103-1.178 3.54 3.54 0 0 1-.367-1.606c0-.56.115-1.078.345-1.553.23-.475.567-.857 1.012-1.145.444-.289.985-.433 1.625-.433.587 0 1.076.12 1.467.362.39.242.684.564.88.967.195.403.293.848.293 1.335 0 .136-.008.272-.024.409-.017.137-.041.28-.074.426h-3.947c.057.381.176.69.357.924.181.236.403.409.666.52.263.11.545.165.847.165.354 0 .684-.046.99-.138.305-.092.586-.214.843-.365l.073 1.289a4.267 4.267 0 0 1-.868.325 4.478 4.478 0 0 1-1.173.141Zm-1.699-3.88h2.47c0-.186-.036-.373-.105-.56a1.07 1.07 0 0 0-.345-.475c-.161-.129-.378-.193-.65-.193-.392 0-.7.116-.924.348a1.739 1.739 0 0 0-.446.88ZM74.629 26.727c-.62 0-1.14-.145-1.562-.435a2.712 2.712 0 0 1-.953-1.16 3.868 3.868 0 0 1-.32-1.585c0-.573.106-1.1.32-1.584.214-.483.532-.87.953-1.16.422-.29.943-.436 1.562-.436.448 0 .827.075 1.137.224.31.15.582.34.818.574l-.366.32v-4.09h1.515v9.21h-1.43l-.073-1.044.44.32a3.83 3.83 0 0 1-.886.62c-.306.15-.69.226-1.155.226Zm.22-1.252c.334 0 .607-.082.819-.246.212-.163.368-.39.47-.678.102-.289.153-.623.153-1.004 0-.38-.05-.715-.153-1.004a1.435 1.435 0 0 0-.47-.678c-.212-.164-.485-.246-.82-.246a1.34 1.34 0 0 0-.812.246c-.224.164-.395.39-.513.678a2.635 2.635 0 0 0-.177 1.004c0 .38.059.715.177 1.004.118.289.289.515.513.678.224.164.495.246.813.246Z" fill="#8A94A6" fill-rule="nonzero"/></g></g><g fill="#EBECF0" fill-rule="nonzero"><path d="M28.198 52.568h339v1h-339zM28.198 95.568h237v1h-237zM28.198 139.568h237v1h-237zM28.198 182.568h237v1h-237zM28.198 226.568h237v1h-237zM28.198 269.568h237v1h-237zM28.198 313.568h237v1h-237zM28.198 356.568h237v1h-237z"/><path d="M28.198 52.568h1v305h-1z"/></g><g><path d="M27.198 399.57v-25.949c0-.405.038-.794.112-1.168.074-.374.18-.704.316-.99.137-.287.295-.507.474-.662.18-.155.366-.233.56-.233h336.077c.194 0 .38.078.56.233.178.155.336.375.473.661.137.287.243.617.317.99.074.375.111.764.111 1.17v25.948c0 .405-.037.795-.11 1.169a4.17 4.17 0 0 1-.318.99 2.006 2.006 0 0 1-.474.662c-.179.155-.365.232-.559.232H28.66c-.194 0-.38-.077-.56-.232a2.006 2.006 0 0 1-.474-.662 4.169 4.169 0 0 1-.316-.99 5.995 5.995 0 0 1-.112-1.169Z" fill="#7540EE" fill-rule="nonzero"/><g fill="#FFFFFF" fill-rule="nonzero"><path d="M179.324 389.696c-.26 0-.527-.025-.802-.075a6.866 6.866 0 0 1-.765-.183 3.923 3.923 0 0 1-.559-.209l.138-1.245c.214.104.437.2.669.288.232.089.47.16.714.216.244.054.492.082.742.082.312 0 .562-.061.751-.183.19-.122.284-.309.284-.559a.664.664 0 0 0-.16-.465c-.107-.117-.27-.223-.49-.316-.22-.093-.501-.199-.843-.318a5.854 5.854 0 0 1-.92-.405 1.862 1.862 0 0 1-.646-.575c-.16-.232-.239-.528-.239-.888 0-.354.087-.67.262-.946.174-.276.434-.493.78-.65.347-.157.778-.236 1.294-.236.391 0 .764.044 1.118.13.354.088.656.181.907.282l-.12 1.2a6.687 6.687 0 0 0-1.014-.369 3.74 3.74 0 0 0-.964-.126c-.342 0-.606.057-.792.17a.556.556 0 0 0-.28.508c0 .18.052.325.156.435.104.11.252.204.444.282.193.078.423.16.692.245.464.146.854.307 1.17.483.316.175.554.388.715.636.16.25.24.557.24.923 0 .183-.029.382-.087.598a1.513 1.513 0 0 1-.343.611c-.171.192-.421.35-.75.474-.328.124-.762.185-1.302.185ZM186.505 389.696c-.601 0-1.098-.119-1.49-.357a2.187 2.187 0 0 1-.878-1.003c-.192-.43-.288-.935-.288-1.515v-3.664h1.172v3.361c0 .306.02.584.06.836.04.252.112.469.217.65.106.182.256.322.452.42.195.097.447.146.755.146.309 0 .56-.049.756-.147.195-.097.346-.237.451-.419.106-.181.178-.398.218-.65.04-.252.06-.53.06-.836v-3.36h1.172v3.663c0 .58-.096 1.085-.289 1.515-.192.43-.484.765-.877 1.003-.392.238-.89.357-1.49.357ZM191.644 389.568v-6.41h2.419c.62 0 1.08.131 1.38.395.301.264.452.648.452 1.152 0 .376-.085.69-.255.941-.169.252-.423.436-.762.552v-.22c.513.11.896.311 1.15.605.253.293.38.68.38 1.163 0 .577-.187 1.025-.56 1.344-.372.319-.882.478-1.529.478h-2.675Zm1.173-1.044h1.328c.32 0 .576-.065.767-.197.191-.131.286-.368.286-.71 0-.348-.1-.584-.302-.71-.201-.124-.452-.187-.751-.187h-1.328v1.804Zm0-2.848h1.072c.284 0 .496-.058.638-.174.142-.116.213-.302.213-.559 0-.265-.07-.455-.213-.57-.142-.114-.354-.172-.638-.172h-1.072v1.475ZM198.221 389.568l.89-6.41h.96l1.567 2.921 1.557-2.922h.962l.888 6.411h-1.218l-.614-4.817.321.064-1.896 3.407-1.906-3.398.321-.064-.614 4.808zM207.253 383.157h1.173v6.411h-1.173zM212.228 389.568v-5.275h-1.814v-1.136h4.8v1.136H213.4v5.275z"/></g><path fill="#EBECF0" fill-rule="nonzero" d="M152.657 95.951h42.748v.763h-42.748z"/><path fill="#EBECF0" fill-rule="nonzero" d="M152.657 53.211h.763v43.503h-.763z"/><path d="M183.573 74.581a8.755 8.755 0 0 1-1.48 4.877 8.753 8.753 0 0 1-2.422 2.421 8.762 8.762 0 0 1-4.877 1.48 8.757 8.757 0 0 1-3.36-.669 8.76 8.76 0 0 1-3.94-3.232 8.76 8.76 0 0 1-1.479-4.877 8.755 8.755 0 0 1 1.48-4.876 8.756 8.756 0 0 1 3.94-3.232 8.758 8.758 0 0 1 3.359-.668 8.76 8.76 0 0 1 4.877 1.479 8.757 8.757 0 0 1 3.233 3.939 8.757 8.757 0 0 1 .669 3.358Z" fill="#FFFFFF" fill-rule="nonzero"/><path d="M183.573 74.581a8.755 8.755 0 0 1-1.48 4.877 8.753 8.753 0 0 1-2.422 2.421 8.762 8.762 0 0 1-4.877 1.48 8.757 8.757 0 0 1-3.36-.669 8.76 8.76 0 0 1-3.94-3.232 8.76 8.76 0 0 1-1.479-4.877 8.755 8.755 0 0 1 1.48-4.876 8.756 8.756 0 0 1 3.94-3.232 8.758 8.758 0 0 1 3.359-.668 8.76 8.76 0 0 1 4.877 1.479 8.757 8.757 0 0 1 3.233 3.939 8.757 8.757 0 0 1 .669 3.358Z" stroke="#7540EE" stroke-width=".75"/><path fill="#EBECF0" fill-rule="nonzero" d="M152.657 139.454h42.748v.764h-42.748z"/><path fill="#EBECF0" fill-rule="nonzero" d="M152.657 96.714h.763v43.504h-.763z"/><path d="M183.573 118.085a8.755 8.755 0 0 1-1.48 4.876 8.75 8.75 0 0 1-2.422 2.422 8.76 8.76 0 0 1-4.877 1.479 8.758 8.758 0 0 1-3.36-.668 8.76 8.76 0 0 1-3.94-3.233 8.758 8.758 0 0 1-1.479-4.876 8.755 8.755 0 0 1 1.48-4.876 8.757 8.757 0 0 1 3.94-3.233 8.757 8.757 0 0 1 3.359-.668 8.76 8.76 0 0 1 4.877 1.479 8.757 8.757 0 0 1 3.233 3.939 8.757 8.757 0 0 1 .669 3.359Z" fill="#FFFFFF" fill-rule="nonzero"/><path d="M183.573 118.085a8.755 8.755 0 0 1-1.48 4.876 8.75 8.75 0 0 1-2.422 2.422 8.76 8.76 0 0 1-4.877 1.479 8.758 8.758 0 0 1-3.36-.668 8.76 8.76 0 0 1-3.94-3.233 8.758 8.758 0 0 1-1.479-4.876 8.755 8.755 0 0 1 1.48-4.876 8.757 8.757 0 0 1 3.94-3.233 8.757 8.757 0 0 1 3.359-.668 8.76 8.76 0 0 1 4.877 1.479 8.757 8.757 0 0 1 3.233 3.939 8.757 8.757 0 0 1 .669 3.359Z" stroke="#7540EE" stroke-width=".75"/><path fill="#EBECF0" fill-rule="nonzero" d="M152.657 182.958h42.748v.763h-42.748z"/><path fill="#EBECF0" fill-rule="nonzero" d="M152.657 140.218h.763v43.503h-.763z"/><path d="M183.573 161.588a8.755 8.755 0 0 1-.669 3.359 8.753 8.753 0 0 1-1.903 2.847 8.756 8.756 0 0 1-2.848 1.903 8.763 8.763 0 0 1-5.072.5 8.761 8.761 0 0 1-4.495-2.403 8.756 8.756 0 0 1-2.402-4.494 8.755 8.755 0 0 1 0-3.424 8.756 8.756 0 0 1 2.402-4.494 8.758 8.758 0 0 1 4.495-2.402 8.76 8.76 0 0 1 5.072.5 8.758 8.758 0 0 1 3.94 3.232 8.751 8.751 0 0 1 1.31 3.164c.113.565.17 1.136.17 1.712Z" fill="#7540EE" fill-rule="nonzero"/><path d="M183.573 161.588a8.755 8.755 0 0 1-.669 3.359 8.753 8.753 0 0 1-1.903 2.847 8.756 8.756 0 0 1-2.848 1.903 8.763 8.763 0 0 1-5.072.5 8.761 8.761 0 0 1-4.495-2.403 8.756 8.756 0 0 1-2.402-4.494 8.755 8.755 0 0 1 0-3.424 8.756 8.756 0 0 1 2.402-4.494 8.758 8.758 0 0 1 4.495-2.402 8.76 8.76 0 0 1 5.072.5 8.758 8.758 0 0 1 3.94 3.232 8.751 8.751 0 0 1 1.31 3.164c.113.565.17 1.136.17 1.712Z" stroke="#7540EE" stroke-width=".75"/><path fill="#EBECF0" fill-rule="nonzero" d="M152.657 226.461h42.748v.763h-42.748z"/><path fill="#EBECF0" fill-rule="nonzero" d="M152.657 183.721h.763v43.503h-.763z"/><path d="M183.573 205.091a8.755 8.755 0 0 1-1.48 4.877 8.753 8.753 0 0 1-2.422 2.421 8.759 8.759 0 0 1-4.877 1.48 8.759 8.759 0 0 1-3.36-.669 8.761 8.761 0 0 1-3.94-3.232 8.758 8.758 0 0 1-1.479-4.877 8.755 8.755 0 0 1 1.48-4.876 8.757 8.757 0 0 1 3.94-3.232 8.759 8.759 0 0 1 5.072-.5 8.76 8.76 0 0 1 4.494 2.402 8.753 8.753 0 0 1 1.903 2.848 8.756 8.756 0 0 1 .669 3.358Z" fill="#FFFFFF" fill-rule="nonzero"/><path d="M183.573 205.091a8.755 8.755 0 0 1-1.48 4.877 8.753 8.753 0 0 1-2.422 2.421 8.759 8.759 0 0 1-4.877 1.48 8.759 8.759 0 0 1-3.36-.669 8.761 8.761 0 0 1-3.94-3.232 8.758 8.758 0 0 1-1.479-4.877 8.755 8.755 0 0 1 1.48-4.876 8.757 8.757 0 0 1 3.94-3.232 8.759 8.759 0 0 1 5.072-.5 8.76 8.76 0 0 1 4.494 2.402 8.753 8.753 0 0 1 1.903 2.848 8.756 8.756 0 0 1 .669 3.358Z" stroke="#7540EE" stroke-width=".75"/><path fill="#EBECF0" fill-rule="nonzero" d="M152.657 269.964h42.748v.764h-42.748z"/><path fill="#EBECF0" fill-rule="nonzero" d="M152.657 227.224h.763v43.504h-.763z"/><path d="M183.573 248.595a8.755 8.755 0 0 1-1.48 4.876 8.752 8.752 0 0 1-2.422 2.421 8.76 8.76 0 0 1-4.877 1.48 8.76 8.76 0 0 1-4.877-1.48 8.765 8.765 0 0 1-3.234-3.939 8.758 8.758 0 0 1-.5-5.07 8.757 8.757 0 0 1 2.403-4.495 8.76 8.76 0 0 1 4.495-2.402 8.764 8.764 0 0 1 5.072.5 8.758 8.758 0 0 1 3.94 3.232 8.753 8.753 0 0 1 1.31 3.164c.113.566.17 1.136.17 1.713Z" fill="#FFFFFF" fill-rule="nonzero"/><path d="M183.573 248.595a8.755 8.755 0 0 1-1.48 4.876 8.752 8.752 0 0 1-2.422 2.421 8.76 8.76 0 0 1-4.877 1.48 8.76 8.76 0 0 1-4.877-1.48 8.765 8.765 0 0 1-3.234-3.939 8.758 8.758 0 0 1-.5-5.07 8.757 8.757 0 0 1 2.403-4.495 8.76 8.76 0 0 1 4.495-2.402 8.764 8.764 0 0 1 5.072.5 8.758 8.758 0 0 1 3.94 3.232 8.753 8.753 0 0 1 1.31 3.164c.113.566.17 1.136.17 1.713Z" stroke="#7540EE" stroke-width=".75"/><path fill="#EBECF0" fill-rule="nonzero" d="M152.657 313.468h42.748v.763h-42.748z"/><path fill="#EBECF0" fill-rule="nonzero" d="M152.657 270.728h.763v43.503h-.763z"/><path d="M183.573 292.098a8.755 8.755 0 0 1-1.48 4.876 8.751 8.751 0 0 1-2.422 2.422 8.757 8.757 0 0 1-3.164 1.31 8.756 8.756 0 0 1-3.426 0 8.757 8.757 0 0 1-3.164-1.31 8.758 8.758 0 0 1-3.234-3.94 8.756 8.756 0 0 1-.5-5.07 8.757 8.757 0 0 1 2.403-4.494 8.76 8.76 0 0 1 4.495-2.402 8.76 8.76 0 0 1 5.072.5 8.762 8.762 0 0 1 3.94 3.232 8.752 8.752 0 0 1 1.31 3.164c.113.565.17 1.136.17 1.712Z" fill="#FFFFFF" fill-rule="nonzero"/><path d="M183.573 292.098a8.755 8.755 0 0 1-1.48 4.876 8.751 8.751 0 0 1-2.422 2.422 8.757 8.757 0 0 1-3.164 1.31 8.756 8.756 0 0 1-3.426 0 8.757 8.757 0 0 1-3.164-1.31 8.758 8.758 0 0 1-3.234-3.94 8.756 8.756 0 0 1-.5-5.07 8.757 8.757 0 0 1 2.403-4.494 8.76 8.76 0 0 1 4.495-2.402 8.76 8.76 0 0 1 5.072.5 8.762 8.762 0 0 1 3.94 3.232 8.752 8.752 0 0 1 1.31 3.164c.113.565.17 1.136.17 1.712Z" stroke="#7540EE" stroke-width=".75"/><path fill="#EBECF0" fill-rule="nonzero" d="M152.657 356.971h42.748v.763h-42.748z"/><path fill="#EBECF0" fill-rule="nonzero" d="M152.657 314.231h.763v43.503h-.763z"/><path d="M183.573 335.601a8.755 8.755 0 0 1-1.48 4.877 8.751 8.751 0 0 1-2.422 2.421 8.757 8.757 0 0 1-3.164 1.31 8.756 8.756 0 0 1-3.426 0 8.758 8.758 0 0 1-3.164-1.31 8.758 8.758 0 0 1-3.234-3.939 8.756 8.756 0 0 1-.5-5.071 8.757 8.757 0 0 1 2.403-4.494 8.766 8.766 0 0 1 4.495-2.402 8.762 8.762 0 0 1 5.072.5 8.763 8.763 0 0 1 3.94 3.232 8.75 8.75 0 0 1 1.31 3.164c.113.565.17 1.136.17 1.712Z" fill="#FFFFFF" fill-rule="nonzero"/><path d="M183.573 335.601a8.755 8.755 0 0 1-1.48 4.877 8.751 8.751 0 0 1-2.422 2.421 8.757 8.757 0 0 1-3.164 1.31 8.756 8.756 0 0 1-3.426 0 8.758 8.758 0 0 1-3.164-1.31 8.758 8.758 0 0 1-3.234-3.939 8.756 8.756 0 0 1-.5-5.071 8.757 8.757 0 0 1 2.403-4.494 8.766 8.766 0 0 1 4.495-2.402 8.762 8.762 0 0 1 5.072.5 8.763 8.763 0 0 1 3.94 3.232 8.75 8.75 0 0 1 1.31 3.164c.113.565.17 1.136.17 1.712Z" stroke="#E3D9FC" stroke-width=".75"/><path fill="#EBECF0" fill-rule="nonzero" d="M195.405 95.951h42.748v.763h-42.748z"/><path fill="#EBECF0" fill-rule="nonzero" d="M195.405 53.211h.763v43.503h-.763z"/><path d="M226.32 74.581a8.751 8.751 0 0 1-.668 3.36 8.753 8.753 0 0 1-1.903 2.847 8.76 8.76 0 0 1-4.494 2.402 8.758 8.758 0 0 1-5.072-.5 8.753 8.753 0 0 1-2.848-1.902 8.753 8.753 0 0 1-1.903-2.848 8.754 8.754 0 0 1-.5-5.07 8.754 8.754 0 0 1 2.403-4.495 8.754 8.754 0 0 1 2.848-1.902 8.757 8.757 0 0 1 3.359-.668 8.76 8.76 0 0 1 4.877 1.479 8.759 8.759 0 0 1 3.233 3.939 8.753 8.753 0 0 1 .669 3.358Z" fill="#FFFFFF" fill-rule="nonzero"/><path d="M226.32 74.581a8.751 8.751 0 0 1-.668 3.36 8.753 8.753 0 0 1-1.903 2.847 8.76 8.76 0 0 1-4.494 2.402 8.758 8.758 0 0 1-5.072-.5 8.753 8.753 0 0 1-2.848-1.902 8.753 8.753 0 0 1-1.903-2.848 8.754 8.754 0 0 1-.5-5.07 8.754 8.754 0 0 1 2.403-4.495 8.754 8.754 0 0 1 2.848-1.902 8.757 8.757 0 0 1 3.359-.668 8.76 8.76 0 0 1 4.877 1.479 8.759 8.759 0 0 1 3.233 3.939 8.753 8.753 0 0 1 .669 3.358Z" stroke="#7540EE" stroke-width=".75"/><path fill="#EBECF0" fill-rule="nonzero" d="M195.405 139.454h42.748v.764h-42.748z"/><path fill="#EBECF0" fill-rule="nonzero" d="M195.405 96.714h.763v43.504h-.763z"/><path d="M226.32 118.085a8.752 8.752 0 0 1-.668 3.359 8.752 8.752 0 0 1-1.903 2.847 8.759 8.759 0 0 1-4.494 2.402 8.76 8.76 0 0 1-5.072-.5 8.752 8.752 0 0 1-2.848-1.902 8.75 8.75 0 0 1-1.903-2.847 8.754 8.754 0 0 1-.5-5.071 8.754 8.754 0 0 1 2.403-4.494 8.754 8.754 0 0 1 2.848-1.903 8.756 8.756 0 0 1 3.359-.668 8.76 8.76 0 0 1 4.877 1.479 8.759 8.759 0 0 1 3.233 3.939 8.754 8.754 0 0 1 .669 3.359Z" fill="#7540EE" fill-rule="nonzero"/><path d="M226.32 118.085a8.752 8.752 0 0 1-.668 3.359 8.752 8.752 0 0 1-1.903 2.847 8.759 8.759 0 0 1-4.494 2.402 8.76 8.76 0 0 1-5.072-.5 8.752 8.752 0 0 1-2.848-1.902 8.75 8.75 0 0 1-1.903-2.847 8.754 8.754 0 0 1-.5-5.071 8.754 8.754 0 0 1 2.403-4.494 8.754 8.754 0 0 1 2.848-1.903 8.756 8.756 0 0 1 3.359-.668 8.76 8.76 0 0 1 4.877 1.479 8.759 8.759 0 0 1 3.233 3.939 8.754 8.754 0 0 1 .669 3.359Z" stroke="#7540EE" stroke-width=".75"/><path fill="#EBECF0" fill-rule="nonzero" d="M195.405 182.958h42.748v.763h-42.748z"/><path fill="#EBECF0" fill-rule="nonzero" d="M195.405 140.218h.763v43.503h-.763z"/><path d="M226.32 161.588a8.751 8.751 0 0 1-.668 3.359 8.753 8.753 0 0 1-1.903 2.847 8.757 8.757 0 0 1-2.848 1.903 8.762 8.762 0 0 1-5.072.5 8.76 8.76 0 0 1-4.494-2.403 8.752 8.752 0 0 1-1.903-2.847 8.755 8.755 0 0 1-.5-5.071 8.753 8.753 0 0 1 1.31-3.164 8.754 8.754 0 0 1 2.423-2.422 8.75 8.75 0 0 1 3.164-1.31 8.76 8.76 0 0 1 5.072.5 8.759 8.759 0 0 1 3.94 3.232 8.751 8.751 0 0 1 1.311 3.164c.112.565.169 1.136.169 1.712Z" fill="#FFFFFF" fill-rule="nonzero"/><path d="M226.32 161.588a8.751 8.751 0 0 1-.668 3.359 8.753 8.753 0 0 1-1.903 2.847 8.757 8.757 0 0 1-2.848 1.903 8.762 8.762 0 0 1-5.072.5 8.76 8.76 0 0 1-4.494-2.403 8.752 8.752 0 0 1-1.903-2.847 8.755 8.755 0 0 1-.5-5.071 8.753 8.753 0 0 1 1.31-3.164 8.754 8.754 0 0 1 2.423-2.422 8.75 8.75 0 0 1 3.164-1.31 8.76 8.76 0 0 1 5.072.5 8.759 8.759 0 0 1 3.94 3.232 8.751 8.751 0 0 1 1.311 3.164c.112.565.169 1.136.169 1.712Z" stroke="#7540EE" stroke-width=".75"/><path fill="#EBECF0" fill-rule="nonzero" d="M195.405 226.461h42.748v.763h-42.748z"/><path fill="#EBECF0" fill-rule="nonzero" d="M195.405 183.721h.763v43.503h-.763z"/><path d="M226.32 205.091a8.752 8.752 0 0 1-.668 3.36 8.752 8.752 0 0 1-1.903 2.847 8.757 8.757 0 0 1-2.848 1.902 8.76 8.76 0 0 1-5.072.5 8.755 8.755 0 0 1-3.164-1.31 8.754 8.754 0 0 1-2.422-2.422 8.751 8.751 0 0 1-1.31-3.164 8.749 8.749 0 0 1 0-3.425 8.754 8.754 0 0 1 1.31-3.164 8.757 8.757 0 0 1 2.422-2.421 8.75 8.75 0 0 1 3.164-1.31 8.76 8.76 0 0 1 5.072.499 8.759 8.759 0 0 1 3.94 3.232 8.753 8.753 0 0 1 1.311 3.164c.112.565.169 1.136.169 1.712Z" fill="#FFFFFF" fill-rule="nonzero"/><path d="M226.32 205.091a8.752 8.752 0 0 1-.668 3.36 8.752 8.752 0 0 1-1.903 2.847 8.757 8.757 0 0 1-2.848 1.902 8.76 8.76 0 0 1-5.072.5 8.755 8.755 0 0 1-3.164-1.31 8.754 8.754 0 0 1-2.422-2.422 8.751 8.751 0 0 1-1.31-3.164 8.749 8.749 0 0 1 0-3.425 8.754 8.754 0 0 1 1.31-3.164 8.757 8.757 0 0 1 2.422-2.421 8.75 8.75 0 0 1 3.164-1.31 8.76 8.76 0 0 1 5.072.499 8.759 8.759 0 0 1 3.94 3.232 8.753 8.753 0 0 1 1.311 3.164c.112.565.169 1.136.169 1.712Z" stroke="#7540EE" stroke-width=".75"/><path fill="#EBECF0" fill-rule="nonzero" d="M195.405 269.964h42.748v.764h-42.748z"/><path fill="#EBECF0" fill-rule="nonzero" d="M195.405 227.224h.763v43.504h-.763z"/><path d="M226.32 248.595a8.751 8.751 0 0 1-.668 3.358 8.753 8.753 0 0 1-1.903 2.848 8.76 8.76 0 0 1-4.494 2.402 8.76 8.76 0 0 1-5.072-.5 8.753 8.753 0 0 1-2.848-1.902 8.752 8.752 0 0 1-1.903-2.848 8.755 8.755 0 0 1-.5-5.07 8.754 8.754 0 0 1 2.403-4.495 8.754 8.754 0 0 1 2.848-1.902 8.758 8.758 0 0 1 3.359-.668 8.761 8.761 0 0 1 4.877 1.479 8.759 8.759 0 0 1 3.233 3.939 8.754 8.754 0 0 1 .669 3.359Z" fill="#FFFFFF" fill-rule="nonzero"/><path d="M226.32 248.595a8.751 8.751 0 0 1-.668 3.358 8.753 8.753 0 0 1-1.903 2.848 8.76 8.76 0 0 1-4.494 2.402 8.76 8.76 0 0 1-5.072-.5 8.753 8.753 0 0 1-2.848-1.902 8.752 8.752 0 0 1-1.903-2.848 8.755 8.755 0 0 1-.5-5.07 8.754 8.754 0 0 1 2.403-4.495 8.754 8.754 0 0 1 2.848-1.902 8.758 8.758 0 0 1 3.359-.668 8.761 8.761 0 0 1 4.877 1.479 8.759 8.759 0 0 1 3.233 3.939 8.754 8.754 0 0 1 .669 3.359Z" stroke="#7540EE" stroke-width=".75"/><path fill="#EBECF0" fill-rule="nonzero" d="M195.405 313.468h42.748v.763h-42.748z"/><path fill="#EBECF0" fill-rule="nonzero" d="M195.405 270.728h.763v43.503h-.763z"/><path d="M226.32 292.098a8.751 8.751 0 0 1-.668 3.359 8.755 8.755 0 0 1-1.903 2.847 8.754 8.754 0 0 1-2.848 1.903 8.758 8.758 0 0 1-5.072.5 8.756 8.756 0 0 1-3.164-1.311 8.75 8.75 0 0 1-2.422-2.422 8.754 8.754 0 0 1-1.31-3.164 8.748 8.748 0 0 1 0-3.424 8.754 8.754 0 0 1 1.31-3.164 8.755 8.755 0 0 1 2.422-2.422 8.752 8.752 0 0 1 3.164-1.31 8.76 8.76 0 0 1 5.072.5 8.762 8.762 0 0 1 3.94 3.232 8.752 8.752 0 0 1 1.311 3.164c.112.565.169 1.136.169 1.712Z" fill="#FFFFFF" fill-rule="nonzero"/><path d="M226.32 292.098a8.751 8.751 0 0 1-.668 3.359 8.755 8.755 0 0 1-1.903 2.847 8.754 8.754 0 0 1-2.848 1.903 8.758 8.758 0 0 1-5.072.5 8.756 8.756 0 0 1-3.164-1.311 8.75 8.75 0 0 1-2.422-2.422 8.754 8.754 0 0 1-1.31-3.164 8.748 8.748 0 0 1 0-3.424 8.754 8.754 0 0 1 1.31-3.164 8.755 8.755 0 0 1 2.422-2.422 8.752 8.752 0 0 1 3.164-1.31 8.76 8.76 0 0 1 5.072.5 8.762 8.762 0 0 1 3.94 3.232 8.752 8.752 0 0 1 1.311 3.164c.112.565.169 1.136.169 1.712Z" stroke="#7540EE" stroke-width=".75"/><path fill="#EBECF0" fill-rule="nonzero" d="M195.405 356.971h42.748v.763h-42.748z"/><path fill="#EBECF0" fill-rule="nonzero" d="M195.405 314.231h.763v43.503h-.763z"/><path d="M226.32 335.601a8.751 8.751 0 0 1-.668 3.36 8.755 8.755 0 0 1-1.903 2.847 8.754 8.754 0 0 1-2.848 1.902 8.758 8.758 0 0 1-5.072.5 8.756 8.756 0 0 1-3.164-1.31 8.75 8.75 0 0 1-2.422-2.422 8.754 8.754 0 0 1-1.48-4.877 8.75 8.75 0 0 1 .669-3.358 8.75 8.75 0 0 1 1.903-2.848 8.76 8.76 0 0 1 4.494-2.402 8.761 8.761 0 0 1 5.072.5 8.763 8.763 0 0 1 3.94 3.232 8.75 8.75 0 0 1 1.311 3.164c.112.565.169 1.136.169 1.712Z" fill="#FFFFFF" fill-rule="nonzero"/><path d="M226.32 335.601a8.751 8.751 0 0 1-.668 3.36 8.755 8.755 0 0 1-1.903 2.847 8.754 8.754 0 0 1-2.848 1.902 8.758 8.758 0 0 1-5.072.5 8.756 8.756 0 0 1-3.164-1.31 8.75 8.75 0 0 1-2.422-2.422 8.754 8.754 0 0 1-1.48-4.877 8.75 8.75 0 0 1 .669-3.358 8.75 8.75 0 0 1 1.903-2.848 8.76 8.76 0 0 1 4.494-2.402 8.761 8.761 0 0 1 5.072.5 8.763 8.763 0 0 1 3.94 3.232 8.75 8.75 0 0 1 1.311 3.164c.112.565.169 1.136.169 1.712Z" stroke="#E3D9FC" stroke-width=".75"/><path fill="#EBECF0" fill-rule="nonzero" d="M238.153 95.951h42.748v.763h-42.748z"/><path fill="#EBECF0" fill-rule="nonzero" d="M238.153 53.211h.763v43.503h-.763z"/><path d="M269.069 74.581a8.76 8.76 0 0 1-1.48 4.877 8.76 8.76 0 0 1-3.94 3.232 8.759 8.759 0 0 1-5.072.5 8.76 8.76 0 0 1-4.494-2.402 8.752 8.752 0 0 1-1.903-2.848 8.757 8.757 0 0 1-.5-5.07 8.753 8.753 0 0 1 1.31-3.165 8.752 8.752 0 0 1 2.423-2.421 8.755 8.755 0 0 1 3.164-1.31 8.76 8.76 0 0 1 5.072.499 8.758 8.758 0 0 1 3.94 3.232 8.759 8.759 0 0 1 1.48 4.876Z" fill="#FFFFFF" fill-rule="nonzero"/><path d="M269.069 74.581a8.76 8.76 0 0 1-1.48 4.877 8.76 8.76 0 0 1-3.94 3.232 8.759 8.759 0 0 1-5.072.5 8.76 8.76 0 0 1-4.494-2.402 8.752 8.752 0 0 1-1.903-2.848 8.757 8.757 0 0 1-.5-5.07 8.753 8.753 0 0 1 1.31-3.165 8.752 8.752 0 0 1 2.423-2.421 8.755 8.755 0 0 1 3.164-1.31 8.76 8.76 0 0 1 5.072.499 8.758 8.758 0 0 1 3.94 3.232 8.759 8.759 0 0 1 1.48 4.876Z" stroke="#7540EE" stroke-width=".75"/><path fill="#EBECF0" fill-rule="nonzero" d="M238.153 139.454h42.748v.764h-42.748z"/><path fill="#EBECF0" fill-rule="nonzero" d="M238.153 96.714h.763v43.504h-.763z"/><path d="M269.069 118.085a8.761 8.761 0 0 1-1.48 4.876 8.758 8.758 0 0 1-3.94 3.233 8.759 8.759 0 0 1-5.072.5 8.76 8.76 0 0 1-4.494-2.403 8.75 8.75 0 0 1-1.903-2.847 8.757 8.757 0 0 1-.5-5.071 8.753 8.753 0 0 1 1.31-3.164 8.753 8.753 0 0 1 2.423-2.422 8.755 8.755 0 0 1 3.164-1.31 8.76 8.76 0 0 1 5.072.499 8.758 8.758 0 0 1 3.94 3.233 8.76 8.76 0 0 1 1.48 4.876Z" fill="#FFFFFF" fill-rule="nonzero"/><path d="M269.069 118.085a8.761 8.761 0 0 1-1.48 4.876 8.758 8.758 0 0 1-3.94 3.233 8.759 8.759 0 0 1-5.072.5 8.76 8.76 0 0 1-4.494-2.403 8.75 8.75 0 0 1-1.903-2.847 8.757 8.757 0 0 1-.5-5.071 8.753 8.753 0 0 1 1.31-3.164 8.753 8.753 0 0 1 2.423-2.422 8.755 8.755 0 0 1 3.164-1.31 8.76 8.76 0 0 1 5.072.499 8.758 8.758 0 0 1 3.94 3.233 8.76 8.76 0 0 1 1.48 4.876Z" stroke="#7540EE" stroke-width=".75"/><path fill="#EBECF0" fill-rule="nonzero" d="M238.153 182.958h42.748v.763h-42.748z"/><path fill="#EBECF0" fill-rule="nonzero" d="M238.153 140.218h.763v43.503h-.763z"/><path d="M269.069 161.588a8.76 8.76 0 0 1-1.48 4.876 8.76 8.76 0 0 1-3.94 3.233 8.761 8.761 0 0 1-5.072.5 8.762 8.762 0 0 1-4.494-2.403 8.752 8.752 0 0 1-1.903-2.847 8.757 8.757 0 0 1-.5-5.071 8.752 8.752 0 0 1 1.31-3.164 8.75 8.75 0 0 1 2.423-2.422 8.754 8.754 0 0 1 3.164-1.31 8.76 8.76 0 0 1 5.072.5 8.757 8.757 0 0 1 2.849 1.902 8.758 8.758 0 0 1 2.402 4.494c.112.565.169 1.136.169 1.712Z" fill="#FFFFFF" fill-rule="nonzero"/><path d="M269.069 161.588a8.76 8.76 0 0 1-1.48 4.876 8.76 8.76 0 0 1-3.94 3.233 8.761 8.761 0 0 1-5.072.5 8.762 8.762 0 0 1-4.494-2.403 8.752 8.752 0 0 1-1.903-2.847 8.757 8.757 0 0 1-.5-5.071 8.752 8.752 0 0 1 1.31-3.164 8.75 8.75 0 0 1 2.423-2.422 8.754 8.754 0 0 1 3.164-1.31 8.76 8.76 0 0 1 5.072.5 8.757 8.757 0 0 1 2.849 1.902 8.758 8.758 0 0 1 2.402 4.494c.112.565.169 1.136.169 1.712Z" stroke="#7540EE" stroke-width=".75"/><path fill="#EBECF0" fill-rule="nonzero" d="M238.153 226.461h42.748v.763h-42.748z"/><path fill="#EBECF0" fill-rule="nonzero" d="M238.153 183.721h.763v43.503h-.763z"/><path d="M269.069 205.091a8.761 8.761 0 0 1-1.48 4.877 8.76 8.76 0 0 1-3.94 3.232 8.76 8.76 0 0 1-5.072.5 8.757 8.757 0 0 1-4.494-2.402 8.753 8.753 0 0 1-1.903-2.848 8.757 8.757 0 0 1-.5-5.07 8.752 8.752 0 0 1 1.31-3.165 8.753 8.753 0 0 1 2.423-2.421 8.754 8.754 0 0 1 3.164-1.31 8.76 8.76 0 0 1 5.072.499 8.757 8.757 0 0 1 2.849 1.902 8.76 8.76 0 0 1 2.402 4.494c.112.565.169 1.136.169 1.712Z" fill="#FFFFFF" fill-rule="nonzero"/><path d="M269.069 205.091a8.761 8.761 0 0 1-1.48 4.877 8.76 8.76 0 0 1-3.94 3.232 8.76 8.76 0 0 1-5.072.5 8.757 8.757 0 0 1-4.494-2.402 8.753 8.753 0 0 1-1.903-2.848 8.757 8.757 0 0 1-.5-5.07 8.752 8.752 0 0 1 1.31-3.165 8.753 8.753 0 0 1 2.423-2.421 8.754 8.754 0 0 1 3.164-1.31 8.76 8.76 0 0 1 5.072.499 8.757 8.757 0 0 1 2.849 1.902 8.76 8.76 0 0 1 2.402 4.494c.112.565.169 1.136.169 1.712Z" stroke="#7540EE" stroke-width=".75"/><path fill="#EBECF0" fill-rule="nonzero" d="M238.153 269.964h42.748v.764h-42.748z"/><path fill="#EBECF0" fill-rule="nonzero" d="M238.153 227.224h.763v43.504h-.763z"/><path d="M269.069 248.595a8.76 8.76 0 0 1-1.48 4.876 8.76 8.76 0 0 1-3.94 3.233 8.761 8.761 0 0 1-5.072.499 8.762 8.762 0 0 1-4.494-2.402 8.752 8.752 0 0 1-1.903-2.848 8.757 8.757 0 0 1-.5-5.07 8.753 8.753 0 0 1 1.31-3.165 8.753 8.753 0 0 1 2.423-2.421 8.754 8.754 0 0 1 3.164-1.31 8.764 8.764 0 0 1 5.072.499 8.757 8.757 0 0 1 2.849 1.902 8.76 8.76 0 0 1 2.402 4.494 8.76 8.76 0 0 1 .169 1.713Z" fill="#7540EE" fill-rule="nonzero"/><path d="M269.069 248.595a8.76 8.76 0 0 1-1.48 4.876 8.76 8.76 0 0 1-3.94 3.233 8.761 8.761 0 0 1-5.072.499 8.762 8.762 0 0 1-4.494-2.402 8.752 8.752 0 0 1-1.903-2.848 8.757 8.757 0 0 1-.5-5.07 8.753 8.753 0 0 1 1.31-3.165 8.753 8.753 0 0 1 2.423-2.421 8.754 8.754 0 0 1 3.164-1.31 8.764 8.764 0 0 1 5.072.499 8.757 8.757 0 0 1 2.849 1.902 8.76 8.76 0 0 1 2.402 4.494 8.76 8.76 0 0 1 .169 1.713Z" stroke="#7540EE" stroke-width=".75"/><path fill="#EBECF0" fill-rule="nonzero" d="M238.153 313.468h42.748v.763h-42.748z"/><path fill="#EBECF0" fill-rule="nonzero" d="M238.153 270.728h.763v43.503h-.763z"/><path d="M269.069 292.098a8.76 8.76 0 0 1-1.48 4.876 8.758 8.758 0 0 1-3.94 3.233 8.757 8.757 0 0 1-5.072.5 8.758 8.758 0 0 1-3.164-1.311 8.75 8.75 0 0 1-2.422-2.422 8.758 8.758 0 0 1-1.48-4.876 8.753 8.753 0 0 1 .669-3.359 8.758 8.758 0 0 1 3.233-3.939 8.756 8.756 0 0 1 3.164-1.31 8.76 8.76 0 0 1 5.072.5 8.76 8.76 0 0 1 3.94 3.232 8.758 8.758 0 0 1 1.48 4.876Z" fill="#FFFFFF" fill-rule="nonzero"/><path d="M269.069 292.098a8.76 8.76 0 0 1-1.48 4.876 8.758 8.758 0 0 1-3.94 3.233 8.757 8.757 0 0 1-5.072.5 8.758 8.758 0 0 1-3.164-1.311 8.75 8.75 0 0 1-2.422-2.422 8.758 8.758 0 0 1-1.48-4.876 8.753 8.753 0 0 1 .669-3.359 8.758 8.758 0 0 1 3.233-3.939 8.756 8.756 0 0 1 3.164-1.31 8.76 8.76 0 0 1 5.072.5 8.76 8.76 0 0 1 3.94 3.232 8.758 8.758 0 0 1 1.48 4.876Z" stroke="#7540EE" stroke-width=".75"/><path fill="#EBECF0" fill-rule="nonzero" d="M238.153 356.971h42.748v.763h-42.748z"/><path fill="#EBECF0" fill-rule="nonzero" d="M238.153 314.231h.763v43.503h-.763z"/><path d="M269.069 335.601a8.76 8.76 0 0 1-1.48 4.877 8.758 8.758 0 0 1-3.94 3.232 8.757 8.757 0 0 1-5.072.5 8.758 8.758 0 0 1-3.164-1.31 8.75 8.75 0 0 1-2.422-2.422 8.758 8.758 0 0 1-1.48-4.877 8.753 8.753 0 0 1 1.48-4.876 8.75 8.75 0 0 1 2.422-2.421 8.759 8.759 0 0 1 4.877-1.48 8.76 8.76 0 0 1 4.877 1.48 8.763 8.763 0 0 1 3.233 3.939 8.755 8.755 0 0 1 .669 3.358Z" fill="#FFFFFF" fill-rule="nonzero"/><path d="M269.069 335.601a8.76 8.76 0 0 1-1.48 4.877 8.758 8.758 0 0 1-3.94 3.232 8.757 8.757 0 0 1-5.072.5 8.758 8.758 0 0 1-3.164-1.31 8.75 8.75 0 0 1-2.422-2.422 8.758 8.758 0 0 1-1.48-4.877 8.753 8.753 0 0 1 1.48-4.876 8.75 8.75 0 0 1 2.422-2.421 8.759 8.759 0 0 1 4.877-1.48 8.76 8.76 0 0 1 4.877 1.48 8.763 8.763 0 0 1 3.233 3.939 8.755 8.755 0 0 1 .669 3.358Z" stroke="#E3D9FC" stroke-width=".75"/><path fill="#EBECF0" fill-rule="nonzero" d="M280.901 95.951h42.748v.763h-42.748z"/><path fill="#EBECF0" fill-rule="nonzero" d="M280.901 53.211h.763v43.503h-.763z"/><path d="M311.817 74.581a8.755 8.755 0 0 1-1.48 4.877 8.755 8.755 0 0 1-2.422 2.421 8.764 8.764 0 0 1-4.877 1.48 8.758 8.758 0 0 1-3.36-.669 8.757 8.757 0 0 1-3.939-3.232 8.753 8.753 0 0 1-1.31-3.164 8.753 8.753 0 0 1 0-3.425 8.751 8.751 0 0 1 1.31-3.164 8.752 8.752 0 0 1 2.422-2.421 8.755 8.755 0 0 1 3.165-1.31 8.76 8.76 0 0 1 5.072.499 8.758 8.758 0 0 1 3.94 3.232 8.758 8.758 0 0 1 1.479 4.876Z" fill="#FFFFFF" fill-rule="nonzero"/><path d="M311.817 74.581a8.755 8.755 0 0 1-1.48 4.877 8.755 8.755 0 0 1-2.422 2.421 8.764 8.764 0 0 1-4.877 1.48 8.758 8.758 0 0 1-3.36-.669 8.757 8.757 0 0 1-3.939-3.232 8.753 8.753 0 0 1-1.31-3.164 8.753 8.753 0 0 1 0-3.425 8.751 8.751 0 0 1 1.31-3.164 8.752 8.752 0 0 1 2.422-2.421 8.755 8.755 0 0 1 3.165-1.31 8.76 8.76 0 0 1 5.072.499 8.758 8.758 0 0 1 3.94 3.232 8.758 8.758 0 0 1 1.479 4.876Z" stroke="#7540EE" stroke-width=".75"/><path fill="#EBECF0" fill-rule="nonzero" d="M280.901 139.454h42.748v.764h-42.748z"/><path fill="#EBECF0" fill-rule="nonzero" d="M280.901 96.714h.763v43.504h-.763z"/><path d="M311.817 118.085a8.755 8.755 0 0 1-1.48 4.876 8.753 8.753 0 0 1-2.422 2.422 8.763 8.763 0 0 1-4.877 1.479 8.76 8.76 0 0 1-4.877-1.48 8.76 8.76 0 0 1-3.233-3.938 8.751 8.751 0 0 1-.668-3.36 8.752 8.752 0 0 1 .668-3.358 8.754 8.754 0 0 1 1.903-2.847 8.76 8.76 0 0 1 4.495-2.403 8.76 8.76 0 0 1 5.072.5 8.758 8.758 0 0 1 3.94 3.233 8.76 8.76 0 0 1 1.479 4.876Z" fill="#FFFFFF" fill-rule="nonzero"/><path d="M311.817 118.085a8.755 8.755 0 0 1-1.48 4.876 8.753 8.753 0 0 1-2.422 2.422 8.763 8.763 0 0 1-4.877 1.479 8.76 8.76 0 0 1-4.877-1.48 8.76 8.76 0 0 1-3.233-3.938 8.751 8.751 0 0 1-.668-3.36 8.752 8.752 0 0 1 .668-3.358 8.754 8.754 0 0 1 1.903-2.847 8.76 8.76 0 0 1 4.495-2.403 8.76 8.76 0 0 1 5.072.5 8.758 8.758 0 0 1 3.94 3.233 8.76 8.76 0 0 1 1.479 4.876Z" stroke="#7540EE" stroke-width=".75"/><path fill="#EBECF0" fill-rule="nonzero" d="M280.901 182.958h42.748v.763h-42.748z"/><path fill="#EBECF0" fill-rule="nonzero" d="M280.901 140.218h.763v43.503h-.763z"/><path d="M311.817 161.588a8.755 8.755 0 0 1-1.48 4.876 8.755 8.755 0 0 1-2.422 2.422 8.762 8.762 0 0 1-4.877 1.48 8.76 8.76 0 0 1-4.877-1.48 8.759 8.759 0 0 1-3.233-3.94 8.752 8.752 0 0 1-.668-3.358 8.753 8.753 0 0 1 .668-3.359 8.75 8.75 0 0 1 1.903-2.847 8.758 8.758 0 0 1 4.495-2.402 8.76 8.76 0 0 1 5.072.5 8.757 8.757 0 0 1 2.848 1.902 8.753 8.753 0 0 1 1.903 2.847 8.75 8.75 0 0 1 .668 3.36Z" fill="#FFFFFF" fill-rule="nonzero"/><path d="M311.817 161.588a8.755 8.755 0 0 1-1.48 4.876 8.755 8.755 0 0 1-2.422 2.422 8.762 8.762 0 0 1-4.877 1.48 8.76 8.76 0 0 1-4.877-1.48 8.759 8.759 0 0 1-3.233-3.94 8.752 8.752 0 0 1-.668-3.358 8.753 8.753 0 0 1 .668-3.359 8.75 8.75 0 0 1 1.903-2.847 8.758 8.758 0 0 1 4.495-2.402 8.76 8.76 0 0 1 5.072.5 8.757 8.757 0 0 1 2.848 1.902 8.753 8.753 0 0 1 1.903 2.847 8.75 8.75 0 0 1 .668 3.36Z" stroke="#7540EE" stroke-width=".75"/><path fill="#EBECF0" fill-rule="nonzero" d="M280.901 226.461h42.748v.763h-42.748z"/><path fill="#EBECF0" fill-rule="nonzero" d="M280.901 183.721h.763v43.503h-.763z"/><path d="M311.817 205.091a8.755 8.755 0 0 1-1.48 4.877 8.755 8.755 0 0 1-3.94 3.232 8.76 8.76 0 0 1-5.071.5 8.755 8.755 0 0 1-3.165-1.31 8.76 8.76 0 0 1-3.233-3.94 8.751 8.751 0 0 1-.668-3.359 8.753 8.753 0 0 1 1.479-4.876 8.753 8.753 0 0 1 2.422-2.421 8.754 8.754 0 0 1 3.165-1.31 8.76 8.76 0 0 1 5.072.499 8.757 8.757 0 0 1 2.848 1.902 8.756 8.756 0 0 1 2.402 4.494c.113.565.169 1.136.169 1.712Z" fill="#FFFFFF" fill-rule="nonzero"/><path d="M311.817 205.091a8.755 8.755 0 0 1-1.48 4.877 8.755 8.755 0 0 1-3.94 3.232 8.76 8.76 0 0 1-5.071.5 8.755 8.755 0 0 1-3.165-1.31 8.76 8.76 0 0 1-3.233-3.94 8.751 8.751 0 0 1-.668-3.359 8.753 8.753 0 0 1 1.479-4.876 8.753 8.753 0 0 1 2.422-2.421 8.754 8.754 0 0 1 3.165-1.31 8.76 8.76 0 0 1 5.072.499 8.757 8.757 0 0 1 2.848 1.902 8.756 8.756 0 0 1 2.402 4.494c.113.565.169 1.136.169 1.712Z" stroke="#7540EE" stroke-width=".75"/><path fill="#EBECF0" fill-rule="nonzero" d="M280.901 269.964h42.748v.764h-42.748z"/><path fill="#EBECF0" fill-rule="nonzero" d="M280.901 227.224h.763v43.504h-.763z"/><path d="M311.817 248.595a8.755 8.755 0 0 1-1.48 4.876 8.755 8.755 0 0 1-2.422 2.421 8.762 8.762 0 0 1-4.877 1.48 8.761 8.761 0 0 1-4.877-1.48 8.763 8.763 0 0 1-3.233-3.939 8.752 8.752 0 0 1-.668-3.358 8.752 8.752 0 0 1 .668-3.36 8.752 8.752 0 0 1 1.903-2.847 8.76 8.76 0 0 1 4.495-2.402 8.765 8.765 0 0 1 5.072.5 8.757 8.757 0 0 1 2.848 1.902 8.756 8.756 0 0 1 2.402 4.494c.113.566.169 1.136.169 1.713Z" fill="#FFFFFF" fill-rule="nonzero"/><path d="M311.817 248.595a8.755 8.755 0 0 1-1.48 4.876 8.755 8.755 0 0 1-2.422 2.421 8.762 8.762 0 0 1-4.877 1.48 8.761 8.761 0 0 1-4.877-1.48 8.763 8.763 0 0 1-3.233-3.939 8.752 8.752 0 0 1-.668-3.358 8.752 8.752 0 0 1 .668-3.36 8.752 8.752 0 0 1 1.903-2.847 8.76 8.76 0 0 1 4.495-2.402 8.765 8.765 0 0 1 5.072.5 8.757 8.757 0 0 1 2.848 1.902 8.756 8.756 0 0 1 2.402 4.494c.113.566.169 1.136.169 1.713Z" stroke="#7540EE" stroke-width=".75"/><path fill="#EBECF0" fill-rule="nonzero" d="M280.901 313.468h42.748v.763h-42.748z"/><path fill="#EBECF0" fill-rule="nonzero" d="M280.901 270.728h.763v43.503h-.763z"/><path d="M311.817 292.098a8.755 8.755 0 0 1-1.48 4.876 8.754 8.754 0 0 1-2.422 2.422 8.76 8.76 0 0 1-4.877 1.479 8.757 8.757 0 0 1-3.36-.668 8.753 8.753 0 0 1-2.847-1.903 8.75 8.75 0 0 1-1.903-2.847 8.75 8.75 0 0 1-.668-3.359 8.753 8.753 0 0 1 .668-3.359 8.752 8.752 0 0 1 1.903-2.847 8.76 8.76 0 0 1 4.495-2.402 8.76 8.76 0 0 1 5.072.5 8.76 8.76 0 0 1 3.94 3.232 8.758 8.758 0 0 1 1.479 4.876Z" fill="#7540EE" fill-rule="nonzero"/><path d="M311.817 292.098a8.755 8.755 0 0 1-1.48 4.876 8.754 8.754 0 0 1-2.422 2.422 8.76 8.76 0 0 1-4.877 1.479 8.757 8.757 0 0 1-3.36-.668 8.753 8.753 0 0 1-2.847-1.903 8.75 8.75 0 0 1-1.903-2.847 8.75 8.75 0 0 1-.668-3.359 8.753 8.753 0 0 1 .668-3.359 8.752 8.752 0 0 1 1.903-2.847 8.76 8.76 0 0 1 4.495-2.402 8.76 8.76 0 0 1 5.072.5 8.76 8.76 0 0 1 3.94 3.232 8.758 8.758 0 0 1 1.479 4.876Z" stroke="#7540EE" stroke-width=".75"/><path fill="#EBECF0" fill-rule="nonzero" d="M280.901 356.971h42.748v.763h-42.748z"/><path fill="#EBECF0" fill-rule="nonzero" d="M280.901 314.231h.763v43.503h-.763z"/><path d="M311.817 335.601a8.755 8.755 0 0 1-1.48 4.877 8.754 8.754 0 0 1-2.422 2.421 8.76 8.76 0 0 1-4.877 1.48 8.757 8.757 0 0 1-3.36-.669 8.753 8.753 0 0 1-2.847-1.902 8.75 8.75 0 0 1-1.903-2.848 8.75 8.75 0 0 1-.668-3.359 8.753 8.753 0 0 1 1.479-4.876 8.75 8.75 0 0 1 2.422-2.421 8.759 8.759 0 0 1 4.877-1.48 8.76 8.76 0 0 1 4.877 1.48 8.762 8.762 0 0 1 3.234 3.939 8.75 8.75 0 0 1 .668 3.358Z" fill="#FFFFFF" fill-rule="nonzero"/><path d="M311.817 335.601a8.755 8.755 0 0 1-1.48 4.877 8.754 8.754 0 0 1-2.422 2.421 8.76 8.76 0 0 1-4.877 1.48 8.757 8.757 0 0 1-3.36-.669 8.753 8.753 0 0 1-2.847-1.902 8.75 8.75 0 0 1-1.903-2.848 8.75 8.75 0 0 1-.668-3.359 8.753 8.753 0 0 1 1.479-4.876 8.75 8.75 0 0 1 2.422-2.421 8.759 8.759 0 0 1 4.877-1.48 8.76 8.76 0 0 1 4.877 1.48 8.762 8.762 0 0 1 3.234 3.939 8.75 8.75 0 0 1 .668 3.358Z" stroke="#E3D9FC" stroke-width=".75"/><path fill="#EBECF0" fill-rule="nonzero" d="M323.649 95.951h42.748v.763h-42.748z"/><path fill="#EBECF0" fill-rule="nonzero" d="M365.634 53.211h.763v43.503h-.763zM323.649 53.211h.763v43.503h-.763z"/><path d="M354.565 74.581a8.751 8.751 0 0 1-.668 3.36 8.759 8.759 0 0 1-3.234 3.938 8.761 8.761 0 0 1-4.877 1.48 8.759 8.759 0 0 1-4.877-1.48 8.761 8.761 0 0 1-3.233-3.939 8.751 8.751 0 0 1-.668-3.359 8.755 8.755 0 0 1 1.48-4.876 8.752 8.752 0 0 1 2.421-2.421 8.754 8.754 0 0 1 3.165-1.31 8.76 8.76 0 0 1 5.072.499 8.76 8.76 0 0 1 3.94 3.232 8.758 8.758 0 0 1 1.479 4.876Z" fill="#7540EE" fill-rule="nonzero"/><path d="M354.565 74.581a8.751 8.751 0 0 1-.668 3.36 8.759 8.759 0 0 1-3.234 3.938 8.761 8.761 0 0 1-4.877 1.48 8.759 8.759 0 0 1-4.877-1.48 8.761 8.761 0 0 1-3.233-3.939 8.751 8.751 0 0 1-.668-3.359 8.755 8.755 0 0 1 1.48-4.876 8.752 8.752 0 0 1 2.421-2.421 8.754 8.754 0 0 1 3.165-1.31 8.76 8.76 0 0 1 5.072.499 8.76 8.76 0 0 1 3.94 3.232 8.758 8.758 0 0 1 1.479 4.876Z" stroke="#7540EE" stroke-width=".75"/><path fill="#EBECF0" fill-rule="nonzero" d="M323.649 139.454h42.748v.764h-42.748z"/><path fill="#EBECF0" fill-rule="nonzero" d="M365.634 96.714h.763v43.504h-.763zM323.649 96.714h.763v43.504h-.763z"/><path d="M354.565 118.085a8.752 8.752 0 0 1-.668 3.359 8.757 8.757 0 0 1-3.234 3.939 8.76 8.76 0 0 1-4.877 1.479 8.76 8.76 0 0 1-4.877-1.48 8.76 8.76 0 0 1-3.233-3.938 8.751 8.751 0 0 1-.668-3.36 8.755 8.755 0 0 1 1.48-4.875 8.753 8.753 0 0 1 2.421-2.422 8.754 8.754 0 0 1 3.165-1.31 8.76 8.76 0 0 1 5.072.499 8.76 8.76 0 0 1 3.94 3.233 8.76 8.76 0 0 1 1.479 4.876Z" fill="#FFFFFF" fill-rule="nonzero"/><path d="M354.565 118.085a8.752 8.752 0 0 1-.668 3.359 8.757 8.757 0 0 1-3.234 3.939 8.76 8.76 0 0 1-4.877 1.479 8.76 8.76 0 0 1-4.877-1.48 8.76 8.76 0 0 1-3.233-3.938 8.751 8.751 0 0 1-.668-3.36 8.755 8.755 0 0 1 1.48-4.875 8.753 8.753 0 0 1 2.421-2.422 8.754 8.754 0 0 1 3.165-1.31 8.76 8.76 0 0 1 5.072.499 8.76 8.76 0 0 1 3.94 3.233 8.76 8.76 0 0 1 1.479 4.876Z" stroke="#7540EE" stroke-width=".75"/><path fill="#EBECF0" fill-rule="nonzero" d="M323.649 182.958h42.748v.763h-42.748z"/><path fill="#EBECF0" fill-rule="nonzero" d="M365.634 140.218h.763v43.503h-.763zM323.649 140.218h.763v43.503h-.763z"/><path d="M354.565 161.588a8.751 8.751 0 0 1-.668 3.359 8.759 8.759 0 0 1-3.234 3.939 8.76 8.76 0 0 1-4.877 1.48 8.76 8.76 0 0 1-4.877-1.48 8.759 8.759 0 0 1-3.233-3.94 8.752 8.752 0 0 1-.668-3.358 8.755 8.755 0 0 1 1.48-4.876 8.75 8.75 0 0 1 2.421-2.422 8.753 8.753 0 0 1 3.165-1.31 8.76 8.76 0 0 1 5.072.5 8.758 8.758 0 0 1 3.94 3.232 8.756 8.756 0 0 1 1.479 4.876Z" fill="#FFFFFF" fill-rule="nonzero"/><path d="M354.565 161.588a8.751 8.751 0 0 1-.668 3.359 8.759 8.759 0 0 1-3.234 3.939 8.76 8.76 0 0 1-4.877 1.48 8.76 8.76 0 0 1-4.877-1.48 8.759 8.759 0 0 1-3.233-3.94 8.752 8.752 0 0 1-.668-3.358 8.755 8.755 0 0 1 1.48-4.876 8.75 8.75 0 0 1 2.421-2.422 8.753 8.753 0 0 1 3.165-1.31 8.76 8.76 0 0 1 5.072.5 8.758 8.758 0 0 1 3.94 3.232 8.756 8.756 0 0 1 1.479 4.876Z" stroke="#7540EE" stroke-width=".75"/><path fill="#EBECF0" fill-rule="nonzero" d="M323.649 226.461h42.748v.763h-42.748z"/><path fill="#EBECF0" fill-rule="nonzero" d="M365.634 183.721h.763v43.503h-.763zM323.649 183.721h.763v43.503h-.763z"/><path d="M354.565 205.091a8.752 8.752 0 0 1-.668 3.36 8.758 8.758 0 0 1-3.234 3.938 8.759 8.759 0 0 1-3.164 1.31 8.76 8.76 0 0 1-5.072-.499 8.758 8.758 0 0 1-3.94-3.232 8.755 8.755 0 0 1-1.48-4.877 8.755 8.755 0 0 1 1.48-4.876 8.753 8.753 0 0 1 2.422-2.421 8.753 8.753 0 0 1 3.165-1.31 8.76 8.76 0 0 1 5.072.499 8.758 8.758 0 0 1 3.94 3.232 8.759 8.759 0 0 1 1.479 4.876Z" fill="#FFFFFF" fill-rule="nonzero"/><path d="M354.565 205.091a8.752 8.752 0 0 1-.668 3.36 8.758 8.758 0 0 1-3.234 3.938 8.759 8.759 0 0 1-3.164 1.31 8.76 8.76 0 0 1-5.072-.499 8.758 8.758 0 0 1-3.94-3.232 8.755 8.755 0 0 1-1.48-4.877 8.755 8.755 0 0 1 1.48-4.876 8.753 8.753 0 0 1 2.422-2.421 8.753 8.753 0 0 1 3.165-1.31 8.76 8.76 0 0 1 5.072.499 8.758 8.758 0 0 1 3.94 3.232 8.759 8.759 0 0 1 1.479 4.876Z" stroke="#7540EE" stroke-width=".75"/><path fill="#EBECF0" fill-rule="nonzero" d="M323.649 269.964h42.748v.764h-42.748z"/><path fill="#EBECF0" fill-rule="nonzero" d="M365.634 227.224h.763v43.504h-.763zM323.649 227.224h.763v43.504h-.763z"/><path d="M354.565 248.595a8.751 8.751 0 0 1-.668 3.358 8.759 8.759 0 0 1-3.234 3.94 8.76 8.76 0 0 1-4.877 1.479 8.762 8.762 0 0 1-4.877-1.48 8.763 8.763 0 0 1-3.233-3.939 8.752 8.752 0 0 1-.668-3.358 8.755 8.755 0 0 1 1.48-4.877 8.753 8.753 0 0 1 2.421-2.421 8.753 8.753 0 0 1 3.165-1.31 8.764 8.764 0 0 1 5.072.499 8.758 8.758 0 0 1 3.94 3.232 8.758 8.758 0 0 1 1.479 4.877Z" fill="#FFFFFF" fill-rule="nonzero"/><path d="M354.565 248.595a8.751 8.751 0 0 1-.668 3.358 8.759 8.759 0 0 1-3.234 3.94 8.76 8.76 0 0 1-4.877 1.479 8.762 8.762 0 0 1-4.877-1.48 8.763 8.763 0 0 1-3.233-3.939 8.752 8.752 0 0 1-.668-3.358 8.755 8.755 0 0 1 1.48-4.877 8.753 8.753 0 0 1 2.421-2.421 8.753 8.753 0 0 1 3.165-1.31 8.764 8.764 0 0 1 5.072.499 8.758 8.758 0 0 1 3.94 3.232 8.758 8.758 0 0 1 1.479 4.877Z" stroke="#7540EE" stroke-width=".75"/><path fill="#EBECF0" fill-rule="nonzero" d="M323.649 313.468h42.748v.763h-42.748z"/><path fill="#EBECF0" fill-rule="nonzero" d="M365.634 270.728h.763v43.503h-.763zM323.649 270.728h.763v43.503h-.763z"/><path d="M354.565 292.098a8.751 8.751 0 0 1-.668 3.359 8.76 8.76 0 0 1-3.234 3.939 8.757 8.757 0 0 1-3.164 1.31 8.756 8.756 0 0 1-3.425 0 8.757 8.757 0 0 1-3.165-1.31 8.755 8.755 0 0 1-3.233-3.94 8.75 8.75 0 0 1-.668-3.358 8.755 8.755 0 0 1 1.48-4.876 8.751 8.751 0 0 1 2.421-2.422 8.755 8.755 0 0 1 3.165-1.31 8.76 8.76 0 0 1 5.072.5 8.762 8.762 0 0 1 3.94 3.232 8.758 8.758 0 0 1 1.479 4.876Z" fill="#FFFFFF" fill-rule="nonzero"/><path d="M354.565 292.098a8.751 8.751 0 0 1-.668 3.359 8.76 8.76 0 0 1-3.234 3.939 8.757 8.757 0 0 1-3.164 1.31 8.756 8.756 0 0 1-3.425 0 8.757 8.757 0 0 1-3.165-1.31 8.755 8.755 0 0 1-3.233-3.94 8.75 8.75 0 0 1-.668-3.358 8.755 8.755 0 0 1 1.48-4.876 8.751 8.751 0 0 1 2.421-2.422 8.755 8.755 0 0 1 3.165-1.31 8.76 8.76 0 0 1 5.072.5 8.762 8.762 0 0 1 3.94 3.232 8.758 8.758 0 0 1 1.479 4.876Z" stroke="#7540EE" stroke-width=".75"/><path fill="#EBECF0" fill-rule="nonzero" d="M323.649 356.971h42.748v.763h-42.748z"/><path fill="#EBECF0" fill-rule="nonzero" d="M365.634 314.231h.763v43.503h-.763zM323.649 314.231h.763v43.503h-.763z"/><path d="M354.565 335.601a8.751 8.751 0 0 1-.668 3.36 8.76 8.76 0 0 1-3.234 3.938 8.757 8.757 0 0 1-3.164 1.31 8.756 8.756 0 0 1-3.425 0 8.757 8.757 0 0 1-3.165-1.31 8.755 8.755 0 0 1-3.233-3.939 8.75 8.75 0 0 1-.668-3.359 8.756 8.756 0 0 1 1.48-4.876 8.75 8.75 0 0 1 2.421-2.421 8.758 8.758 0 0 1 3.165-1.311 8.762 8.762 0 0 1 5.072.5 8.762 8.762 0 0 1 3.94 3.232 8.756 8.756 0 0 1 1.479 4.876Z" fill="#FFFFFF" fill-rule="nonzero"/><path d="M354.565 335.601a8.751 8.751 0 0 1-.668 3.36 8.76 8.76 0 0 1-3.234 3.938 8.757 8.757 0 0 1-3.164 1.31 8.756 8.756 0 0 1-3.425 0 8.757 8.757 0 0 1-3.165-1.31 8.755 8.755 0 0 1-3.233-3.939 8.75 8.75 0 0 1-.668-3.359 8.756 8.756 0 0 1 1.48-4.876 8.75 8.75 0 0 1 2.421-2.421 8.758 8.758 0 0 1 3.165-1.311 8.762 8.762 0 0 1 5.072.5 8.762 8.762 0 0 1 3.94 3.232 8.756 8.756 0 0 1 1.479 4.876Z" stroke="#E3D9FC" stroke-width=".75"/></g><g fill="#0A1F44" fill-rule="nonzero"><path d="M168.848 41v-6.338a3.607 3.607 0 0 1-.504.269 2.55 2.55 0 0 1-.571.17l-.135-1.318c.175-.037.37-.124.587-.263.215-.138.415-.302.598-.491.183-.19.314-.382.39-.577h1.198V41h-1.563ZM174.038 41.122a4.7 4.7 0 0 1-1.09-.116 5.475 5.475 0 0 1-.974-.336l.135-1.294c.313.183.622.33.925.443.303.111.622.167.956.167.3 0 .53-.048.69-.146.158-.098.238-.252.238-.464a.596.596 0 0 0-.125-.39 1.102 1.102 0 0 0-.376-.276 7.422 7.422 0 0 0-.623-.262 5.318 5.318 0 0 1-.956-.452 1.747 1.747 0 0 1-.598-.59c-.136-.23-.205-.513-.205-.851 0-.35.092-.66.275-.928.183-.269.444-.478.782-.629.338-.15.739-.226 1.203-.226.387 0 .734.043 1.041.128.308.086.591.202.852.348l-.134 1.295a5.005 5.005 0 0 0-.825-.473 2.198 2.198 0 0 0-.91-.187c-.26 0-.462.053-.604.16a.53.53 0 0 0-.214.451c0 .236.1.413.3.531.199.118.518.263.958.434.285.11.532.224.742.342.21.118.384.248.522.39.139.143.241.305.309.486.067.18.1.39.1.626 0 .386-.092.715-.278.986-.185.27-.456.477-.812.62-.356.142-.79.213-1.304.213ZM179.461 41.122c-.382 0-.694-.078-.934-.235a1.436 1.436 0 0 1-.531-.601 1.784 1.784 0 0 1-.171-.764V36.14h-.867l.134-1.246h.733v-1.343l1.514-.159v1.502h1.344v1.246h-1.344v2.76c0 .309.019.532.055.668.037.137.12.222.25.257.13.034.338.052.623.052h.416l-.135 1.245h-1.087ZM207.225 41l2.248-3.456c.297-.456.536-.84.717-1.154a4.88 4.88 0 0 0 .394-.824c.082-.236.122-.468.122-.696 0-.35-.098-.625-.296-.824-.197-.2-.473-.3-.827-.3-.428 0-.812.106-1.151.318-.34.212-.645.452-.913.72l-.196-1.575a4.52 4.52 0 0 1 1.17-.684 3.816 3.816 0 0 1 1.407-.244c.517 0 .948.106 1.292.318.344.211.601.492.772.842.171.35.257.733.257 1.148 0 .322-.045.644-.134.968-.09.323-.238.682-.443 1.074a16.35 16.35 0 0 1-.828 1.377l-1.001 1.527h2.711V41h-5.3ZM213.857 41v-6.106h1.417l.061 1.136-.354-.464c.232-.195.509-.373.83-.531a2.51 2.51 0 0 1 1.124-.238c.782 0 1.362.26 1.74.778.38.519.569 1.192.569 2.018V41h-1.515v-3.285c0-.57-.094-.991-.284-1.264-.19-.272-.497-.409-.925-.409-.346 0-.629.085-.849.254a2.35 2.35 0 0 0-.58.674l.281-.745V41h-1.515ZM223.067 41.122c-.62 0-1.14-.144-1.56-.433a2.7 2.7 0 0 1-.953-1.154 3.83 3.83 0 0 1-.32-1.576c0-.57.106-1.095.32-1.575a2.7 2.7 0 0 1 .952-1.154c.422-.289.942-.433 1.56-.433.448 0 .827.074 1.137.222.309.149.582.34.818.571l-.367.318V31.84h1.515V41h-1.43l-.072-1.038.44.318c-.286.26-.58.466-.886.616-.305.15-.69.226-1.154.226Zm.22-1.245c.333 0 .606-.082.818-.245.212-.163.368-.387.47-.674.102-.287.153-.62.153-.999 0-.378-.051-.711-.153-.998a1.427 1.427 0 0 0-.47-.675c-.212-.162-.485-.244-.818-.244-.318 0-.589.082-.813.244a1.53 1.53 0 0 0-.513.675c-.118.287-.177.62-.177.998 0 .379.06.712.177.999.118.287.29.511.513.674.224.163.495.245.813.245ZM253.63 41.171c-.514 0-.98-.06-1.4-.18a6.017 6.017 0 0 1-1.007-.37l.379-1.318c.268.134.578.255.928.363.35.108.717.162 1.1.162.447 0 .805-.103 1.074-.309.269-.205.403-.522.403-.95 0-.426-.131-.75-.394-.967-.262-.218-.656-.326-1.182-.326h-.867V35.81h.855c.44 0 .776-.102 1.008-.305.232-.204.348-.485.348-.843 0-.313-.107-.565-.32-.754-.214-.19-.523-.284-.926-.284a2.99 2.99 0 0 0-.98.159 5.435 5.435 0 0 0-.913.415l-.232-1.38c.28-.146.616-.272 1.005-.378a4.862 4.862 0 0 1 1.279-.159c.558 0 1.028.095 1.41.284.383.19.673.449.87.778.198.33.297.705.297 1.124 0 .55-.146 1.015-.44 1.398-.293.383-.708.641-1.245.776l-.013-.281c.595.097 1.077.335 1.448.714.37.379.555.877.555 1.496 0 .558-.127 1.03-.381 1.416-.255.387-.61.681-1.066.883-.456.201-.987.302-1.594.302ZM258.1 41v-6.106h1.416l.037.647c.155-.17.372-.341.653-.512a1.74 1.74 0 0 1 1.191-.232l-.11 1.49a1.557 1.557 0 0 0-.265-.05 2.802 2.802 0 0 0-.26-.012c-.256 0-.49.06-.702.177-.212.118-.36.263-.446.434V41h-1.515ZM264.438 41.122c-.618 0-1.139-.144-1.56-.433a2.7 2.7 0 0 1-.953-1.154 3.83 3.83 0 0 1-.32-1.576c0-.57.107-1.095.32-1.575a2.7 2.7 0 0 1 .953-1.154c.421-.289.942-.433 1.56-.433.448 0 .827.074 1.136.222.31.149.582.34.819.571l-.367.318V31.84h1.515V41h-1.43l-.073-1.038.44.318c-.285.26-.58.466-.885.616-.306.15-.69.226-1.155.226Zm.22-1.245c.334 0 .607-.082.819-.245.211-.163.368-.387.47-.674.102-.287.152-.62.152-.999 0-.378-.05-.711-.152-.998a1.427 1.427 0 0 0-.47-.675c-.212-.162-.485-.244-.819-.244-.317 0-.588.082-.812.244a1.53 1.53 0 0 0-.513.675c-.118.287-.177.62-.177.998 0 .379.059.712.177.999.118.287.29.511.513.674.224.163.495.245.812.245ZM297.367 41v-1.954h-4.262l4.702-6.594h1.063v5.324h1.099v1.27h-1.1V41h-1.502Zm-2.21-2.71-.294-.514h2.504v-3.639l.403.44-2.613 3.712ZM303.303 41.122c-.383 0-.694-.078-.934-.235a1.436 1.436 0 0 1-.532-.601 1.784 1.784 0 0 1-.17-.764V36.14h-.868l.135-1.246h.732v-1.343l1.515-.159v1.502h1.343v1.246h-1.343v2.76c0 .309.018.532.055.668.037.137.12.222.25.257.13.034.338.052.623.052h.415l-.134 1.245h-1.087ZM305.502 41v-9.159h1.514v3.945l-.342-.269a6.66 6.66 0 0 1 .837-.495c.301-.15.661-.225 1.08-.225.538 0 .976.119 1.314.357.338.238.586.568.745.989.158.421.238.909.238 1.462V41h-1.515v-3.285c0-.57-.091-.991-.274-1.264-.184-.272-.483-.409-.898-.409-.354 0-.644.083-.87.247a2.279 2.279 0 0 0-.596.669l.281-.818V41h-1.514ZM339.224 41.159c-.469 0-.898-.061-1.289-.183a4.015 4.015 0 0 1-1.056-.501l.366-1.417c.301.188.608.34.92.458a2.9 2.9 0 0 0 1.034.177c.464 0 .833-.122 1.106-.366.272-.244.409-.574.409-.99 0-.447-.155-.797-.464-1.05-.31-.252-.758-.378-1.344-.378-.269 0-.536.016-.803.049s-.532.073-.797.122l.55-4.628h4.03l-.098 1.514h-2.76l-.293 2.37-.586-.538c.195-.057.4-.1.614-.128.213-.029.444-.043.693-.043.545 0 1.027.107 1.444.32.417.214.743.524.977.929.234.405.351.892.351 1.462 0 .586-.13 1.09-.388 1.511a2.573 2.573 0 0 1-1.065.97c-.452.227-.97.34-1.551.34ZM345.538 41.122c-.383 0-.694-.078-.934-.235a1.436 1.436 0 0 1-.532-.601 1.784 1.784 0 0 1-.17-.764V36.14h-.868l.135-1.246h.732v-1.343l1.515-.159v1.502h1.343v1.246h-1.343v2.76c0 .309.018.532.055.668.037.137.12.222.25.257.13.034.338.052.623.052h.415l-.134 1.245h-1.087ZM347.737 41v-9.159h1.514v3.945l-.342-.269a6.66 6.66 0 0 1 .837-.495c.301-.15.661-.225 1.08-.225.538 0 .976.119 1.314.357.338.238.586.568.745.989.158.421.238.909.238 1.462V41h-1.515v-3.285c0-.57-.091-.991-.274-1.264-.184-.272-.483-.409-.898-.409-.354 0-.644.083-.87.247a2.279 2.279 0 0 0-.596.669l.281-.818V41h-1.514Z"/></g></g></svg>