<?xml version="1.0" encoding="UTF-8"?>
<svg width="1001px" height="144px" viewBox="0 0 1001 144" version="1.1" xmlns="http://www.w3.org/2000/svg" xmlns:xlink="http://www.w3.org/1999/xlink">
    <!-- Generator: Sketch 53.2 (72643) - https://sketchapp.com -->
    <title>Logo2</title>
    <desc>Created with Sketch.</desc>
    <g id="Page-1" stroke="none" stroke-width="1" fill="none" fill-rule="evenodd">
        <g id="Logo2" fill-rule="nonzero">
            <g id="Group" transform="translate(142.000000, 63.000000)" fill="#0A1F44">
                <path d="M0.7,2.88 C0.7,1.92 1.47,1.05 2.53,1.05 L27.42,1.05 C38.95,1.05 48.37,10.08 48.37,21.52 C48.37,30.36 42.51,37.76 34.15,41.12 L47.32,65.53 C47.99,66.78 47.32,68.32 45.69,68.32 L41.08,68.32 C39.93,68.32 39.45,67.84 38.97,66.88 L26.45,42 L8.1,42 L8.1,66.51 C8.1,67.47 7.23,68.34 6.27,68.34 L2.52,68.34 C1.46,68.34 0.69,67.48 0.69,66.51 L0.69,2.88 L0.7,2.88 Z M26.93,35.66 C34.33,35.66 40.77,29.51 40.77,21.63 C40.77,14.33 34.33,8.08 26.93,8.08 L8.29,8.08 L8.29,35.66 L26.93,35.66 L26.93,35.66 Z" id="Shape"></path>
                <path d="M81.9,65.83 L111.11,1.15 C111.4,0.57 111.88,0.09 112.74,0.09 L113.7,0.09 C114.56,0.09 115.05,0.57 115.33,1.15 L144.35,65.83 C144.93,67.08 144.16,68.33 142.72,68.33 L138.88,68.33 C138.01,68.33 137.44,67.75 137.25,67.27 L130.14,51.41 L96.02,51.41 L89,67.27 C88.81,67.75 88.23,68.33 87.37,68.33 L83.53,68.33 C82.1,68.33 81.33,67.08 81.9,65.83 Z M127.55,45.46 C122.84,34.98 118.23,24.41 113.52,13.94 L112.75,13.94 L98.72,45.46 L127.55,45.46 Z" id="Shape"></path>
                <path d="M181.66,1.83 C181.66,0.87 182.53,0.1 183.49,0.1 L184.93,0.1 C185.6,0.1 186.08,0.29 186.47,0.87 L229.24,54.11 C229.34,54.11 229.34,54.11 229.43,54.11 L229.43,2.89 C229.43,1.93 230.2,1.06 231.26,1.06 L234.62,1.06 C235.58,1.06 236.45,1.93 236.45,2.89 L236.45,67.57 C236.45,68.53 235.59,69.3 234.62,69.3 L233.85,69.3 C233.18,69.3 232.7,69.11 232.31,68.53 L188.78,14.23 L188.68,14.23 L188.68,66.51 C188.68,67.47 187.91,68.34 186.85,68.34 L183.49,68.34 C182.53,68.34 181.66,67.48 181.66,66.51 L181.66,1.83 L181.66,1.83 Z" id="Path"></path>
                <path d="M282.18,3.36 C282.18,2.11 283.14,1.05 284.49,1.05 L287.28,1.05 C288.53,1.05 289.59,2.11 289.59,3.36 L289.59,31.13 L319.57,2.01 C319.95,1.53 320.82,1.05 321.4,1.05 L326.11,1.05 C327.84,1.05 328.8,2.97 327.26,4.41 L296.89,33.34 L328.7,65.34 C329.37,66.01 329.18,68.32 327.07,68.32 L322.17,68.32 C321.5,68.32 320.63,67.94 320.44,67.65 L289.59,36.03 L289.59,66.01 C289.59,67.26 288.53,68.32 287.28,68.32 L284.49,68.32 C283.14,68.32 282.18,67.26 282.18,66.01 L282.18,3.36 Z" id="Path"></path>
                <path d="M367.23,2.88 C367.23,1.92 368,1.05 369.06,1.05 L406.92,1.05 C407.98,1.05 408.75,1.92 408.75,2.88 L408.75,5.67 C408.75,6.63 407.98,7.5 406.92,7.5 L374.63,7.5 L374.63,30.95 L402.21,30.95 C403.17,30.95 404.04,31.81 404.04,32.78 L404.04,35.57 C404.04,36.63 403.18,37.4 402.21,37.4 L374.63,37.4 L374.63,61.91 L406.92,61.91 C407.98,61.91 408.75,62.78 408.75,63.74 L408.75,66.53 C408.75,67.49 407.98,68.36 406.92,68.36 L369.06,68.36 C368,68.36 367.23,67.5 367.23,66.53 L367.23,2.88 Z" id="Path"></path>
                <path d="M449.88,2.88 C449.88,1.92 450.65,1.05 451.61,1.05 L473.14,1.05 C491.69,1.05 506.87,16.14 506.87,34.59 C506.87,53.23 491.69,68.32 473.14,68.32 L451.61,68.32 C450.65,68.32 449.88,67.46 449.88,66.49 L449.88,2.88 Z M472.27,61.7 C488.03,61.7 499.08,50.46 499.08,34.6 C499.08,18.84 488.03,7.59 472.27,7.59 L457.18,7.59 L457.18,61.7 L472.27,61.7 Z" id="Shape"></path>
                <path d="M538.77,3.56 C538.19,2.31 538.96,1.06 540.4,1.06 L544.24,1.06 C545.1,1.06 545.68,1.64 545.87,2.12 L569.8,55.94 L570.18,55.94 L594.11,2.12 C594.3,1.64 594.97,1.06 595.74,1.06 L599.58,1.06 C601.02,1.06 601.79,2.31 601.21,3.56 L571.99,68.24 C571.7,68.82 571.12,69.3 570.36,69.3 L569.4,69.3 C568.73,69.3 568.05,68.82 567.77,68.24 L538.77,3.56 Z" id="Path"></path>
                <path d="M667.45,0.1 C686.67,0.1 702.05,15.57 702.05,34.79 C702.05,54.01 686.67,69.29 667.45,69.29 C648.23,69.29 632.95,54.01 632.95,34.79 C632.95,15.57 648.23,0.1 667.45,0.1 Z M667.45,62.56 C682.73,62.56 695.32,50.07 695.32,34.79 C695.32,19.51 682.73,6.82 667.45,6.82 C652.17,6.82 639.68,19.51 639.68,34.79 C639.68,50.07 652.17,62.56 667.45,62.56 Z" id="Shape"></path>
                <path d="M752.41,7.5 L735.69,7.5 C734.63,7.5 733.86,6.63 733.86,5.67 L733.86,2.88 C733.86,1.92 734.63,1.05 735.69,1.05 L776.44,1.05 C777.5,1.05 778.27,1.92 778.27,2.88 L778.27,5.67 C778.27,6.63 777.5,7.5 776.44,7.5 L759.72,7.5 L759.72,66.51 C759.72,67.47 758.86,68.34 757.89,68.34 L754.24,68.34 C753.28,68.34 752.41,67.48 752.41,66.51 L752.41,7.5 Z" id="Path"></path>
                <path d="M817.28,2.88 C817.28,1.92 818.05,1.05 819.11,1.05 L856.97,1.05 C858.03,1.05 858.8,1.92 858.8,2.88 L858.8,5.67 C858.8,6.63 858.03,7.5 856.97,7.5 L824.68,7.5 L824.68,30.95 L852.26,30.95 C853.22,30.95 854.09,31.81 854.09,32.78 L854.09,35.57 C854.09,36.63 853.23,37.4 852.26,37.4 L824.68,37.4 L824.68,61.91 L856.97,61.91 C858.03,61.91 858.8,62.78 858.8,63.74 L858.8,66.53 C858.8,67.49 858.03,68.36 856.97,68.36 L819.11,68.36 C818.05,68.36 817.28,67.5 817.28,66.53 L817.28,2.88 Z" id="Path"></path>
            </g>
            <path d="M25.33,72.64 C28.53,78.36 32.05,84.25 35.91,90.28 C38.26,93.95 40.62,97.47 42.97,100.86 C53.26,84.64 68.07,64.6 88.83,44.42 C109.11,24.7 129.06,10.67 145.27,0.91 L152.33,10.32 C136.4,20.39 115.24,36.16 94.71,59.71 C72.24,85.49 58.96,110.91 51.2,129.09 C44.93,133.79 38.66,138.5 32.39,143.2 C31.49,136.05 29.08,124.21 21.81,111.45 C14.79,99.13 6.22,91.19 0.64,86.76 C1.12,85.24 3.33,78.93 10.05,75 C17,70.92 23.84,72.3 25.33,72.64 Z" id="Path" fill="#7540EE"></path>
        </g>
    </g>
</svg>