<svg width="804" height="668" xmlns="http://www.w3.org/2000/svg" xmlns:xlink="http://www.w3.org/1999/xlink"><defs><path d="M6 0h788a6 6 0 0 1 6 6v652a6 6 0 0 1-6 6H6a6 6 0 0 1-6-6V6a6 6 0 0 1 6-6Z" id="a"/><path id="c" d="M0 0h800v1154.962H0z"/><path id="e" d="M0 0h659.542v389.313H0z"/><path id="g" d="M0 0h800v1154.962H0z"/><circle id="i" cx="8" cy="8" r="8"/></defs><g transform="translate(2 2)" fill="none" fill-rule="evenodd"><mask id="b" fill="white"><use xlink:href="#a"/></mask><path stroke="#DEDEDE" stroke-width="2" d="M6-1h788a7 7 0 0 1 7 7v652a7 7 0 0 1-7 7H6a7 7 0 0 1-7-7V6a7 7 0 0 1 7-7Z"/><g mask="url(#b)"><g transform="translate(0 54)"><mask id="d" fill="white"><use xlink:href="#c"/></mask><g mask="url(#d)"><path fill="#FFFFFF" fill-rule="nonzero" d="M0 0h800v2687.023H0z"/><path d="M33.206 721.374V272.52a7.234 7.234 0 0 1 1.222-4.029 7.235 7.235 0 0 1 3.255-2.67 7.244 7.244 0 0 1 2.775-.553h719.084a7.234 7.234 0 0 1 4.029 1.222 7.234 7.234 0 0 1 2.67 3.255 7.236 7.236 0 0 1 .553 2.775v448.855a7.232 7.232 0 0 1-1.222 4.029 7.238 7.238 0 0 1-3.255 2.67 7.236 7.236 0 0 1-2.775.553H40.458a7.227 7.227 0 0 1-2.775-.552 7.243 7.243 0 0 1-3.925-3.925 7.234 7.234 0 0 1-.552-2.775Z" stroke="#EBECF0" stroke-width=".75"/><path d="M359.072 46.565v-7.438h4.58v1.318h-3.22v1.583h2.487v1.318h-2.487v3.219zM365.414 39.127h1.36v7.438h-1.36zM369.174 46.565v-7.438h1.339l3.177 4.803v-4.803h1.36v7.438h-1.116l-3.4-5.1v5.1zM381.509 44.801h-3.114v-1.19h3.114v1.19Zm-1.732-4.346h.35l-2.146 6.11h-1.318l2.646-7.438h1.286l2.646 7.438h-1.318l-2.146-6.11ZM384.854 46.565v-7.438h1.36v6.227h3.06v1.21zM394.085 46.565v-7.438h2.72c.514 0 .963.081 1.347.244.384.163.683.411.895.744.213.333.319.754.319 1.264 0 .546-.116.979-.348 1.3-.232.32-.537.574-.916.762l1.678 3.124h-1.52l-1.434-2.763h-1.381v2.763h-1.36Zm1.36-3.9h.999c.56 0 .95-.114 1.169-.343.22-.228.33-.518.33-.868 0-.372-.109-.663-.325-.874-.216-.21-.59-.316-1.121-.316h-1.052v2.401ZM401.5 46.565v-7.438h4.76v1.318h-3.368v1.583h2.614v1.318h-2.614v1.902h3.475v1.317zM410.456 46.714c-.301 0-.61-.03-.93-.088a7.963 7.963 0 0 1-.887-.213 4.55 4.55 0 0 1-.648-.241l.16-1.445c.247.12.506.232.775.334.27.103.545.186.829.25.283.064.57.096.86.096.362 0 .652-.071.872-.213.22-.142.33-.358.33-.648 0-.223-.063-.403-.187-.54-.124-.136-.313-.258-.568-.366-.255-.108-.581-.231-.978-.37a6.79 6.79 0 0 1-1.068-.47 2.16 2.16 0 0 1-.749-.666c-.184-.27-.276-.613-.276-1.03 0-.412.1-.777.303-1.098.202-.32.504-.572.906-.754.402-.183.902-.274 1.5-.274.454 0 .886.05 1.297.151.41.101.761.21 1.052.327l-.138 1.392a7.755 7.755 0 0 0-1.177-.428 4.337 4.337 0 0 0-1.119-.146c-.396 0-.703.066-.919.197a.645.645 0 0 0-.324.59c0 .209.06.377.18.504.121.128.293.237.516.327.223.09.49.185.802.284.539.17.991.357 1.358.56.367.205.643.45.829.74.186.288.279.645.279 1.07 0 .212-.034.444-.101.693-.068.25-.2.486-.399.71-.198.223-.488.406-.868.55-.381.143-.885.215-1.512.215ZM418.222 46.714c-.698 0-1.274-.138-1.73-.415a2.537 2.537 0 0 1-1.017-1.163c-.223-.5-.335-1.086-.335-1.759v-4.25h1.36v3.9c0 .354.024.677.07.97.046.291.13.543.252.754.122.21.297.372.523.486.227.113.52.17.877.17.358 0 .65-.057.877-.17a1.22 1.22 0 0 0 .523-.486c.122-.211.206-.463.252-.755.046-.292.07-.615.07-.97v-3.9h1.36v4.251c0 .673-.112 1.26-.335 1.759-.223.5-.563.887-1.018 1.163-.455.277-1.031.415-1.729.415ZM423.618 46.565v-7.438h1.36v6.227h3.06v1.21zM430.428 46.565v-6.12h-2.104v-1.318h5.568v1.318h-2.104v6.12zM437.79 46.714c-.301 0-.611-.03-.93-.088a7.963 7.963 0 0 1-.887-.213 4.55 4.55 0 0 1-.648-.241l.159-1.445c.248.12.507.232.776.334.269.103.545.186.829.25.283.064.57.096.86.096.362 0 .652-.071.872-.213.22-.142.329-.358.329-.648 0-.223-.062-.403-.186-.54-.124-.136-.313-.258-.568-.366-.256-.108-.581-.231-.978-.37a6.79 6.79 0 0 1-1.068-.47 2.16 2.16 0 0 1-.75-.666c-.183-.27-.275-.613-.275-1.03 0-.412.1-.777.302-1.098.202-.32.504-.572.906-.754.402-.183.903-.274 1.501-.274.454 0 .886.05 1.297.151.41.101.761.21 1.052.327l-.139 1.392a7.755 7.755 0 0 0-1.176-.428 4.337 4.337 0 0 0-1.119-.146c-.396 0-.703.066-.919.197a.645.645 0 0 0-.324.59c0 .209.06.377.18.504.121.128.293.237.516.327.223.09.49.185.802.284.539.17.991.357 1.358.56.366.205.643.45.829.74.185.288.278.645.278 1.07 0 .212-.033.444-.1.693-.068.25-.2.486-.399.71-.198.223-.488.406-.869.55-.38.143-.884.215-1.511.215Z" fill="#8A94A6" fill-rule="nonzero"/><path d="M254.803 78.626v-17.1h6.449c1.653 0 2.88.353 3.682 1.057.802.705 1.204 1.728 1.204 3.072 0 1.001-.226 1.838-.678 2.51-.452.672-1.13 1.162-2.034 1.472v-.587c1.368.294 2.39.83 3.066 1.613.676.781 1.013 1.815 1.013 3.102 0 1.539-.496 2.734-1.49 3.585-.993.85-2.353 1.276-4.079 1.276h-7.133Zm3.127-2.785h3.542c.855 0 1.537-.175 2.046-.525.509-.35.763-.981.763-1.893 0-.928-.269-1.56-.806-1.893-.537-.334-1.205-.501-2.003-.501h-3.542v4.812Zm0-7.597h2.858c.757 0 1.325-.154 1.704-.464.378-.31.568-.806.568-1.49 0-.708-.19-1.215-.568-1.52-.379-.306-.947-.459-1.704-.459h-2.858v3.933ZM275.176 78.87c-1.328 0-2.46-.289-3.396-.867a5.758 5.758 0 0 1-2.143-2.308c-.493-.961-.74-2.012-.74-3.151 0-1.149.247-2.207.74-3.176a5.78 5.78 0 0 1 2.143-2.327c.937-.582 2.068-.873 3.396-.873 1.327 0 2.459.291 3.395.873a5.78 5.78 0 0 1 2.144 2.327c.492.969.739 2.027.739 3.176 0 1.14-.247 2.19-.74 3.15a5.758 5.758 0 0 1-2.143 2.31c-.936.577-2.068.866-3.395.866Zm0-2.491c1.017 0 1.801-.357 2.35-1.07.55-.712.825-1.634.825-2.765 0-1.149-.275-2.083-.824-2.804-.55-.72-1.334-1.08-2.351-1.08-1.01 0-1.792.36-2.345 1.08-.554.721-.83 1.655-.83 2.804 0 1.131.276 2.053.83 2.766.553.712 1.335 1.069 2.345 1.069ZM286.192 78.87a3.704 3.704 0 0 1-1.783-.433 3.239 3.239 0 0 1-1.282-1.252c-.318-.546-.477-1.205-.477-1.979 0-.692.161-1.284.483-1.777a4.088 4.088 0 0 1 1.27-1.234 7.253 7.253 0 0 1 1.71-.781 12.196 12.196 0 0 1 1.82-.422c.598-.09 1.126-.142 1.582-.158-.033-.7-.212-1.21-.538-1.527-.325-.318-.88-.476-1.66-.476a5.67 5.67 0 0 0-1.595.225c-.517.151-1.101.385-1.752.703l-.27-2.467a10.855 10.855 0 0 1 2.205-.806 9.455 9.455 0 0 1 2.242-.27c.912 0 1.697.164 2.357.49.66.325 1.168.848 1.527 1.569.358.72.537 1.671.537 2.852v3.297c0 .611.029 1.053.086 1.326.057.272.162.445.317.519.155.073.379.11.672.11h.39l-.268 2.491h-1.1c-.455 0-.86-.059-1.215-.177a2.754 2.754 0 0 1-.91-.495 2.558 2.558 0 0 1-.61-.745c-.4.448-.939.796-1.618 1.045a6.128 6.128 0 0 1-2.12.372Zm1.27-2.32c.27 0 .603-.072 1.002-.214a3.029 3.029 0 0 0 1.075-.666v-2.784c-.57.024-1.14.118-1.71.28-.57.163-1.046.403-1.429.721-.383.318-.574.717-.574 1.197 0 .497.13.865.39 1.105.261.24.677.36 1.247.36ZM295.72 78.626V66.412h2.833l.073 1.295c.31-.342.745-.684 1.307-1.026a3.48 3.48 0 0 1 1.844-.513c.196 0 .375.016.538.049l-.22 2.98a3.113 3.113 0 0 0-.532-.098 5.602 5.602 0 0 0-.519-.024c-.513 0-.98.118-1.404.354-.424.236-.72.525-.892.867v8.33h-3.029ZM308.397 78.87c-1.238 0-2.278-.289-3.12-.867a5.402 5.402 0 0 1-1.906-2.308c-.427-.961-.641-2.012-.641-3.151 0-1.14.214-2.19.641-3.152a5.402 5.402 0 0 1 1.905-2.308c.843-.578 1.883-.867 3.121-.867.896 0 1.653.148 2.272.446a6.055 6.055 0 0 1 1.636 1.142l-.732.635v-8.135h3.029v18.321h-2.858l-.147-2.076.88.635c-.57.52-1.16.932-1.772 1.233-.61.302-1.38.452-2.308.452Zm.44-2.491c.667 0 1.213-.163 1.636-.489.424-.326.737-.775.94-1.35.204-.574.306-1.24.306-1.996 0-.758-.102-1.423-.305-1.997-.204-.574-.517-1.024-.94-1.35-.424-.326-.97-.489-1.637-.489-.635 0-1.177.163-1.625.489-.448.326-.79.776-1.026 1.35-.236.574-.354 1.24-.354 1.997 0 .757.118 1.422.354 1.996.236.575.578 1.024 1.026 1.35.448.326.99.489 1.625.489ZM323.371 78.626v-17.1h10.944v3.03h-7.744v3.64h6.009v3.029h-6.009v4.372h7.988v3.029zM335.61 78.626l4.054-6.107-4.055-6.107h3.615l2.223 3.542 2.052-3.542h3.615l-4.055 6.107 4.055 6.107H343.5l-2.223-3.542-2.052 3.542zM354.223 78.87c-1.474 0-2.701-.295-3.682-.885-.982-.59-1.717-1.372-2.205-2.345-.489-.973-.733-2.038-.733-3.194 0-1.116.23-2.146.69-3.09a5.572 5.572 0 0 1 2.022-2.278c.887-.574 1.97-.861 3.248-.861 1.173 0 2.15.24 2.932.72a4.575 4.575 0 0 1 1.758 1.924c.391.802.587 1.688.587 2.657 0 .268-.017.539-.05.812a8.64 8.64 0 0 1-.146.849h-7.89c.114.757.352 1.37.715 1.838a3.25 3.25 0 0 0 1.331 1.032c.525.22 1.09.33 1.692.33.708 0 1.368-.092 1.978-.275a7.66 7.66 0 0 0 1.686-.727l.146 2.565c-.464.244-1.042.46-1.734.647-.692.188-1.474.281-2.345.281Zm-3.395-7.719h4.934a3.2 3.2 0 0 0-.208-1.116 2.128 2.128 0 0 0-.69-.944c-.321-.255-.755-.383-1.3-.383-.782 0-1.397.23-1.845.691-.448.46-.745 1.045-.891 1.752ZM366.583 78.87c-1.4 0-2.575-.287-3.523-.86a5.605 5.605 0 0 1-2.15-2.297c-.485-.957-.727-2.013-.727-3.17 0-1.164.24-2.228.72-3.193.481-.965 1.202-1.737 2.163-2.315.96-.578 2.166-.867 3.615-.867.684 0 1.303.075 1.856.226a6.23 6.23 0 0 1 1.417.556l-.244 2.442a6.487 6.487 0 0 0-1.264-.488 5.465 5.465 0 0 0-1.472-.196c-1.172 0-2.08.355-2.724 1.063-.643.708-.964 1.633-.964 2.773 0 1.082.33 1.992.989 2.73.66.736 1.551 1.105 2.675 1.105.48 0 .954-.072 1.423-.214.468-.143.922-.34 1.361-.592l.27 2.564c-.424.22-.935.397-1.534.532a8.594 8.594 0 0 1-1.887.201ZM377.087 78.87c-1.27 0-2.284-.252-3.041-.757-.757-.505-1.303-1.199-1.637-2.082-.334-.884-.5-1.9-.5-3.048v-6.57h3.028v6.57c0 1.132.19 1.973.568 2.522.379.55.996.825 1.85.825.685 0 1.253-.163 1.705-.489.452-.325.828-.781 1.13-1.368l-.538 1.54v-9.6h3.029v12.213h-2.834l-.146-2.125.66.855c-.294.374-.756.72-1.387 1.038-.63.317-1.26.476-1.887.476ZM389.496 78.87c-.765 0-1.388-.157-1.868-.47a2.871 2.871 0 0 1-1.063-1.203 3.57 3.57 0 0 1-.342-1.527v-6.766h-1.734l.268-2.492h1.466v-2.687l3.029-.317v3.004h2.687v2.492h-2.687v5.52c0 .62.037 1.065.11 1.338.073.273.24.444.5.513.261.069.676.104 1.246.104h.831l-.269 2.491h-2.174ZM393.918 78.626V66.412h3.029v12.214h-3.03Zm0-14.07v-3.03h3.029v3.03h-3.03ZM403.127 78.626l-4.69-12.214h2.98l3.005 8.452 3.004-8.452h2.98l-4.69 12.214zM417.563 78.87c-1.473 0-2.7-.295-3.682-.885-.981-.59-1.716-1.372-2.205-2.345-.488-.973-.732-2.038-.732-3.194 0-1.116.23-2.146.69-3.09a5.572 5.572 0 0 1 2.021-2.278c.888-.574 1.97-.861 3.249-.861 1.172 0 2.15.24 2.931.72a4.575 4.575 0 0 1 1.759 1.924c.39.802.586 1.688.586 2.657 0 .268-.016.539-.049.812a8.64 8.64 0 0 1-.146.849h-7.89c.114.757.352 1.37.714 1.838a3.25 3.25 0 0 0 1.332 1.032c.525.22 1.089.33 1.691.33.709 0 1.368-.092 1.979-.275a7.66 7.66 0 0 0 1.685-.727l.147 2.565c-.464.244-1.042.46-1.735.647-.692.188-1.473.281-2.345.281Zm-3.395-7.719h4.934a3.2 3.2 0 0 0-.207-1.116 2.128 2.128 0 0 0-.69-.944c-.322-.255-.756-.383-1.301-.383-.782 0-1.397.23-1.844.691-.448.46-.745 1.045-.892 1.752ZM437.96 78.968c-1.734 0-3.26-.369-4.58-1.105a7.823 7.823 0 0 1-3.084-3.103c-.737-1.331-1.105-2.892-1.105-4.684 0-1.791.38-3.352 1.142-4.684a8.028 8.028 0 0 1 3.145-3.102c1.335-.737 2.862-1.105 4.58-1.105.904 0 1.73.095 2.48.287.749.191 1.396.43 1.941.714l-.342 2.98a12.799 12.799 0 0 0-1.911-.702c-.655-.183-1.386-.275-2.192-.275-1.197 0-2.197.253-2.999.758a4.748 4.748 0 0 0-1.814 2.088c-.407.888-.61 1.901-.61 3.041s.2 2.154.598 3.042a4.696 4.696 0 0 0 1.79 2.088c.793.505 1.78.757 2.961.757.823 0 1.56-.09 2.211-.268.651-.18 1.307-.416 1.966-.709l.342 2.98c-.643.302-1.35.544-2.119.727-.77.183-1.57.275-2.4.275ZM449.93 78.87c-1.327 0-2.46-.289-3.396-.867a5.758 5.758 0 0 1-2.143-2.308c-.493-.961-.74-2.012-.74-3.151 0-1.149.247-2.207.74-3.176a5.78 5.78 0 0 1 2.143-2.327c.937-.582 2.069-.873 3.396-.873s2.459.291 3.395.873a5.78 5.78 0 0 1 2.144 2.327c.492.969.739 2.027.739 3.176 0 1.14-.247 2.19-.74 3.15a5.758 5.758 0 0 1-2.143 2.31c-.936.577-2.068.866-3.395.866Zm0-2.491c1.018 0 1.801-.357 2.35-1.07.55-.712.825-1.634.825-2.765 0-1.149-.274-2.083-.824-2.804-.55-.72-1.333-1.08-2.351-1.08-1.01 0-1.792.36-2.345 1.08-.554.721-.83 1.655-.83 2.804 0 1.131.276 2.053.83 2.766.553.712 1.335 1.069 2.345 1.069ZM458.308 78.626V66.412h2.59l.195 1.783-.44-.537a8.207 8.207 0 0 1 1.668-.995c.647-.298 1.402-.446 2.265-.446.652 0 1.228.095 1.729.287.5.191.93.464 1.288.818.358.354.647.776.867 1.264l-.733-.17c.391-.701.963-1.242 1.716-1.625.754-.383 1.607-.574 2.56-.574 1.123 0 2.039.232 2.747.696.709.464 1.23 1.118 1.564 1.96.334.843.5 1.83.5 2.962v6.791h-3.029v-6.571c0-1.14-.177-1.983-.53-2.528-.355-.546-.943-.819-1.766-.819-.407 0-.763.072-1.068.214a1.94 1.94 0 0 0-.758.623c-.2.273-.348.603-.446.99-.097.386-.146.82-.146 1.3v6.791h-3.03v-6.571c0-.757-.078-1.384-.237-1.88-.159-.498-.411-.866-.758-1.106-.346-.24-.795-.36-1.35-.36-.708 0-1.288.164-1.74.494-.451.33-.848.776-1.19 1.337l.561-1.636v9.722h-3.029ZM479.536 78.626V66.412h2.59l.195 1.783-.44-.537a8.207 8.207 0 0 1 1.667-.995c.647-.298 1.403-.446 2.266-.446.651 0 1.227.095 1.728.287.5.191.93.464 1.289.818.358.354.647.776.867 1.264l-.733-.17c.39-.701.963-1.242 1.716-1.625s1.606-.574 2.559-.574c1.123 0 2.04.232 2.748.696.708.464 1.23 1.118 1.563 1.96.334.843.5 1.83.5 2.962v6.791h-3.028v-6.571c0-1.14-.177-1.983-.531-2.528-.355-.546-.943-.819-1.765-.819-.407 0-.764.072-1.069.214a1.94 1.94 0 0 0-.757.623c-.2.273-.348.603-.446.99-.098.386-.147.82-.147 1.3v6.791h-3.029v-6.571c0-.757-.079-1.384-.238-1.88-.159-.498-.411-.866-.757-1.106-.346-.24-.796-.36-1.35-.36-.708 0-1.288.164-1.74.494-.452.33-.849.776-1.191 1.337l.562-1.636v9.722h-3.03ZM500.763 78.626V66.412h3.03v12.214h-3.03Zm0-14.07v-3.03h3.03v3.03h-3.03ZM510.608 78.87c-.766 0-1.389-.157-1.87-.47a2.871 2.871 0 0 1-1.062-1.203 3.57 3.57 0 0 1-.342-1.527v-6.766H505.6l.269-2.492h1.465v-2.687l3.03-.317v3.004h2.686v2.492h-2.687v5.52c0 .62.037 1.065.11 1.338.074.273.24.444.501.513.26.069.676.104 1.246.104h.83l-.268 2.491h-2.174ZM519.01 78.87c-.765 0-1.388-.157-1.868-.47a2.871 2.871 0 0 1-1.063-1.203 3.57 3.57 0 0 1-.342-1.527v-6.766h-1.734l.269-2.492h1.465v-2.687l3.03-.317v3.004h2.686v2.492h-2.687v5.52c0 .62.037 1.065.11 1.338.074.273.24.444.501.513.26.069.676.104 1.246.104h.83l-.268 2.491h-2.174ZM529.221 78.87c-1.473 0-2.7-.295-3.682-.885-.981-.59-1.716-1.372-2.205-2.345-.488-.973-.732-2.038-.732-3.194 0-1.116.23-2.146.69-3.09a5.572 5.572 0 0 1 2.021-2.278c.888-.574 1.97-.861 3.249-.861 1.172 0 2.15.24 2.931.72a4.575 4.575 0 0 1 1.759 1.924c.39.802.586 1.688.586 2.657 0 .268-.016.539-.049.812a8.64 8.64 0 0 1-.146.849h-7.89c.114.757.352 1.37.714 1.838a3.25 3.25 0 0 0 1.331 1.032c.526.22 1.09.33 1.692.33.708 0 1.368-.092 1.979-.275a7.66 7.66 0 0 0 1.685-.727l.147 2.565c-.464.244-1.042.46-1.735.647-.692.188-1.473.281-2.345.281Zm-3.395-7.719h4.934a3.2 3.2 0 0 0-.207-1.116 2.128 2.128 0 0 0-.69-.944c-.322-.255-.756-.383-1.301-.383-.782 0-1.397.23-1.844.691-.448.46-.745 1.045-.892 1.752ZM541.802 78.87c-1.474 0-2.702-.295-3.683-.885-.981-.59-1.716-1.372-2.204-2.345-.489-.973-.733-2.038-.733-3.194 0-1.116.23-2.146.69-3.09a5.572 5.572 0 0 1 2.021-2.278c.888-.574 1.97-.861 3.249-.861 1.173 0 2.15.24 2.931.72a4.575 4.575 0 0 1 1.76 1.924c.39.802.585 1.688.585 2.657 0 .268-.016.539-.049.812a8.64 8.64 0 0 1-.146.849h-7.89c.114.757.352 1.37.714 1.838a3.25 3.25 0 0 0 1.332 1.032c.525.22 1.089.33 1.691.33.709 0 1.368-.092 1.979-.275a7.66 7.66 0 0 0 1.685-.727l.147 2.565c-.464.244-1.042.46-1.734.647-.693.188-1.474.281-2.345.281Zm-3.396-7.719h4.934a3.2 3.2 0 0 0-.207-1.116 2.128 2.128 0 0 0-.69-.944c-.322-.255-.755-.383-1.301-.383-.782 0-1.396.23-1.844.691-.448.46-.745 1.045-.892 1.752Z" fill="#0A1F44" fill-rule="nonzero"/><path d="M332.796 249.618v-7.438h2.72c.514 0 .963.082 1.347.245.384.162.683.41.895.743.213.333.319.755.319 1.265 0 .545-.116.978-.348 1.299-.232.32-.538.575-.917.762l1.68 3.124h-1.52l-1.435-2.762h-1.381v2.762h-1.36Zm1.36-3.9h.999c.56 0 .949-.114 1.169-.342.22-.229.329-.518.329-.869 0-.372-.108-.663-.324-.874-.216-.21-.59-.316-1.121-.316h-1.052v2.402ZM340.211 249.618v-7.438h4.76v1.318h-3.368v1.583h2.614v1.318h-2.614v1.902h3.475v1.317zM349.167 249.767c-.301 0-.611-.03-.93-.088a7.963 7.963 0 0 1-.887-.212 4.55 4.55 0 0 1-.648-.242l.16-1.445c.247.12.506.232.775.335.27.102.545.186.829.25.283.063.57.095.86.095.362 0 .652-.07.872-.212.22-.142.33-.358.33-.649 0-.223-.063-.403-.187-.539s-.313-.258-.568-.366c-.255-.109-.581-.232-.978-.37a6.79 6.79 0 0 1-1.068-.47 2.16 2.16 0 0 1-.749-.667c-.184-.269-.276-.612-.276-1.03 0-.411.1-.777.303-1.098.202-.32.503-.572.905-.754.402-.182.903-.274 1.501-.274.454 0 .886.05 1.297.152.41.1.761.21 1.052.327l-.138 1.392a7.755 7.755 0 0 0-1.177-.428 4.337 4.337 0 0 0-1.119-.146c-.396 0-.703.065-.919.196a.645.645 0 0 0-.324.59c0 .21.06.377.18.505.121.127.293.236.516.327.223.09.49.185.802.284.539.17.991.357 1.358.56.366.204.643.45.829.739.186.288.279.645.279 1.07 0 .213-.034.444-.101.694-.068.25-.2.486-.399.709-.198.223-.488.406-.868.55-.381.143-.885.215-1.512.215ZM356.933 249.767c-.698 0-1.274-.138-1.73-.414a2.537 2.537 0 0 1-1.017-1.164c-.223-.5-.335-1.085-.335-1.758v-4.25h1.36v3.899c0 .354.023.677.07.97.046.292.13.543.252.754.122.21.297.373.523.486.227.113.52.17.877.17.358 0 .65-.057.877-.17a1.22 1.22 0 0 0 .523-.486c.122-.21.206-.462.252-.755.046-.292.07-.615.07-.97v-3.899h1.36v4.25c0 .674-.112 1.26-.335 1.76-.223.499-.563.886-1.018 1.163-.455.276-1.031.414-1.73.414ZM362.33 249.618v-7.438h1.36v6.227h3.06v1.211zM369.139 249.618v-6.12h-2.104v-1.318h5.568v1.318h-2.104v6.12zM376.5 249.767c-.3 0-.61-.03-.929-.088a7.963 7.963 0 0 1-.887-.212 4.55 4.55 0 0 1-.648-.242l.159-1.445c.248.12.506.232.776.335.269.102.545.186.828.25.284.063.57.095.861.095.361 0 .652-.07.871-.212.22-.142.33-.358.33-.649 0-.223-.062-.403-.186-.539s-.314-.258-.569-.366c-.255-.109-.58-.232-.977-.37a6.79 6.79 0 0 1-1.068-.47 2.16 2.16 0 0 1-.75-.667c-.183-.269-.275-.612-.275-1.03 0-.411.1-.777.302-1.098.202-.32.504-.572.906-.754.402-.182.903-.274 1.501-.274.453 0 .886.05 1.296.152.411.1.762.21 1.052.327l-.138 1.392a7.755 7.755 0 0 0-1.177-.428 4.337 4.337 0 0 0-1.118-.146c-.397 0-.703.065-.919.196a.645.645 0 0 0-.324.59c0 .21.06.377.18.505.12.127.293.236.516.327.223.09.49.185.802.284.539.17.991.357 1.358.56.366.204.642.45.828.739.186.288.28.645.28 1.07 0 .213-.034.444-.102.694-.067.25-.2.486-.398.709-.198.223-.488.406-.869.55-.38.143-.884.215-1.511.215ZM386.252 249.618l-2.646-7.438h1.371l2.051 5.866h-.277l2.062-5.866h1.37l-2.645 7.438zM391.765 242.18h1.36v7.438h-1.36zM397.682 249.767c-.301 0-.611-.03-.93-.088a7.963 7.963 0 0 1-.887-.212 4.55 4.55 0 0 1-.648-.242l.16-1.445c.247.12.506.232.775.335.27.102.545.186.829.25.283.063.57.095.86.095.362 0 .652-.07.872-.212.22-.142.33-.358.33-.649 0-.223-.063-.403-.187-.539s-.313-.258-.568-.366c-.255-.109-.581-.232-.978-.37a6.79 6.79 0 0 1-1.068-.47 2.16 2.16 0 0 1-.749-.667c-.184-.269-.276-.612-.276-1.03 0-.411.1-.777.303-1.098.202-.32.503-.572.905-.754.403-.182.903-.274 1.501-.274.454 0 .886.05 1.297.152.41.1.761.21 1.052.327l-.138 1.392a7.755 7.755 0 0 0-1.177-.428 4.337 4.337 0 0 0-1.119-.146c-.396 0-.703.065-.919.196a.645.645 0 0 0-.324.59c0 .21.06.377.18.505.121.127.293.236.516.327.223.09.49.185.802.284.539.17.991.357 1.358.56.366.204.643.45.829.739.186.288.279.645.279 1.07 0 .213-.034.444-.101.694-.068.25-.2.486-.399.709-.198.223-.488.406-.868.55-.381.143-.885.215-1.512.215ZM405.448 249.767c-.698 0-1.274-.138-1.73-.414a2.537 2.537 0 0 1-1.017-1.164c-.223-.5-.335-1.085-.335-1.758v-4.25h1.36v3.899c0 .354.024.677.07.97.046.292.13.543.252.754.122.21.297.373.523.486.227.113.52.17.877.17.358 0 .65-.057.877-.17a1.22 1.22 0 0 0 .523-.486c.122-.21.206-.462.252-.755.046-.292.07-.615.07-.97v-3.899h1.36v4.25c0 .674-.112 1.26-.335 1.76-.223.499-.563.886-1.018 1.163-.455.276-1.031.414-1.73.414ZM414.723 247.854h-3.114v-1.19h3.114v1.19Zm-1.732-4.346h.35l-2.146 6.11h-1.318l2.646-7.438h1.286l2.646 7.438h-1.318l-2.146-6.11ZM418.068 249.618v-7.438h1.36v6.227h3.06v1.211zM424.144 242.18h1.36v7.438h-1.36zM427.171 249.618l3.804-6.652.234.425h-3.56v-1.21h5.186l-3.804 6.651-.234-.425h3.985v1.211zM438.55 247.854h-3.114v-1.19h3.114v1.19Zm-1.732-4.346h.35l-2.146 6.11h-1.318l2.646-7.438h1.286l2.646 7.438h-1.318l-2.146-6.11ZM442.767 249.618v-6.12h-2.104v-1.318h5.568v1.318h-2.104v6.12zM447.972 242.18h1.36v7.438h-1.36zM454.951 249.767c-.708 0-1.339-.16-1.891-.48a3.41 3.41 0 0 1-1.302-1.35c-.315-.58-.473-1.259-.473-2.038 0-.779.158-1.458.473-2.037a3.41 3.41 0 0 1 1.302-1.35c.552-.32 1.183-.48 1.891-.48.709 0 1.339.16 1.892.48.552.32.986.77 1.301 1.35.315.579.473 1.258.473 2.037 0 .78-.158 1.459-.473 2.038a3.41 3.41 0 0 1-1.301 1.35c-.553.32-1.183.48-1.892.48Zm0-1.318c.496 0 .91-.11 1.243-.329.333-.22.583-.521.75-.906a3.28 3.28 0 0 0 .25-1.315c0-.492-.084-.93-.25-1.315a2.018 2.018 0 0 0-.75-.906c-.333-.22-.747-.329-1.243-.329-.496 0-.91.11-1.243.33-.333.219-.583.521-.75.905a3.28 3.28 0 0 0-.249 1.315c0 .493.083.93.25 1.315.166.385.416.686.749.906.333.22.747.33 1.243.33ZM460.57 249.618v-7.438h1.34l3.177 4.803v-4.803h1.36v7.438h-1.116l-3.4-5.1v5.1z" fill="#8A94A6" fill-rule="nonzero"/></g></g><g transform="translate(70.229 356.29)"><mask id="f" fill="white"><use xlink:href="#e"/></mask><g mask="url(#f)"><path d="m12.8 186.26 1.148-8.55h.989l2.248 4.238 2.223-4.238h1.001l1.136 8.55h-1.221l-.868-6.974.306.048-2.565 4.898-2.614-4.898.306-.048-.868 6.974zM22.754 186.26v-5.985h1.222v5.985h-1.222Zm0-7.329v-1.221h1.222v1.221h-1.222ZM27.041 186.382c-.529 0-.968-.063-1.316-.19-.348-.126-.593-.238-.736-.336l.135-1.062c.13.114.36.244.69.39.33.147.722.22 1.178.22.387 0 .683-.065.889-.195a.616.616 0 0 0 .308-.55.67.67 0 0 0-.198-.503 1.472 1.472 0 0 0-.476-.306 4.712 4.712 0 0 0-.523-.18 8.516 8.516 0 0 1-.845-.278 1.866 1.866 0 0 1-.736-.503c-.2-.224-.3-.538-.3-.94 0-.306.074-.596.22-.871.147-.275.385-.498.715-.669.33-.17.767-.256 1.313-.256.399 0 .723.041.974.125.25.083.467.172.65.266l-.134 1.001a2.523 2.523 0 0 0-.61-.372c-.233-.102-.518-.153-.856-.153-.342 0-.62.064-.836.192-.216.128-.324.333-.324.614 0 .28.115.48.345.598.23.118.58.249 1.047.391.147.041.317.1.51.177.194.078.382.182.565.312.183.13.335.3.455.51.12.21.18.471.18.784 0 .265-.063.535-.19.81-.125.274-.353.505-.683.693-.33.187-.8.28-1.41.28ZM32.464 186.382c-.379 0-.682-.07-.91-.208a1.252 1.252 0 0 1-.498-.534 1.578 1.578 0 0 1-.155-.687v-3.823h-1.026l.098-.855h.928v-1.478l1.099-.11v1.588h1.576v.855H32v3.15c0 .384.022.66.067.831a.427.427 0 0 0 .333.324c.177.045.463.067.858.067h.28l-.085.88h-.989ZM34.967 189.215l1.381-3.224-2.492-5.716h1.221l1.87 4.446 1.685-4.446h1.221l-3.664 8.94zM46.107 186.43a7.18 7.18 0 0 1-1.063-.079 8.263 8.263 0 0 1-.983-.204 4.832 4.832 0 0 1-.751-.266l.159-1.234c.22.106.485.216.797.33.311.114.648.21 1.01.287a5.25 5.25 0 0 0 1.1.116c.55 0 .986-.1 1.31-.302.323-.202.485-.516.485-.944 0-.321-.081-.585-.244-.79-.163-.206-.408-.382-.736-.529a10.188 10.188 0 0 0-1.23-.44 8.694 8.694 0 0 1-1.295-.491 2.513 2.513 0 0 1-.95-.763c-.238-.32-.357-.744-.357-1.274a2.1 2.1 0 0 1 .35-1.2c.235-.348.579-.62 1.033-.815.454-.195 1.01-.293 1.67-.293a6.15 6.15 0 0 1 1.548.183c.47.122.858.257 1.164.403L49 179.36a5.534 5.534 0 0 0-1.328-.593 4.832 4.832 0 0 0-1.31-.177c-.5 0-.915.094-1.242.281-.328.188-.492.493-.492.916 0 .285.073.518.22.7.146.18.364.335.653.464.29.128.65.257 1.081.387.595.18 1.106.384 1.533.614.427.23.755.513.983.849.228.336.342.752.342 1.249 0 .366-.069.696-.207.99a2 2 0 0 1-.623.75 2.985 2.985 0 0 1-1.042.477c-.417.11-.904.165-1.462.165ZM51.957 186.382a2 2 0 0 1-.97-.226 1.635 1.635 0 0 1-.645-.617 1.73 1.73 0 0 1-.23-.892c0-.338.075-.628.224-.87.148-.242.348-.444.598-.604.25-.161.53-.29.84-.385.31-.096.63-.165.962-.208.332-.043.65-.066.956-.07 0-.57-.112-.943-.336-1.118-.224-.175-.548-.262-.971-.262a2.74 2.74 0 0 0-.718.104c-.254.069-.54.213-.858.433l-.159-.891c.24-.184.54-.333.898-.45a3.644 3.644 0 0 1 1.13-.173c.505 0 .912.088 1.221.265.31.177.536.476.678.895.143.42.214.99.214 1.71v1.221c0 .285.013.52.04.706.026.185.087.323.183.415.095.091.25.137.46.137h.11l-.17.88h-.086c-.354 0-.628-.035-.821-.104a.95.95 0 0 1-.443-.3 2.188 2.188 0 0 1-.275-.476c-.224.26-.488.473-.794.635a2.171 2.171 0 0 1-1.038.245Zm.208-.88c.293 0 .577-.073.852-.22.275-.146.5-.342.675-.586v-1.429c-.583.02-1.054.078-1.414.171-.36.094-.624.234-.791.422-.167.187-.25.43-.25.726 0 .322.086.555.26.7.172.144.395.216.668.216ZM56.427 186.26v-5.985h.855l.22 1.148-.427-.183c.403-.448.797-.741 1.181-.88.385-.138.76-.207 1.127-.207.875 0 1.501.252 1.878.757s.565 1.189.565 2.052v3.298h-1.1v-3.298c0-.635-.117-1.1-.354-1.393-.236-.293-.639-.44-1.209-.44a2.34 2.34 0 0 0-1.108.266 1.298 1.298 0 0 0-.663.846l.135-.672v4.69h-1.1ZM65.624 186.382c-.509 0-.969-.139-1.38-.416a2.956 2.956 0 0 1-.98-1.117 3.364 3.364 0 0 1-.363-1.57c0-.55.11-1.062.333-1.539.221-.476.536-.86.943-1.15.407-.292.89-.437 1.447-.437.4 0 .785.086 1.158.26.372.172.674.46.907.863l-.233.16v-4.337h1.1v9.16h-.977l-.208-1.27.28.196c-.174.395-.449.693-.824.894a2.5 2.5 0 0 1-1.203.303Zm.196-.977c.277 0 .55-.072.821-.214.27-.143.495-.37.672-.681.177-.312.266-.722.266-1.23 0-.473-.089-.869-.266-1.188a1.86 1.86 0 0 0-.672-.721 1.593 1.593 0 0 0-.821-.241c-.375 0-.696.093-.965.28a1.789 1.789 0 0 0-.617.767 2.71 2.71 0 0 0-.214 1.102c0 .387.072.741.214 1.063.143.322.348.58.617.773.269.193.59.29.965.29ZM72.904 186.382c-.705 0-1.297-.145-1.777-.434a2.847 2.847 0 0 1-1.09-1.151 3.397 3.397 0 0 1-.37-1.579c0-.557.115-1.068.345-1.533.23-.464.564-.835 1.002-1.114.437-.279.966-.418 1.584-.418.497 0 .94.098 1.329.296.388.197.694.484.916.86.222.378.333.835.333 1.372 0 .085-.004.178-.01.278-.006.1-.019.202-.04.308h-4.335c.053.554.185.985.397 1.295.211.31.478.527.8.653.321.126.671.19 1.05.19.277 0 .566-.029.867-.086.302-.057.587-.146.855-.269l.147.868a8.232 8.232 0 0 1-.849.308 3.891 3.891 0 0 1-1.154.156Zm-2.016-3.872h3.152c0-.281-.053-.525-.16-.733a1.088 1.088 0 0 0-.482-.48c-.215-.111-.49-.167-.824-.167-.489 0-.864.12-1.127.363-.262.242-.449.581-.559 1.017ZM76.287 186.26v-5.985h.904l.134.99c.305-.38.598-.66.876-.84.28-.182.578-.272.895-.272.102 0 .196.012.281.036l-.11 1.21a1.377 1.377 0 0 0-.168-.028 1.943 1.943 0 0 0-.198-.01c-.318 0-.61.071-.877.212-.266.14-.455.294-.565.46v4.227h-1.172ZM81.844 186.382c-.529 0-.968-.063-1.316-.19-.348-.126-.593-.238-.736-.336l.135-1.062c.13.114.36.244.69.39.33.147.722.22 1.178.22.387 0 .683-.065.889-.195a.616.616 0 0 0 .308-.55.67.67 0 0 0-.198-.503 1.472 1.472 0 0 0-.477-.306 4.712 4.712 0 0 0-.522-.18 8.516 8.516 0 0 1-.845-.278 1.866 1.866 0 0 1-.736-.503c-.2-.224-.3-.538-.3-.94 0-.306.074-.596.22-.871.147-.275.385-.498.715-.669.33-.17.767-.256 1.313-.256.399 0 .723.041.974.125.25.083.467.172.65.266l-.134 1.001a2.523 2.523 0 0 0-.61-.372c-.233-.102-.518-.153-.856-.153-.342 0-.62.064-.836.192-.216.128-.324.333-.324.614 0 .28.115.48.345.598.23.118.58.249 1.047.391.147.041.317.1.51.177.194.078.382.182.565.312.183.13.335.3.455.51.12.21.18.471.18.784 0 .265-.063.535-.19.81-.125.274-.353.505-.683.693-.33.187-.8.28-1.41.28ZM87.902 181.765h3.786v1.22h-3.786zM99.395 186.43c-.753 0-1.398-.193-1.936-.58-.537-.386-.95-.92-1.236-1.6-.287-.68-.43-1.46-.43-2.339s.152-1.646.457-2.302c.306-.655.729-1.164 1.27-1.527.542-.362 1.167-.543 1.875-.543.725 0 1.357.181 1.897.543.539.363.958.872 1.258 1.527.299.656.448 1.423.448 2.302 0 .88-.142 1.66-.427 2.34-.285.68-.696 1.213-1.234 1.6-.537.386-1.184.58-1.942.58Zm0-1.05c.505 0 .934-.134 1.286-.403s.62-.661.806-1.179c.185-.517.278-1.146.278-1.887 0-1.111-.215-1.943-.644-2.494-.43-.552-1.005-.828-1.726-.828-.684 0-1.25.276-1.697.828-.448.551-.672 1.383-.672 2.494 0 .741.092 1.37.278 1.887.185.518.454.91.806 1.18.352.268.78.402 1.285.402ZM17.808 237.557h-3.664v-1.221h3.664v1.221Zm-2.003-5.276h.342l-2.626 7.414h-1.222l3.066-8.55h1.221l3.066 8.55H18.43l-2.626-7.414ZM21.936 239.817c-.387 0-.693-.07-.92-.21a1.212 1.212 0 0 1-.485-.541 1.68 1.68 0 0 1-.146-.69v-7.842h1.099v7.206c0 .342.022.599.067.77.045.17.136.285.272.342.136.057.345.085.626.085l-.159.88h-.354ZM26.223 239.817c-.42 0-.826-.101-1.218-.302a1.663 1.663 0 0 1-.822-.895l.269-.196-.208 1.27h-.977v-9.16h1.1v4.348l-.233-.17c.204-.33.495-.6.874-.81a2.47 2.47 0 0 1 1.215-.314c.558 0 1.038.145 1.441.436.403.292.714.674.931 1.149.218.474.327.984.327 1.53a3.42 3.42 0 0 1-.36 1.578c-.24.47-.564.844-.971 1.12a2.378 2.378 0 0 1-1.368.416Zm-.134-.977c.35 0 .653-.097.91-.29.256-.194.453-.452.592-.776.138-.324.207-.68.207-1.072 0-.407-.069-.771-.207-1.093a1.804 1.804 0 0 0-.593-.763 1.501 1.501 0 0 0-.91-.281 1.72 1.72 0 0 0-.876.235c-.27.157-.49.393-.656.708-.167.316-.25.714-.25 1.194 0 .501.083.908.25 1.222.167.313.385.544.656.693.27.148.563.223.877.223ZM32.928 239.817c-.704 0-1.296-.145-1.777-.434a2.847 2.847 0 0 1-1.09-1.15 3.397 3.397 0 0 1-.37-1.58c0-.557.116-1.068.346-1.532.23-.465.563-.836 1.001-1.115.438-.279.966-.418 1.585-.418.497 0 .94.099 1.328.296.389.197.694.484.916.861.222.377.333.834.333 1.371 0 .086-.003.178-.01.278-.005.1-.019.202-.039.308h-4.336c.053.554.185.986.397 1.295.212.31.479.527.8.653.322.127.672.19 1.05.19.277 0 .566-.029.868-.086.301-.057.586-.146.855-.269l.146.868a8.232 8.232 0 0 1-.849.308 3.891 3.891 0 0 1-1.154.156Zm-2.015-3.872h3.151c0-.28-.053-.525-.159-.733a1.088 1.088 0 0 0-.482-.48c-.216-.111-.49-.167-.825-.167-.488 0-.864.121-1.126.363-.263.242-.45.581-.559 1.017ZM36.311 239.695v-5.985h.904l.135.99c.305-.38.597-.66.876-.84.279-.182.577-.272.895-.272.101 0 .195.012.28.036l-.11 1.21a1.377 1.377 0 0 0-.167-.028 1.943 1.943 0 0 0-.199-.01c-.317 0-.61.071-.876.212-.267.14-.455.294-.565.46v4.227H36.31ZM42.235 239.817c-.379 0-.682-.07-.91-.208a1.252 1.252 0 0 1-.498-.534 1.578 1.578 0 0 1-.155-.687v-3.823h-1.026l.097-.855h.929v-1.478l1.099-.11v1.588h1.576v.855H41.77v3.151c0 .383.022.66.067.83a.427.427 0 0 0 .333.324c.177.045.463.067.858.067h.28l-.085.88h-.989ZM49.71 239.866a7.18 7.18 0 0 1-1.063-.08 8.263 8.263 0 0 1-.983-.204 4.832 4.832 0 0 1-.751-.266l.159-1.234c.22.106.485.216.797.33.311.114.648.21 1.01.287a5.25 5.25 0 0 0 1.1.116c.55 0 .986-.1 1.31-.302.323-.202.485-.516.485-.944 0-.321-.081-.585-.244-.79-.163-.206-.408-.382-.736-.529a10.188 10.188 0 0 0-1.23-.44 8.694 8.694 0 0 1-1.295-.49 2.513 2.513 0 0 1-.95-.764c-.238-.32-.357-.744-.357-1.274a2.1 2.1 0 0 1 .35-1.2c.235-.348.579-.62 1.033-.815.454-.195 1.01-.293 1.67-.293a6.15 6.15 0 0 1 1.548.183c.47.122.858.257 1.164.403l-.122 1.234a5.534 5.534 0 0 0-1.329-.592 4.832 4.832 0 0 0-1.31-.178c-.5 0-.915.094-1.242.281-.328.188-.492.493-.492.916 0 .285.073.518.22.7.146.18.364.335.653.464.29.128.65.257 1.081.388.595.179 1.106.383 1.533.613.428.23.755.513.983.85.228.335.342.751.342 1.248 0 .366-.069.696-.207.99a2 2 0 0 1-.623.75 2.985 2.985 0 0 1-1.042.477c-.417.11-.904.165-1.462.165ZM55.56 239.817a2 2 0 0 1-.97-.226 1.635 1.635 0 0 1-.645-.617 1.73 1.73 0 0 1-.229-.892c0-.337.074-.628.223-.87.148-.242.348-.444.598-.604.25-.161.53-.29.84-.385.31-.096.63-.165.962-.208.332-.042.65-.066.956-.07 0-.57-.112-.942-.336-1.118-.224-.175-.548-.262-.971-.262a2.74 2.74 0 0 0-.718.104c-.254.069-.54.213-.858.433l-.159-.891c.24-.184.54-.333.898-.45a3.644 3.644 0 0 1 1.13-.173c.505 0 .912.088 1.221.265.31.178.536.476.678.895.143.42.214.99.214 1.71v1.221c0 .285.013.52.04.706.026.185.087.323.183.415.095.092.25.137.46.137h.11l-.17.88h-.086c-.354 0-.628-.035-.821-.104a.95.95 0 0 1-.443-.3 2.188 2.188 0 0 1-.275-.476c-.224.261-.488.473-.794.636a2.171 2.171 0 0 1-1.038.244Zm.208-.88c.293 0 .577-.073.852-.22.275-.146.5-.341.675-.586v-1.429c-.583.02-1.054.078-1.414.171-.36.094-.624.234-.791.422-.167.187-.25.43-.25.726 0 .322.086.555.26.7.172.144.395.216.668.216ZM60.03 239.695v-5.985h.855l.22 1.148-.427-.183c.403-.448.797-.741 1.181-.88.385-.138.76-.207 1.127-.207.876 0 1.501.252 1.878.757s.565 1.189.565 2.052v3.298h-1.1v-3.298c0-.635-.117-1.1-.353-1.392-.237-.294-.64-.44-1.21-.44a2.34 2.34 0 0 0-1.108.266 1.298 1.298 0 0 0-.663.845l.135-.671v4.69h-1.1ZM68.824 239.817c-.378 0-.682-.07-.91-.208a1.252 1.252 0 0 1-.497-.534 1.578 1.578 0 0 1-.156-.687v-3.823h-1.026l.098-.855h.928v-1.478l1.1-.11v1.588h1.575v.855H68.36v3.151c0 .383.023.66.067.83a.427.427 0 0 0 .333.324c.177.045.463.067.858.067h.281l-.085.88h-.99ZM73.441 239.817c-.627 0-1.161-.14-1.603-.419a2.757 2.757 0 0 1-1.014-1.123 3.48 3.48 0 0 1-.35-1.573c0-.578.116-1.102.35-1.572.234-.47.572-.845 1.014-1.124.442-.279.976-.418 1.603-.418.623 0 1.156.14 1.6.418a2.75 2.75 0 0 1 1.017 1.124c.234.47.351.994.351 1.572a3.48 3.48 0 0 1-.351 1.573 2.75 2.75 0 0 1-1.017 1.123c-.444.28-.977.419-1.6.419Zm0-.977c.595 0 1.05-.189 1.368-.565.318-.377.476-.901.476-1.573 0-.671-.158-1.196-.476-1.572-.317-.377-.773-.565-1.368-.565-.59 0-1.045.188-1.365.565-.32.376-.48.9-.48 1.572s.16 1.196.48 1.573c.32.376.775.565 1.365.565ZM79.243 239.817c-.53 0-.968-.063-1.316-.19-.348-.126-.594-.238-.736-.335l.134-1.063c.13.114.36.244.69.39.33.147.723.22 1.179.22.387 0 .683-.064.888-.195a.616.616 0 0 0 .309-.55.67.67 0 0 0-.199-.503 1.472 1.472 0 0 0-.476-.306 4.712 4.712 0 0 0-.522-.18 8.516 8.516 0 0 1-.846-.278 1.866 1.866 0 0 1-.736-.503c-.2-.224-.3-.538-.3-.94 0-.306.074-.596.22-.871.147-.275.385-.498.715-.669.33-.17.768-.256 1.313-.256.4 0 .724.042.974.125.25.083.467.172.65.266l-.134 1.001a2.523 2.523 0 0 0-.61-.372c-.232-.102-.517-.153-.855-.153-.342 0-.621.064-.837.192-.216.129-.324.333-.324.614 0 .281.115.48.345.599.23.118.58.248 1.048.39.146.041.316.1.51.177.193.078.381.182.565.312.183.13.334.3.455.51.12.21.18.471.18.785 0 .264-.063.534-.19.809-.126.275-.354.506-.684.693-.33.187-.8.28-1.41.28ZM85.3 235.2h3.787v1.221H85.3zM96.794 239.866c-.753 0-1.399-.194-1.936-.58-.538-.387-.95-.92-1.237-1.6-.287-.68-.43-1.46-.43-2.34 0-.879.152-1.646.458-2.302.305-.655.728-1.164 1.27-1.526.541-.363 1.166-.544 1.875-.544.724 0 1.357.181 1.896.544.54.362.959.87 1.258 1.526.3.656.449 1.423.449 2.303 0 .879-.143 1.659-.428 2.338-.285.68-.696 1.214-1.233 1.6-.538.387-1.185.58-1.942.58Zm0-1.05c.505 0 .933-.135 1.285-.404.352-.268.621-.661.806-1.178.186-.517.278-1.146.278-1.887 0-1.112-.215-1.943-.644-2.495-.43-.552-1.005-.828-1.725-.828-.684 0-1.25.276-1.698.828-.448.552-.672 1.383-.672 2.495 0 .74.093 1.37.278 1.887.185.517.454.91.806 1.178.352.269.78.403 1.286.403ZM17.002 300.934c-.831 0-1.571-.182-2.22-.546a3.94 3.94 0 0 1-1.533-1.545c-.373-.666-.559-1.45-.559-2.354 0-.904.188-1.689.565-2.355a3.958 3.958 0 0 1 1.551-1.545c.658-.364 1.406-.546 2.244-.546.436 0 .851.047 1.246.14a4.91 4.91 0 0 1 1.038.36l-.122 1.075a6.095 6.095 0 0 0-1.007-.372 4.34 4.34 0 0 0-1.167-.153c-.672 0-1.235.152-1.691.455a2.868 2.868 0 0 0-1.036 1.225 4.086 4.086 0 0 0-.35 1.716c0 .63.114 1.203.344 1.716.23.513.572.92 1.026 1.224.454.303 1.015.455 1.683.455.423 0 .815-.046 1.175-.137.36-.092.702-.217 1.023-.376l.122 1.075a5.49 5.49 0 0 1-2.333.489ZM22.925 300.885c-.627 0-1.161-.139-1.603-.418a2.757 2.757 0 0 1-1.014-1.123 3.48 3.48 0 0 1-.35-1.573c0-.578.116-1.102.35-1.573.234-.47.572-.844 1.014-1.123.442-.28.976-.419 1.603-.419.623 0 1.156.14 1.6.419a2.75 2.75 0 0 1 1.017 1.123c.234.47.351.995.351 1.573a3.48 3.48 0 0 1-.351 1.573 2.75 2.75 0 0 1-1.017 1.123c-.444.28-.977.418-1.6.418Zm0-.977c.595 0 1.05-.188 1.368-.564.318-.377.476-.901.476-1.573 0-.672-.158-1.196-.476-1.573-.317-.376-.773-.564-1.368-.564-.59 0-1.045.188-1.365.564-.32.377-.48.901-.48 1.573 0 .672.16 1.196.48 1.573.32.376.775.564 1.365.564ZM27.029 300.763v-5.984h.904l.134.989c.306-.379.598-.659.876-.84.28-.18.578-.272.895-.272.102 0 .196.013.281.037l-.11 1.21a1.377 1.377 0 0 0-.168-.028 1.943 1.943 0 0 0-.198-.01c-.318 0-.61.07-.877.211-.266.14-.455.294-.564.461v4.226h-1.173ZM31.34 303.719l1.381-3.224-2.492-5.716h1.221l1.869 4.446 1.686-4.446h1.221l-3.664 8.94zM43.725 300.934c-.79 0-1.501-.182-2.134-.546a3.942 3.942 0 0 1-1.502-1.548c-.369-.668-.553-1.456-.553-2.364 0-.9.19-1.681.57-2.345a3.983 3.983 0 0 1 1.57-1.542c.666-.364 1.426-.546 2.281-.546a6.267 6.267 0 0 1 2.406.489l-.11 1.013a7.526 7.526 0 0 0-1.062-.324 5.368 5.368 0 0 0-1.197-.128c-.729 0-1.328.152-1.799.455-.47.303-.819.712-1.047 1.225a4.18 4.18 0 0 0-.342 1.716c0 .65.116 1.232.348 1.743a2.7 2.7 0 0 0 1.069 1.21c.48.294 1.091.442 1.832.442.183 0 .411-.016.684-.049.273-.032.521-.094.745-.183v-2.125H44.14v-1.05h2.504v3.81c-.334.183-.749.337-1.246.461a6.91 6.91 0 0 1-1.673.186ZM50.076 300.885c-.468 0-.867-.094-1.197-.283a1.814 1.814 0 0 1-.754-.865c-.173-.386-.26-.879-.26-1.477v-3.481h1.1v3.175c0 .635.109 1.12.327 1.454.217.333.573.5 1.065.5.338 0 .652-.081.94-.244.29-.163.49-.423.6-.782l-.16.599v-4.702h1.1v5.984h-.977l-.22-1.172.293.195c-.2.37-.443.647-.73.828-.287.18-.663.271-1.127.271ZM53.85 300.764l3.701-5.57.134.55h-3.64v-.965h4.984l-3.7 5.569-.135-.55h3.774v.966zM60.08 300.763v-5.984h.854l.22 1.148-.415-.196c.374-.403.739-.683 1.093-.84a2.732 2.732 0 0 1 1.118-.235c.293 0 .575.048.845.144.271.096.515.263.733.5.218.239.392.57.522.993l-.305-.134c.18-.464.454-.83.824-1.1.37-.268.87-.403 1.497-.403.5 0 .922.093 1.264.278.342.186.6.469.772.85.173.38.26.863.26 1.45v3.53h-1.1v-3.518c0-.562-.11-.971-.33-1.228-.22-.256-.577-.384-1.074-.384-.35 0-.631.054-.843.161a1.185 1.185 0 0 0-.48.419c-.107.17-.178.352-.213.543-.035.192-.052.37-.052.538v3.468h-1.099v-3.297c0-.489-.06-.865-.177-1.13-.118-.265-.283-.448-.495-.55a1.672 1.672 0 0 0-.733-.152c-.403 0-.763.088-1.08.265-.318.177-.532.46-.642.846l.135-.598v4.616h-1.1ZM72.183 300.885a2 2 0 0 1-.97-.225 1.635 1.635 0 0 1-.645-.617 1.73 1.73 0 0 1-.23-.892c0-.338.075-.628.224-.87.148-.242.348-.444.598-.605.25-.16.53-.289.84-.384.31-.096.63-.165.962-.208.332-.043.65-.066.955-.07 0-.57-.111-.943-.335-1.118-.224-.175-.548-.262-.971-.262a2.74 2.74 0 0 0-.718.103c-.254.07-.54.214-.858.434l-.159-.892c.24-.183.54-.332.898-.448a3.644 3.644 0 0 1 1.13-.175c.505 0 .912.089 1.221.266.31.177.535.475.678.895.142.42.214.99.214 1.71v1.221c0 .285.013.52.04.705.026.186.087.324.183.416.095.091.249.137.46.137h.11l-.17.88h-.086c-.354 0-.628-.035-.821-.104a.95.95 0 0 1-.443-.3 2.188 2.188 0 0 1-.275-.476c-.224.26-.488.472-.794.635a2.171 2.171 0 0 1-1.038.244Zm.208-.879c.293 0 .577-.073.852-.22.274-.146.5-.342.674-.586v-1.429c-.582.02-1.053.077-1.413.171-.36.094-.624.234-.791.421-.167.188-.25.43-.25.727 0 .322.086.555.26.7.172.144.395.216.668.216ZM76.653 300.763v-5.984h.855l.22 1.148-.427-.183c.403-.448.797-.741 1.181-.88.385-.138.76-.208 1.127-.208.875 0 1.501.253 1.878.758s.565 1.189.565 2.052v3.297h-1.1v-3.297c0-.635-.117-1.1-.354-1.393-.236-.293-.639-.44-1.209-.44a2.34 2.34 0 0 0-1.108.266 1.298 1.298 0 0 0-.663.846l.135-.672v4.69h-1.1ZM86.18 296.269h3.786v1.22H86.18zM97.673 300.934c-.753 0-1.398-.193-1.936-.58-.537-.387-.95-.92-1.236-1.6-.287-.68-.43-1.46-.43-2.339 0-.88.152-1.647.457-2.302.306-.655.729-1.164 1.27-1.527.542-.362 1.167-.543 1.875-.543.725 0 1.357.18 1.896.543.54.363.96.872 1.258 1.527.3.655.45 1.423.45 2.302 0 .88-.143 1.66-.428 2.34-.285.68-.696 1.212-1.234 1.6-.537.386-1.185.58-1.942.58Zm0-1.05c.505 0 .934-.134 1.286-.403s.62-.662.806-1.179c.185-.517.278-1.146.278-1.887 0-1.111-.215-1.943-.645-2.494-.43-.552-1.004-.828-1.725-.828-.684 0-1.25.276-1.698.828-.447.551-.671 1.383-.671 2.494 0 .741.092 1.37.278 1.887.185.517.454.91.806 1.179.352.269.78.403 1.285.403Z" fill="#B0B7C3" fill-rule="nonzero" fill-opacity=".902"/><path d="M649.221 79.56a7.18 7.18 0 0 1-1.062-.08 8.263 8.263 0 0 1-.983-.204 4.832 4.832 0 0 1-.751-.265l.158-1.234c.22.106.486.216.797.33.312.114.649.21 1.01.287a5.25 5.25 0 0 0 1.1.116c.55 0 .986-.1 1.31-.302.324-.202.486-.516.486-.944 0-.322-.082-.585-.245-.79-.163-.206-.408-.382-.736-.529a10.188 10.188 0 0 0-1.23-.44 8.694 8.694 0 0 1-1.295-.491 2.513 2.513 0 0 1-.95-.764c-.238-.32-.357-.744-.357-1.273a2.1 2.1 0 0 1 .352-1.2c.234-.348.578-.62 1.032-.815.454-.196 1.01-.293 1.67-.293a6.15 6.15 0 0 1 1.548.183c.47.122.858.256 1.163.403l-.122 1.234a5.534 5.534 0 0 0-1.328-.593 4.832 4.832 0 0 0-1.31-.177c-.5 0-.915.094-1.243.281-.328.187-.491.493-.491.916 0 .285.073.518.22.7.146.18.364.335.653.463.289.129.65.258 1.08.388.595.18 1.106.384 1.534.614.427.23.755.513.983.849.228.336.342.752.342 1.249 0 .366-.07.696-.208.989a2 2 0 0 1-.623.751 2.985 2.985 0 0 1-1.04.476c-.418.11-.906.165-1.464.165ZM655.56 79.511c-.378 0-.682-.069-.91-.207a1.252 1.252 0 0 1-.497-.535 1.578 1.578 0 0 1-.156-.687V74.26h-1.026l.098-.855h.928v-1.478l1.1-.11v1.588h1.575v.855h-1.576v3.15c0 .383.023.66.067.831a.427.427 0 0 0 .333.324c.177.045.463.067.858.067h.281l-.085.88h-.99ZM660.434 79.511c-.705 0-1.297-.144-1.777-.433a2.847 2.847 0 0 1-1.09-1.151 3.397 3.397 0 0 1-.37-1.579c0-.558.115-1.069.345-1.533.23-.464.564-.835 1.002-1.114.437-.28.965-.419 1.584-.419.497 0 .94.1 1.329.297.388.197.694.484.916.86.221.377.332.834.332 1.372 0 .085-.003.178-.009.278-.006.1-.02.202-.04.308h-4.335c.053.554.185.985.397 1.295.211.309.478.527.8.653.321.126.671.19 1.05.19.277 0 .566-.03.867-.086.301-.057.586-.147.855-.269l.147.867a8.232 8.232 0 0 1-.85.309 3.891 3.891 0 0 1-1.153.155Zm-2.016-3.871h3.152c0-.281-.053-.525-.16-.733a1.088 1.088 0 0 0-.482-.48c-.215-.111-.49-.167-.824-.167-.489 0-.864.12-1.127.363-.262.242-.449.581-.559 1.017ZM501.388 132.995c-.79 0-1.502-.182-2.135-.546a3.942 3.942 0 0 1-1.502-1.548c-.368-.668-.553-1.456-.553-2.364 0-.9.19-1.681.571-2.345a3.983 3.983 0 0 1 1.57-1.542c.666-.364 1.426-.546 2.28-.546a6.267 6.267 0 0 1 2.406.489l-.109 1.013a7.526 7.526 0 0 0-1.063-.324 5.368 5.368 0 0 0-1.197-.128c-.728 0-1.328.152-1.798.455-.47.303-.82.712-1.047 1.225a4.18 4.18 0 0 0-.342 1.716c0 .651.116 1.232.348 1.743a2.7 2.7 0 0 0 1.068 1.21c.48.294 1.092.442 1.833.442.183 0 .41-.016.683-.049.273-.032.522-.093.746-.183v-2.125h-1.344v-1.05h2.504v3.81c-.334.183-.75.337-1.246.461a6.91 6.91 0 0 1-1.673.186ZM505.602 132.824v-5.984h1.22v5.984h-1.22Zm0-7.328v-1.221h1.22v1.221h-1.22ZM508.19 132.824v-5.984h.856l.22 1.148-.428-.183c.403-.448.797-.741 1.182-.88.384-.138.76-.207 1.126-.207.876 0 1.502.252 1.878.757.377.505.565 1.189.565 2.052v3.297h-1.099v-3.297c0-.635-.118-1.1-.354-1.393-.236-.293-.64-.44-1.21-.44a2.34 2.34 0 0 0-1.108.266 1.298 1.298 0 0 0-.662.846l.134-.672v4.69h-1.1ZM516.41 132.947a2 2 0 0 1-.97-.226 1.635 1.635 0 0 1-.645-.617 1.73 1.73 0 0 1-.229-.892c0-.338.075-.628.223-.87.149-.242.348-.444.599-.605.25-.16.53-.289.84-.384.309-.096.63-.165.961-.208.332-.043.65-.066.956-.07 0-.57-.112-.943-.336-1.118-.224-.175-.547-.262-.97-.262a2.74 2.74 0 0 0-.718.103c-.255.07-.54.214-.858.434l-.16-.892c.241-.183.54-.332.899-.448a3.644 3.644 0 0 1 1.13-.174c.504 0 .911.088 1.22.265.31.177.536.476.679.895.142.42.213.99.213 1.71v1.221c0 .285.013.52.04.706.026.185.087.323.183.415.096.091.25.137.461.137h.11l-.17.88h-.086c-.355 0-.628-.035-.822-.104a.95.95 0 0 1-.442-.3 2.188 2.188 0 0 1-.275-.476c-.224.26-.489.472-.794.635a2.171 2.171 0 0 1-1.038.245Zm.208-.88c.293 0 .577-.073.852-.22.275-.146.5-.342.675-.586v-1.429c-.582.02-1.053.077-1.414.171-.36.094-.624.234-.79.421-.167.188-.25.43-.25.727 0 .322.086.555.259.7.173.144.396.216.668.216ZM523.861 132.824v-8.55h2.7c.765 0 1.365.173 1.8.517.436.344.654.868.654 1.572 0 .477-.104.896-.311 1.258-.208.363-.52.599-.935.709l.171-.196c.595.098 1.055.335 1.38.712.326.376.49.888.49 1.536 0 .749-.242 1.343-.725 1.783-.482.44-1.149.66-2 .66h-3.224Zm1.16-1.05h1.967c.472 0 .849-.118 1.13-.354.28-.236.42-.595.42-1.075 0-.537-.143-.916-.43-1.136-.287-.22-.66-.33-1.12-.33h-1.967v2.895Zm0-3.945h1.393c.415 0 .753-.083 1.013-.25.26-.167.391-.503.391-1.008 0-.5-.13-.836-.39-1.005-.261-.169-.6-.253-1.014-.253h-1.393v2.516ZM530.847 132.824v-5.984h.904l.134.989c.306-.379.598-.659.877-.84.279-.18.577-.271.894-.271.102 0 .196.012.281.036l-.11 1.21a1.377 1.377 0 0 0-.167-.028 1.943 1.943 0 0 0-.199-.01c-.318 0-.61.07-.876.211-.267.14-.455.295-.565.461v4.226h-1.173ZM534.707 132.824v-5.984h1.221v5.984h-1.221Zm0-7.328v-1.221h1.221v1.221h-1.221ZM539.714 135.878a4.895 4.895 0 0 1-1.462-.202c-.43-.134-.768-.334-1.014-.598a1.388 1.388 0 0 1-.37-.983c0-.326.093-.606.279-.84.185-.234.438-.422.76-.565a1.22 1.22 0 0 1-.437-.333.675.675 0 0 1-.15-.424c0-.183.057-.35.169-.498.111-.148.292-.272.54-.37a2.082 2.082 0 0 1-.77-.839 2.555 2.555 0 0 1-.268-1.176c0-.435.098-.83.293-1.181.195-.352.477-.632.846-.84.368-.208.81-.311 1.328-.311.277 0 .538.04.785.122.246.081.473.195.68.342.184-.106.4-.194.651-.263.25-.07.53-.104.84-.104h.097l-.134.733h-.28c-.042 0-.135.006-.282.018-.146.013-.28.035-.403.068.167.195.296.414.388.656.092.242.137.496.137.76 0 .456-.098.865-.296 1.225-.197.36-.481.645-.852.855-.37.21-.814.314-1.331.314-.147 0-.287-.009-.421-.027a2.524 2.524 0 0 1-.385-.083c-.187.061-.281.167-.281.318 0 .09.053.168.159.235.106.067.277.12.513.156l1.6.256c.647.102 1.147.29 1.499.562.352.273.528.66.528 1.16 0 .416-.12.76-.363 1.035-.242.275-.585.48-1.03.617-.443.137-.964.205-1.563.205Zm.098-.977c.562 0 .994-.073 1.295-.217.301-.145.452-.357.452-.638a.593.593 0 0 0-.284-.52c-.19-.125-.461-.221-.815-.286l-1.704-.287c-.224.097-.42.229-.587.394a.786.786 0 0 0-.25.577c0 .342.172.59.516.745.344.154.803.232 1.377.232Zm-.354-4.336c.464 0 .818-.14 1.063-.418.244-.28.366-.64.366-1.084 0-.428-.122-.779-.366-1.054-.245-.275-.599-.412-1.063-.412-.464 0-.816.137-1.056.412-.24.275-.36.626-.36 1.054 0 .443.12.805.36 1.084.24.278.592.418 1.056.418ZM545.797 135.878a4.895 4.895 0 0 1-1.463-.202c-.43-.134-.767-.334-1.013-.598a1.388 1.388 0 0 1-.37-.983c0-.326.093-.606.278-.84.185-.234.439-.422.76-.565a1.22 1.22 0 0 1-.436-.333.675.675 0 0 1-.15-.424c0-.183.056-.35.168-.498.112-.148.292-.272.54-.37a2.082 2.082 0 0 1-.769-.839 2.555 2.555 0 0 1-.269-1.176c0-.435.098-.83.293-1.181.196-.352.478-.632.846-.84.369-.208.811-.311 1.328-.311.277 0 .539.04.785.122.246.081.473.195.681.342.183-.106.4-.194.65-.263.25-.07.53-.104.84-.104h.098l-.134.733h-.281c-.041 0-.135.006-.281.018-.147.013-.281.035-.403.068.167.195.296.414.387.656.092.242.138.496.138.76 0 .456-.099.865-.296 1.225-.198.36-.482.645-.852.855-.37.21-.815.314-1.332.314-.146 0-.287-.009-.42-.027a2.524 2.524 0 0 1-.386-.083c-.187.061-.28.167-.28.318 0 .09.052.168.158.235.106.067.277.12.513.156l1.6.256c.648.102 1.147.29 1.5.562.352.273.528.66.528 1.16 0 .416-.121.76-.364 1.035-.242.275-.585.48-1.029.617-.443.137-.965.205-1.563.205Zm.098-.977c.561 0 .993-.073 1.294-.217.302-.145.452-.357.452-.638a.593.593 0 0 0-.284-.52c-.19-.125-.46-.221-.815-.286l-1.704-.287c-.224.097-.42.229-.586.394a.786.786 0 0 0-.25.577c0 .342.172.59.516.745.344.154.803.232 1.377.232Zm-.355-4.336c.465 0 .819-.14 1.063-.418.244-.28.366-.64.366-1.084 0-.428-.122-.779-.366-1.054s-.598-.412-1.063-.412c-.464 0-.816.137-1.056.412-.24.275-.36.626-.36 1.054 0 .443.12.805.36 1.084.24.278.592.418 1.056.418ZM551.159 132.947c-.53 0-.968-.064-1.316-.19-.348-.126-.594-.238-.736-.336l.134-1.062c.13.114.36.244.69.39.33.147.723.22 1.179.22.387 0 .683-.065.888-.195a.616.616 0 0 0 .309-.55.67.67 0 0 0-.199-.503 1.472 1.472 0 0 0-.476-.306 4.712 4.712 0 0 0-.522-.18 8.516 8.516 0 0 1-.846-.278 1.866 1.866 0 0 1-.736-.504c-.2-.223-.299-.537-.299-.94 0-.305.073-.595.22-.87.146-.275.385-.498.714-.669.33-.17.768-.256 1.313-.256.4 0 .724.041.974.125.25.083.468.172.65.265l-.134 1.002a2.523 2.523 0 0 0-.61-.373c-.232-.101-.517-.152-.855-.152-.342 0-.621.064-.837.192-.216.128-.324.333-.324.614 0 .28.115.48.345.598.23.118.58.249 1.048.391.146.04.316.1.51.177.193.078.381.181.565.312.183.13.334.3.455.51.12.21.18.47.18.784 0 .265-.063.535-.19.81-.126.274-.354.505-.684.693-.33.187-.8.28-1.41.28ZM557.217 128.33h3.786v1.22h-3.786zM566.328 132.824v-6.876a4.953 4.953 0 0 1-.727.507 3.572 3.572 0 0 1-.543.238l-.196-1.087c.22-.073.445-.178.675-.314a4.17 4.17 0 0 0 .642-.468c.197-.175.357-.358.479-.55h.794v8.55h-1.124ZM571.36 132.995c-.468 0-.905-.06-1.31-.183a6.172 6.172 0 0 1-1.133-.464l.281-1.075c.35.2.696.362 1.035.486a3.3 3.3 0 0 0 1.14.186c.533 0 .949-.133 1.248-.4.3-.267.45-.61.45-1.029 0-.472-.164-.85-.49-1.136-.325-.285-.834-.427-1.526-.427h-.538v-1.05h.538c.525 0 .941-.125 1.249-.373.307-.249.46-.589.46-1.02 0-.46-.117-.801-.353-1.023-.237-.222-.574-.333-1.014-.333-.346 0-.67.067-.971.202-.301.134-.597.299-.886.494l-.195-1.184c.313-.18.652-.318 1.017-.416a4.6 4.6 0 0 1 1.194-.146c.529 0 .978.095 1.346.287.369.191.65.457.843.797.193.34.29.732.29 1.175 0 .554-.162 1.021-.485 1.402-.324.38-.76.63-1.31.748v-.28c.647.125 1.153.37 1.517.735.365.364.547.868.547 1.511 0 .522-.13.97-.388 1.347a2.5 2.5 0 0 1-1.054.867 3.594 3.594 0 0 1-1.502.302Z" fill="#000000" fill-rule="nonzero"/><path d="M12.873 197.08h3.786v1.222h-3.786zM20.263 201.685c-.469 0-.898-.06-1.289-.183a4.014 4.014 0 0 1-1.056-.5l.366-1.417c.301.187.608.34.919.458a2.9 2.9 0 0 0 1.035.177c.464 0 .833-.122 1.106-.367.272-.244.409-.574.409-.989 0-.448-.155-.798-.464-1.05-.31-.253-.758-.379-1.344-.379-.269 0-.536.016-.803.049a13.21 13.21 0 0 0-.797.122l.55-4.629h4.03l-.098 1.515h-2.76l-.293 2.37-.586-.538c.195-.057.4-.1.614-.129.213-.028.444-.042.693-.042.545 0 1.027.107 1.444.32.417.214.743.523.977.929.234.405.351.892.351 1.462 0 .586-.13 1.09-.388 1.512a2.574 2.574 0 0 1-1.065.97c-.452.227-.97.34-1.551.34ZM12.873 250.516h3.786v1.221h-3.786zM20.263 255.12c-.469 0-.898-.06-1.289-.183a4.014 4.014 0 0 1-1.056-.5l.366-1.417c.301.187.608.34.919.458a2.9 2.9 0 0 0 1.035.177c.464 0 .833-.122 1.106-.366.272-.245.409-.574.409-.99 0-.448-.155-.798-.464-1.05-.31-.253-.758-.379-1.344-.379-.269 0-.536.017-.803.05a13.21 13.21 0 0 0-.797.121l.55-4.629h4.03l-.098 1.515h-2.76l-.293 2.37-.586-.538c.195-.057.4-.1.614-.128.213-.029.444-.043.693-.043.545 0 1.027.107 1.444.32.417.214.743.524.977.929.234.405.351.892.351 1.462 0 .586-.13 1.09-.388 1.512a2.574 2.574 0 0 1-1.065.97c-.452.227-.97.34-1.551.34Z" fill="#FF5630" fill-rule="nonzero" fill-opacity=".902"/><path d="M647.927 93.484v-1.636h-1.637V90.7h1.637v-1.637h1.245V90.7h1.637v1.148h-1.637v1.636zM654.241 94.815c-.468 0-.897-.06-1.288-.183a4.014 4.014 0 0 1-1.057-.5l.367-1.417c.301.187.607.34.919.458a2.9 2.9 0 0 0 1.035.177c.464 0 .832-.123 1.105-.367s.41-.574.41-.99c0-.447-.155-.797-.465-1.05-.31-.252-.757-.378-1.343-.378-.269 0-.537.016-.803.049a13.21 13.21 0 0 0-.797.122l.55-4.63h4.03l-.098 1.515h-2.76l-.293 2.37-.586-.538c.195-.057.4-.1.613-.128.214-.028.445-.043.693-.043.546 0 1.027.107 1.445.321.417.214.743.523.977.928.234.405.35.893.35 1.463 0 .586-.128 1.09-.387 1.511a2.574 2.574 0 0 1-1.066.971c-.451.226-.968.34-1.55.34ZM498.848 146.919v-1.636h-1.637v-1.148h1.637v-1.637h1.245v1.637h1.637v1.148h-1.637v1.636zM506.566 148.092v-1.955h-4.262l4.702-6.595h1.063v5.325h1.099v1.27h-1.1v1.955h-1.502Zm-2.21-2.712-.294-.513h2.504v-3.64l.403.44-2.613 3.713ZM15.267 61.069h618.32a7.614 7.614 0 0 1 4.242 1.286 7.614 7.614 0 0 1 2.811 3.426 7.618 7.618 0 0 1 .581 2.921V97.71a7.614 7.614 0 0 1-1.286 4.24 7.62 7.62 0 0 1-3.426 2.812 7.617 7.617 0 0 1-2.921.582H15.268a7.614 7.614 0 0 1-4.242-1.287 7.618 7.618 0 0 1-2.811-3.426 7.617 7.617 0 0 1-.581-2.921V68.702a7.615 7.615 0 0 1 1.286-4.24 7.612 7.612 0 0 1 3.426-2.812 7.603 7.603 0 0 1 2.921-.581Z" fill="#36B37E" fill-rule="nonzero" fill-opacity=".749"/><path d="M15.267 114.504h469.241a7.614 7.614 0 0 1 4.241 1.286 7.618 7.618 0 0 1 2.812 3.426 7.617 7.617 0 0 1 .581 2.921v29.008a7.615 7.615 0 0 1-1.287 4.241 7.608 7.608 0 0 1-2.106 2.106 7.613 7.613 0 0 1-4.24 1.287H15.266a7.614 7.614 0 0 1-4.24-1.287 7.612 7.612 0 0 1-2.812-3.426 7.616 7.616 0 0 1-.581-2.921v-29.008a7.615 7.615 0 0 1 1.286-4.24 7.612 7.612 0 0 1 3.426-2.812 7.617 7.617 0 0 1 2.921-.581Z" fill-opacity=".749" fill="#B0B7C3" fill-rule="nonzero"/><path d="M5.463 22.9V7.94h5.471c1.033 0 1.936.164 2.71.492.773.327 1.373.826 1.8 1.496.428.67.641 1.517.641 2.543 0 1.097-.233 1.968-.7 2.613a4.931 4.931 0 0 1-1.843 1.534l3.377 6.284h-3.056l-2.886-5.557H8.198V22.9H5.463Zm2.735-7.844h2.01c1.125 0 1.909-.23 2.35-.689.443-.46.663-1.042.663-1.747 0-.748-.217-1.334-.652-1.758-.434-.424-1.186-.636-2.254-.636H8.198v4.83ZM22.882 23.115c-1.16 0-2.151-.253-2.97-.76a5.038 5.038 0 0 1-1.876-2.02 5.954 5.954 0 0 1-.647-2.756c0-1.005.216-1.931.647-2.779a5.057 5.057 0 0 1 1.875-2.036c.82-.51 1.81-.764 2.971-.764 1.162 0 2.152.255 2.971.764A5.057 5.057 0 0 1 27.73 14.8c.431.848.647 1.774.647 2.779 0 .997-.216 1.916-.647 2.757a5.038 5.038 0 0 1-1.876 2.02c-.819.506-1.81.759-2.97.759Zm0-2.18c.891 0 1.577-.312 2.058-.936.48-.623.721-1.43.721-2.42 0-1.005-.24-1.823-.721-2.453-.481-.63-1.167-.946-2.058-.946-.883 0-1.567.315-2.051.946-.485.63-.727 1.448-.727 2.453 0 .99.242 1.797.727 2.42.484.624 1.168.935 2.051.935ZM34.638 23.115c-1.111 0-1.998-.221-2.66-.663a3.702 3.702 0 0 1-1.433-1.822c-.292-.773-.438-1.662-.438-2.667v-5.75h2.65v5.75c0 .99.166 1.726.497 2.207.331.481.871.722 1.62.722.598 0 1.095-.143 1.49-.428.396-.285.725-.684.989-1.197l-.47 1.347v-8.4h2.65V22.9h-2.48l-.128-1.86.577.748c-.256.328-.66.63-1.213.909-.552.278-1.102.417-1.65.417ZM42.012 22.9V12.215h2.48l.106 1.988-.62-.813c.407-.342.891-.652 1.454-.93.563-.277 1.218-.416 1.966-.416 1.368 0 2.384.454 3.046 1.362.663.909.994 2.086.994 3.532v5.964h-2.65v-5.75c0-.997-.166-1.735-.497-2.212-.331-.477-.871-.716-1.62-.716-.605 0-1.1.148-1.485.443-.384.296-.723.69-1.015 1.181l.492-1.303V22.9h-2.65ZM58.128 23.115c-1.083 0-1.993-.253-2.73-.76a4.726 4.726 0 0 1-1.667-2.02c-.375-.84-.562-1.759-.562-2.756 0-.998.187-1.917.562-2.758.374-.84.93-1.514 1.667-2.02.737-.505 1.647-.758 2.73-.758.784 0 1.447.13 1.988.39.541.26 1.019.593 1.432 1l-.641.555V6.87h2.65V22.9h-2.5l-.129-1.816.77.556a6.697 6.697 0 0 1-1.55 1.08c-.534.263-1.208.395-2.02.395Zm.385-2.18c.584 0 1.062-.143 1.432-.428.37-.285.645-.679.823-1.181.178-.502.267-1.085.267-1.747 0-.663-.089-1.245-.267-1.748-.178-.502-.452-.896-.823-1.18-.37-.286-.848-.428-1.432-.428-.556 0-1.03.142-1.421.427-.392.285-.692.679-.898 1.181-.207.503-.31 1.085-.31 1.748 0 .662.103 1.245.31 1.747.206.502.506.896.898 1.18.391.286.865.428 1.421.428ZM74.522 23.2c-.898 0-1.713-.105-2.447-.315-.734-.21-1.322-.426-1.764-.647l.663-2.308c.47.235 1.012.447 1.624.636a6.495 6.495 0 0 0 1.924.283c.784 0 1.41-.18 1.881-.54.47-.36.705-.914.705-1.662 0-.748-.23-1.312-.689-1.694-.46-.38-1.149-.571-2.068-.571h-1.517v-2.565h1.496c.77 0 1.357-.178 1.763-.535.406-.356.61-.847.61-1.474 0-.549-.188-.989-.562-1.32-.374-.332-.914-.497-1.619-.497-.605 0-1.177.092-1.715.278a9.51 9.51 0 0 0-1.598.726l-.406-2.415a8.822 8.822 0 0 1 1.758-.662A8.507 8.507 0 0 1 74.8 7.64c.976 0 1.799.165 2.469.497.67.33 1.177.785 1.523 1.362.345.577.518 1.233.518 1.967 0 .961-.257 1.777-.77 2.447-.513.67-1.24 1.122-2.18 1.357l-.021-.491c1.04.17 1.884.587 2.533 1.25.648.663.972 1.535.972 2.618 0 .976-.222 1.803-.668 2.48-.445.677-1.067 1.191-1.865 1.544s-1.727.529-2.789.529ZM92.006 23.115c-1.161 0-2.152-.253-2.97-.76a5.038 5.038 0 0 1-1.876-2.02 5.954 5.954 0 0 1-.647-2.756c0-1.005.215-1.931.647-2.779a5.057 5.057 0 0 1 1.875-2.036c.82-.51 1.81-.764 2.971-.764s2.152.255 2.971.764a5.057 5.057 0 0 1 1.876 2.036c.43.848.646 1.774.646 2.779 0 .997-.215 1.916-.646 2.757a5.038 5.038 0 0 1-1.876 2.02c-.82.506-1.81.759-2.97.759Zm0-2.18c.89 0 1.576-.312 2.057-.936.481-.623.722-1.43.722-2.42 0-1.005-.24-1.823-.722-2.453-.48-.63-1.166-.946-2.057-.946-.883 0-1.567.315-2.052.946-.484.63-.727 1.448-.727 2.453 0 .99.243 1.797.727 2.42.485.624 1.169.935 2.052.935ZM99.85 22.9v-8.506h-1.517l.235-2.18h1.282V9.948c0-.94.28-1.688.84-2.244.559-.556 1.362-.834 2.41-.834.341 0 .656.018.945.054.289.035.55.082.785.139l-.235 2.137a1.974 1.974 0 0 0-.352-.08 3.593 3.593 0 0 0-.481-.027c-.385 0-.691.103-.92.31-.227.207-.341.545-.341 1.015v1.796h2.35v2.18h-2.35V22.9h-2.65ZM114.983 23.2c-.898 0-1.713-.105-2.447-.315-.734-.21-1.322-.426-1.764-.647l.663-2.308c.47.235 1.012.447 1.624.636a6.495 6.495 0 0 0 1.924.283c.784 0 1.41-.18 1.881-.54.47-.36.705-.914.705-1.662 0-.748-.23-1.312-.689-1.694-.46-.38-1.149-.571-2.068-.571h-1.517v-2.565h1.496c.77 0 1.357-.178 1.763-.535.406-.356.61-.847.61-1.474 0-.549-.188-.989-.562-1.32-.374-.332-.914-.497-1.619-.497-.605 0-1.177.092-1.715.278a9.51 9.51 0 0 0-1.598.726l-.406-2.415a8.822 8.822 0 0 1 1.758-.662 8.507 8.507 0 0 1 2.239-.278c.976 0 1.799.165 2.469.497.67.33 1.177.785 1.523 1.362.345.577.518 1.233.518 1.967 0 .961-.257 1.777-.77 2.447-.513.67-1.24 1.122-2.18 1.357l-.021-.491c1.04.17 1.884.587 2.533 1.25.648.663.972 1.535.972 2.618 0 .976-.222 1.803-.668 2.48-.445.677-1.067 1.191-1.865 1.544s-1.727.529-2.789.529Z" fill="#000000" fill-rule="nonzero"/><path stroke="#0A1F44" stroke-width=".75" d="M8.015 48.855v4.962H768.32v-4.962M8.015 53.435v-4.58"/><path d="M7.957 41.227c.691 0 1.19.285 1.499.854.238.44.358 1.042.358 1.808 0 .725-.108 1.325-.325 1.8-.313.68-.825 1.021-1.535 1.021-.641 0-1.118-.278-1.432-.835-.26-.464-.39-1.088-.39-1.87 0-.607.077-1.128.234-1.563.293-.81.824-1.215 1.591-1.215ZM7.95 46.1c.348 0 .625-.154.831-.462.206-.308.31-.882.31-1.722 0-.607-.075-1.105-.224-1.495-.15-.393-.439-.589-.869-.589-.395 0-.684.187-.868.56-.181.37-.272.916-.272 1.64 0 .543.058.98.175 1.311.179.505.485.757.917.757Z" fill="#0A1F44" fill-rule="nonzero"/><path d="M82.555 53.435v-4.58" stroke="#0A1F44" stroke-width=".75"/><path d="M80.67 46.565c.026-.46.12-.86.284-1.2.167-.34.49-.65.97-.928l.715-.414c.32-.187.545-.346.675-.477a.98.98 0 0 0 .305-.708c0-.311-.093-.557-.28-.738-.186-.184-.434-.276-.745-.276-.46 0-.778.174-.954.522-.094.186-.147.444-.157.775h-.682c.008-.465.093-.844.257-1.137.291-.517.804-.775 1.54-.775.611 0 1.057.165 1.338.495.283.33.425.699.425 1.104a1.5 1.5 0 0 1-.451 1.096c-.174.176-.486.39-.936.64l-.51.284a3.308 3.308 0 0 0-.574.384c-.249.216-.405.456-.47.72h2.915v.633H80.67Z" fill="#0A1F44" fill-rule="nonzero"/><path d="M157.095 53.435v-4.58" stroke="#0A1F44" stroke-width=".75"/><path d="M157.495 44.675v-2.419l-1.71 2.42h1.71Zm.012 1.89V45.26h-2.341v-.656l2.445-3.392h.567v3.463h.786v.585h-.786v1.305h-.671Z" fill="#0A1F44" fill-rule="nonzero"/><path d="M231.635 53.435v-4.58" stroke="#0A1F44" stroke-width=".75"/><path d="M231.744 41.205c.597 0 1.012.155 1.245.466.236.308.354.626.354.954h-.663a1.223 1.223 0 0 0-.19-.496c-.162-.223-.406-.335-.734-.335-.376 0-.674.174-.895.522-.221.345-.344.84-.369 1.487.154-.226.348-.395.582-.507.213-.1.452-.15.715-.15.447 0 .838.144 1.17.43.334.285.5.711.5 1.278 0 .485-.158.914-.473 1.29-.316.372-.766.559-1.35.559-.5 0-.93-.19-1.293-.567-.363-.38-.544-1.019-.544-1.916 0-.663.08-1.226.242-1.688.31-.885.878-1.327 1.703-1.327Zm-.048 4.901c.353 0 .616-.118.79-.354.177-.238.265-.519.265-.842 0-.273-.078-.533-.235-.78-.157-.248-.441-.372-.854-.372a1.12 1.12 0 0 0-.76.287c-.216.192-.324.48-.324.865 0 .338.098.622.294.854.199.228.474.342.824.342Z" fill="#0A1F44" fill-rule="nonzero"/><path d="M306.174 53.435v-4.58" stroke="#0A1F44" stroke-width=".75"/><path d="M306.128 43.464c.295 0 .526-.082.693-.246a.81.81 0 0 0 .25-.593.779.779 0 0 0-.239-.548c-.159-.166-.401-.25-.727-.25-.323 0-.556.084-.7.25a.866.866 0 0 0-.217.585c0 .251.094.448.28.59.186.14.406.212.66.212Zm.04 2.642c.311 0 .568-.083.772-.25.206-.168.31-.42.31-.752 0-.346-.106-.608-.317-.787-.211-.179-.482-.268-.813-.268-.32 0-.583.092-.786.276-.202.181-.302.433-.302.756 0 .279.092.52.276.724.186.2.473.301.86.301Zm-.954-2.385a1.334 1.334 0 0 1-.436-.28c-.196-.198-.294-.457-.294-.775 0-.397.144-.74.432-1.025.288-.286.697-.429 1.227-.429.511 0 .913.136 1.203.407.291.268.437.582.437.943 0 .333-.085.602-.254.809a1.518 1.518 0 0 1-.44.342c.221.102.395.22.522.35.236.25.354.572.354.97 0 .47-.158.868-.473 1.196-.316.326-.762.489-1.338.489-.52 0-.96-.14-1.32-.421-.358-.284-.536-.694-.536-1.23 0-.316.077-.588.23-.817.155-.23.383-.407.686-.53Z" fill="#0A1F44" fill-rule="nonzero"/><path d="M380.714 53.435v-4.58" stroke="#0A1F44" stroke-width=".75"/><path d="M377.2 42.785v-.514c.484-.047.822-.125 1.013-.235.191-.112.334-.374.429-.786h.529v5.315h-.716v-3.78H377.2ZM382.778 41.227c.69 0 1.19.285 1.498.854.239.44.358 1.042.358 1.808 0 .725-.108 1.325-.324 1.8-.313.68-.825 1.021-1.536 1.021-.641 0-1.118-.278-1.431-.835-.261-.464-.392-1.088-.392-1.87 0-.607.079-1.128.235-1.563.293-.81.824-1.215 1.592-1.215Zm-.008 4.872c.348 0 .625-.154.832-.462.206-.308.309-.882.309-1.722 0-.607-.075-1.105-.224-1.495-.149-.393-.438-.589-.868-.589-.395 0-.685.187-.869.56-.181.37-.272.916-.272 1.64 0 .543.059.98.175 1.311.18.505.485.757.917.757Z" fill="#0A1F44" fill-rule="nonzero"/><path d="M455.254 53.435v-4.58" stroke="#0A1F44" stroke-width=".75"/><path d="M451.739 42.785v-.514c.484-.047.822-.125 1.014-.235.191-.112.334-.374.428-.786h.53v5.315h-.716v-3.78h-1.256ZM455.491 46.565c.025-.46.12-.86.283-1.2.167-.34.49-.65.97-.928l.715-.414c.32-.187.546-.346.675-.477a.98.98 0 0 0 .305-.708c0-.311-.093-.557-.28-.738-.186-.184-.434-.276-.745-.276-.46 0-.777.174-.954.522-.094.186-.146.444-.156.775h-.682c.007-.465.093-.844.257-1.137.29-.517.804-.775 1.54-.775.61 0 1.056.165 1.337.495.283.33.425.699.425 1.104a1.5 1.5 0 0 1-.45 1.096c-.175.176-.487.39-.936.64l-.511.284a3.308 3.308 0 0 0-.574.384c-.249.216-.405.456-.47.72h2.915v.633h-3.664Z" fill="#0A1F44" fill-rule="nonzero"/><path d="M529.793 53.435v-4.58" stroke="#0A1F44" stroke-width=".75"/><path d="M526.279 42.785v-.514c.484-.047.822-.125 1.013-.235.192-.112.335-.374.43-.786h.528v5.315h-.715v-3.78h-1.256ZM532.316 44.675v-2.419l-1.711 2.42h1.71Zm.01 1.89V45.26h-2.34v-.656l2.445-3.392h.567v3.463h.786v.585h-.786v1.305h-.671Z" fill="#0A1F44" fill-rule="nonzero"/><path d="M604.333 53.435v-4.58" stroke="#0A1F44" stroke-width=".75"/><path d="M600.818 42.785v-.514c.485-.047.823-.125 1.014-.235.191-.112.334-.374.429-.786h.53v5.315h-.717v-3.78h-1.256ZM606.565 41.205c.596 0 1.011.155 1.245.466.236.308.354.626.354.954h-.664a1.223 1.223 0 0 0-.19-.496c-.161-.223-.406-.335-.734-.335-.375 0-.674.174-.895.522-.22.345-.344.84-.369 1.487.154-.226.348-.395.582-.507.213-.1.452-.15.715-.15.448 0 .838.144 1.17.43.334.285.5.711.5 1.278 0 .485-.158.914-.473 1.29-.316.372-.765.559-1.35.559-.499 0-.93-.19-1.293-.567-.363-.38-.544-1.019-.544-1.916 0-.663.08-1.226.242-1.688.31-.885.879-1.327 1.704-1.327Zm-.049 4.901c.353 0 .617-.118.79-.354.177-.238.265-.519.265-.842 0-.273-.078-.533-.235-.78-.156-.248-.44-.372-.853-.372a1.12 1.12 0 0 0-.76.287c-.217.192-.325.48-.325.865 0 .338.098.622.295.854.198.228.473.342.823.342Z" fill="#0A1F44" fill-rule="nonzero"/><path d="M604.57 57.252v7.634h-1v-7.634m1 15.267v7.634h-1v-7.634m1 15.267v7.634h-1v-7.634m1 15.267v7.634h-1v-7.634m1 15.268v7.633h-1v-7.633m1 15.267v7.633h-1v-7.633m1 15.267v7.634h-1v-7.634m1 15.267v7.634h-1v-7.634m1 15.267v7.634h-1v-7.634m1 15.268v7.633h-1v-7.633m1 15.267v7.633h-1v-7.633m1 15.267v7.633h-1v-7.633m1 15.267v7.634h-1v-7.634m1 15.267v7.634h-1v-7.634m1 15.267v7.634h-1v-7.634m1 15.268v7.633h-1v-7.633m1 15.267v7.633h-1v-7.633m1 15.267v7.634h-1v-7.634m1 15.267v7.634h-1v-7.634m1 15.267v7.634h-1v-7.634m1 15.267v7.634h-1v-7.634m1 15.268v7.633h-1v-7.633m1 15.267v7.633h-1v-7.633m1 15.267v7.634h-1v-7.634m1 15.267v7.634h-1v-7.634m1 15.267v7.634h-1v-7.634" fill-opacity=".6" fill="#B0B7C3" fill-rule="nonzero"/></g></g><g transform="translate(0 54)"><mask id="h" fill="white"><use xlink:href="#g"/></mask><g mask="url(#h)"><path d="M33.588 195.42v-84.733a6.854 6.854 0 0 1 1.158-3.817 6.855 6.855 0 0 1 3.083-2.53 6.853 6.853 0 0 1 2.629-.523h719.084a6.854 6.854 0 0 1 3.817 1.158 6.852 6.852 0 0 1 2.53 3.083 6.852 6.852 0 0 1 .523 2.629v84.733a6.856 6.856 0 0 1-1.158 3.817 6.853 6.853 0 0 1-3.083 2.53 6.849 6.849 0 0 1-2.629.523H40.458a6.854 6.854 0 0 1-3.817-1.158 6.858 6.858 0 0 1-2.53-3.083 6.855 6.855 0 0 1-.523-2.63Z" fill="#E3D9FC" fill-rule="nonzero"/><path d="M33.588 195.42v-84.733a6.854 6.854 0 0 1 1.158-3.817 6.855 6.855 0 0 1 3.083-2.53 6.853 6.853 0 0 1 2.629-.523h719.084a6.854 6.854 0 0 1 3.817 1.158 6.852 6.852 0 0 1 2.53 3.083 6.852 6.852 0 0 1 .523 2.629v84.733a6.856 6.856 0 0 1-1.158 3.817 6.853 6.853 0 0 1-3.083 2.53 6.849 6.849 0 0 1-2.629.523H40.458a6.854 6.854 0 0 1-3.817-1.158 6.858 6.858 0 0 1-2.53-3.083 6.855 6.855 0 0 1-.523-2.63Z" stroke="#7540EE" stroke-width="1.5"/><path d="m160.631 142.749-2.887-10.26h1.95l2.051 7.284 2.287-7.284h1.304l2.374 7.094 1.964-7.094h1.95l-3.005 10.26h-1.656l-2.286-6.845-2.272 6.845zM172.489 142.748v-7.328h1.817v7.328h-1.817Zm0-8.442v-1.817h1.817v1.817h-1.817ZM176.006 142.748v-7.328h1.7l.074 1.363-.425-.557c.278-.235.61-.447.996-.638.386-.19.836-.285 1.349-.285.938 0 1.634.311 2.088.934.455.623.682 1.43.682 2.422v4.09h-1.818v-3.943c0-.684-.113-1.19-.34-1.517-.227-.328-.598-.491-1.11-.491-.416 0-.755.1-1.02.304a2.82 2.82 0 0 0-.695.81l.337-.895v5.731h-1.818ZM184.097 142.748v-7.328h1.7l.073 1.363-.425-.557c.279-.235.61-.447.997-.638.386-.19.835-.285 1.348-.285.938 0 1.634.311 2.089.934.454.623.681 1.43.681 2.422v4.09h-1.817v-3.943c0-.684-.114-1.19-.34-1.517-.228-.328-.598-.491-1.111-.491-.415 0-.755.1-1.019.304a2.82 2.82 0 0 0-.696.81l.337-.895v5.731h-1.817ZM195.72 142.895c-.885 0-1.621-.177-2.21-.532a3.405 3.405 0 0 1-1.323-1.407 4.21 4.21 0 0 1-.44-1.916c0-.67.138-1.287.414-1.854a3.343 3.343 0 0 1 1.213-1.367c.533-.344 1.183-.516 1.95-.516.703 0 1.29.144 1.758.432.47.288.821.673 1.056 1.154a3.59 3.59 0 0 1 .351 1.594c0 .161-.01.324-.029.487-.02.164-.049.334-.088.51h-4.734c.068.454.211.822.429 1.103.217.28.483.487.799.619.315.132.653.198 1.015.198.425 0 .82-.055 1.187-.165.366-.11.703-.255 1.011-.436l.088 1.539a5.132 5.132 0 0 1-1.04.388 5.393 5.393 0 0 1-1.408.169Zm-2.038-4.632h2.96a1.92 1.92 0 0 0-.124-.67 1.277 1.277 0 0 0-.414-.566c-.193-.153-.453-.23-.78-.23-.47 0-.838.139-1.107.415a2.072 2.072 0 0 0-.535 1.051ZM199.735 142.748v-7.328h1.7l.044.777c.186-.206.447-.41.784-.616a2.088 2.088 0 0 1 1.43-.278l-.132 1.788a1.868 1.868 0 0 0-.32-.059 3.361 3.361 0 0 0-.31-.015 1.7 1.7 0 0 0-.843.213c-.254.142-.433.315-.535.52v4.998h-1.818Z" fill="#2E3280" fill-rule="nonzero"/><path d="M150.867 165.82a7.18 7.18 0 0 1-1.062-.08 8.263 8.263 0 0 1-.983-.204 4.832 4.832 0 0 1-.752-.266l.16-1.233c.22.106.485.215.796.33.312.113.649.21 1.01.286a5.25 5.25 0 0 0 1.1.116c.55 0 .986-.1 1.31-.302.324-.201.486-.516.486-.943 0-.322-.082-.586-.245-.791-.163-.206-.408-.382-.736-.528a10.188 10.188 0 0 0-1.23-.44 8.694 8.694 0 0 1-1.295-.492 2.513 2.513 0 0 1-.95-.763c-.238-.32-.357-.744-.357-1.273a2.1 2.1 0 0 1 .351-1.2c.235-.348.579-.62 1.032-.816.454-.195 1.011-.293 1.67-.293a6.15 6.15 0 0 1 1.549.183c.47.123.858.257 1.163.404l-.122 1.233a5.534 5.534 0 0 0-1.328-.592 4.832 4.832 0 0 0-1.31-.177c-.5 0-.915.093-1.243.28-.328.188-.491.493-.491.917 0 .285.073.518.22.699.146.181.364.336.653.464.289.128.65.257 1.08.388.595.179 1.106.383 1.534.613.427.23.755.513.983.85.228.335.342.751.342 1.248 0 .367-.07.696-.208.99a2 2 0 0 1-.623.75 2.985 2.985 0 0 1-1.041.477c-.417.11-.905.165-1.463.165ZM157.206 165.771c-.378 0-.682-.07-.91-.208a1.252 1.252 0 0 1-.497-.534 1.578 1.578 0 0 1-.156-.687v-3.823h-1.026l.098-.855h.928v-1.478l1.1-.11v1.588h1.575v.855h-1.576v3.151c0 .383.023.66.067.83a.427.427 0 0 0 .333.324c.177.045.463.068.858.068h.281l-.085.879h-.99ZM162.08 165.771c-.705 0-1.297-.145-1.778-.434a2.847 2.847 0 0 1-1.09-1.15 3.397 3.397 0 0 1-.37-1.58c0-.557.116-1.068.346-1.532.23-.464.564-.836 1.002-1.115.437-.279.965-.418 1.584-.418.497 0 .94.099 1.328.296.39.198.695.485.917.861.221.377.332.834.332 1.371 0 .086-.003.178-.009.278-.006.1-.02.203-.04.308h-4.335c.053.554.185.986.397 1.295.211.31.478.527.8.654.321.126.671.189 1.05.189.277 0 .566-.029.867-.086.301-.057.586-.146.855-.268l.147.867a8.232 8.232 0 0 1-.85.308 3.891 3.891 0 0 1-1.153.156Zm-2.016-3.872h3.151c0-.28-.052-.525-.158-.733a1.088 1.088 0 0 0-.483-.479c-.216-.112-.49-.168-.824-.168-.489 0-.864.121-1.127.363-.263.243-.449.582-.559 1.017ZM167.063 165.65l-2.284-5.986h1.22l1.675 4.776 1.66-4.776h1.234l-2.271 5.985zM174.183 165.771c-.704 0-1.296-.145-1.777-.434a2.847 2.847 0 0 1-1.09-1.15 3.397 3.397 0 0 1-.37-1.58c0-.557.116-1.068.346-1.532.23-.464.564-.836 1.001-1.115.438-.279.966-.418 1.585-.418.497 0 .94.099 1.328.296.39.198.694.485.916.861.222.377.333.834.333 1.371 0 .086-.003.178-.009.278-.006.1-.02.203-.04.308h-4.336c.053.554.186.986.397 1.295.212.31.479.527.8.654.322.126.672.189 1.05.189.278 0 .567-.029.868-.086.301-.057.586-.146.855-.268l.146.867a8.232 8.232 0 0 1-.848.308 3.891 3.891 0 0 1-1.155.156Zm-2.015-3.872h3.151c0-.28-.053-.525-.159-.733a1.088 1.088 0 0 0-.482-.479c-.216-.112-.49-.168-.824-.168-.489 0-.864.121-1.127.363-.263.243-.449.582-.559 1.017ZM180.156 165.65l1.148-8.55h.989l2.248 4.237 2.223-4.238h1l1.137 8.55h-1.221l-.868-6.974.306.048-2.565 4.898-2.614-4.898.306-.048-.868 6.974zM191.551 165.771a2 2 0 0 1-.97-.226 1.635 1.635 0 0 1-.645-.617 1.73 1.73 0 0 1-.229-.891c0-.338.074-.628.223-.87.149-.243.348-.444.598-.605.25-.161.53-.29.84-.385.31-.096.63-.165.962-.208.332-.042.65-.066.956-.07 0-.57-.112-.942-.336-1.117-.224-.175-.548-.263-.971-.263a2.74 2.74 0 0 0-.718.104c-.254.07-.54.214-.858.433l-.159-.891c.24-.183.54-.333.898-.449a3.644 3.644 0 0 1 1.13-.174c.505 0 .912.089 1.221.266.31.177.536.475.678.894.143.42.214.99.214 1.71v1.222c0 .285.013.52.04.705.026.185.087.324.183.415.095.092.25.138.46.138h.11l-.17.879h-.086c-.354 0-.628-.035-.821-.104a.95.95 0 0 1-.443-.3 2.188 2.188 0 0 1-.275-.475c-.224.26-.488.472-.794.635a2.171 2.171 0 0 1-1.038.244Zm.208-.88c.293 0 .577-.073.852-.22.275-.146.5-.341.675-.585v-1.43c-.583.02-1.054.078-1.414.171-.36.094-.624.235-.79.422-.168.187-.251.43-.251.727 0 .321.086.554.26.699.172.144.395.217.668.217ZM198.44 168.702a4.895 4.895 0 0 1-1.463-.201c-.43-.135-.767-.334-1.013-.599a1.388 1.388 0 0 1-.37-.983c0-.326.093-.605.278-.84.185-.234.439-.422.76-.564a1.22 1.22 0 0 1-.436-.333.675.675 0 0 1-.15-.425c0-.183.056-.349.168-.497.112-.149.292-.272.54-.37a2.082 2.082 0 0 1-.77-.84 2.555 2.555 0 0 1-.268-1.175c0-.436.098-.83.293-1.182.196-.352.478-.632.846-.84.369-.207.811-.311 1.328-.311.277 0 .539.04.785.122.246.082.473.196.681.342.183-.106.4-.193.65-.262.25-.07.53-.104.84-.104h.098l-.135.733h-.28c-.041 0-.135.006-.281.018-.147.012-.281.034-.403.067.166.195.296.414.387.657.092.242.138.495.138.76 0 .456-.099.864-.296 1.224-.198.36-.482.646-.852.855-.37.21-.815.315-1.332.315-.146 0-.287-.01-.421-.028a2.524 2.524 0 0 1-.385-.082c-.187.06-.28.167-.28.317 0 .09.052.168.158.235.106.068.277.12.513.156l1.6.257c.647.101 1.147.289 1.5.562.352.272.528.66.528 1.16 0 .415-.122.76-.364 1.035-.242.275-.585.48-1.029.617-.444.136-.965.204-1.563.204Zm.098-.977c.561 0 .993-.072 1.294-.217.301-.144.452-.357.452-.638a.593.593 0 0 0-.284-.519c-.19-.126-.46-.222-.815-.287l-1.704-.287c-.224.098-.42.23-.586.394a.786.786 0 0 0-.25.577c0 .342.171.59.515.745.344.155.804.232 1.378.232Zm-.355-4.336c.464 0 .819-.14 1.063-.418.244-.279.366-.64.366-1.084 0-.427-.122-.779-.366-1.053-.244-.275-.599-.413-1.063-.413-.464 0-.816.138-1.056.413-.24.274-.36.626-.36 1.053 0 .444.12.805.36 1.084s.592.418 1.056.418ZM204.974 165.771c-.704 0-1.296-.145-1.777-.434a2.847 2.847 0 0 1-1.09-1.15 3.397 3.397 0 0 1-.37-1.58c0-.557.116-1.068.346-1.532.23-.464.563-.836 1.001-1.115.438-.279.966-.418 1.585-.418.497 0 .94.099 1.328.296.389.198.694.485.916.861.222.377.333.834.333 1.371 0 .086-.003.178-.01.278-.005.1-.019.203-.039.308h-4.336c.053.554.185.986.397 1.295.212.31.479.527.8.654.322.126.672.189 1.05.189.277 0 .566-.029.868-.086.301-.057.586-.146.855-.268l.146.867a8.232 8.232 0 0 1-.849.308 3.891 3.891 0 0 1-1.154.156Zm-2.015-3.872h3.151c0-.28-.053-.525-.159-.733a1.088 1.088 0 0 0-.482-.479c-.216-.112-.49-.168-.825-.168-.488 0-.864.121-1.126.363-.263.243-.45.582-.56 1.017ZM211.228 165.771c-.705 0-1.297-.145-1.777-.434a2.847 2.847 0 0 1-1.09-1.15 3.397 3.397 0 0 1-.37-1.58c0-.557.115-1.068.345-1.532.23-.464.564-.836 1.002-1.115.437-.279.965-.418 1.584-.418.497 0 .94.099 1.329.296.388.198.694.485.916.861.221.377.332.834.332 1.371 0 .086-.003.178-.009.278-.006.1-.02.203-.04.308h-4.335c.053.554.185.986.397 1.295.211.31.478.527.8.654.321.126.671.189 1.05.189.277 0 .566-.029.867-.086.301-.057.586-.146.855-.268l.147.867a8.232 8.232 0 0 1-.85.308 3.891 3.891 0 0 1-1.153.156Zm-2.016-3.872h3.152c0-.28-.053-.525-.16-.733a1.088 1.088 0 0 0-.482-.479c-.215-.112-.49-.168-.824-.168-.489 0-.864.121-1.127.363-.262.243-.449.582-.559 1.017Z" fill="#0A1F44" fill-rule="nonzero"/><path d="m363.263 142.749-3.65-10.26h1.892l2.828 8.09h-.381l2.844-8.09h1.89l-3.65 10.26zM371.984 142.895c-.797 0-1.476-.174-2.038-.52a3.455 3.455 0 0 1-1.286-1.386 4.083 4.083 0 0 1-.443-1.89c0-.69.148-1.324.443-1.906a3.468 3.468 0 0 1 1.286-1.396c.562-.349 1.241-.524 2.038-.524.796 0 1.475.175 2.037.524.562.35.99.815 1.286 1.396.296.582.443 1.217.443 1.906 0 .684-.147 1.314-.443 1.89a3.455 3.455 0 0 1-1.286 1.385c-.562.347-1.241.52-2.037.52Zm0-1.495c.61 0 1.08-.214 1.41-.642.33-.427.495-.98.495-1.66 0-.688-.165-1.249-.495-1.681-.33-.433-.8-.649-1.41-.649-.606 0-1.075.216-1.407.649-.333.432-.499.993-.499 1.682 0 .679.166 1.232.499 1.66.332.427.8.64 1.407.64ZM379.297 142.895c-.459 0-.833-.094-1.121-.282a1.723 1.723 0 0 1-.638-.722 2.142 2.142 0 0 1-.205-.916v-4.06h-1.04l.16-1.495h.88v-1.612l1.818-.19v1.802h1.612v1.495h-1.612v3.312c0 .371.022.639.066.803a.403.403 0 0 0 .3.307c.156.042.406.063.748.063h.498l-.161 1.495h-1.305ZM385.424 142.895c-.885 0-1.621-.177-2.21-.532a3.405 3.405 0 0 1-1.323-1.407 4.21 4.21 0 0 1-.44-1.916c0-.67.139-1.287.415-1.854a3.343 3.343 0 0 1 1.213-1.367c.532-.344 1.182-.516 1.949-.516.703 0 1.29.144 1.759.432.469.288.82.673 1.055 1.154a3.59 3.59 0 0 1 .352 1.594c0 .161-.01.324-.03.487-.02.164-.048.334-.088.51h-4.734c.069.454.212.822.43 1.103.216.28.483.487.798.619.315.132.653.198 1.015.198.425 0 .82-.055 1.187-.165.366-.11.704-.255 1.011-.436l.088 1.539a5.132 5.132 0 0 1-1.04.388 5.393 5.393 0 0 1-1.407.169Zm-2.038-4.632h2.961a1.92 1.92 0 0 0-.125-.67 1.277 1.277 0 0 0-.414-.566c-.193-.153-.453-.23-.78-.23-.47 0-.838.139-1.107.415a2.072 2.072 0 0 0-.535 1.051ZM391.52 142.895a5.64 5.64 0 0 1-1.307-.14 6.569 6.569 0 0 1-1.17-.403l.162-1.553c.376.22.746.397 1.11.531.364.134.747.202 1.147.202.362 0 .638-.059.828-.176.19-.118.286-.303.286-.557 0-.19-.05-.347-.15-.47-.1-.121-.25-.231-.45-.329-.201-.098-.45-.203-.748-.315a6.381 6.381 0 0 1-1.147-.542 2.096 2.096 0 0 1-.718-.708c-.164-.276-.246-.616-.246-1.022 0-.42.11-.791.33-1.114.22-.322.532-.574.938-.755.405-.18.887-.27 1.444-.27.464 0 .88.05 1.249.153.369.103.71.242 1.022.418l-.16 1.553a6.006 6.006 0 0 0-.99-.567 2.637 2.637 0 0 0-1.092-.224c-.313 0-.555.064-.726.19a.635.635 0 0 0-.256.543c0 .283.12.496.359.637.24.142.623.316 1.15.52.342.133.64.27.89.411.252.142.461.298.627.47.167.17.29.364.37.582.081.217.121.468.121.75 0 .465-.11.86-.333 1.184-.222.325-.547.573-.975.744-.427.171-.949.257-1.564.257ZM401.326 142.895c-.46 0-.833-.094-1.121-.282a1.723 1.723 0 0 1-.638-.722 2.142 2.142 0 0 1-.205-.916v-4.06h-1.04l.16-1.495h.88v-1.612l1.817-.19v1.802h1.613v1.495h-1.613v3.312c0 .371.022.639.066.803a.403.403 0 0 0 .3.307c.157.042.406.063.748.063h.499l-.162 1.495h-1.304ZM407.247 142.895c-.796 0-1.475-.174-2.037-.52a3.455 3.455 0 0 1-1.286-1.386 4.083 4.083 0 0 1-.444-1.89c0-.69.148-1.324.444-1.906a3.468 3.468 0 0 1 1.286-1.396c.562-.349 1.24-.524 2.037-.524.797 0 1.476.175 2.037.524.562.35.991.815 1.287 1.396.295.582.443 1.217.443 1.906 0 .684-.148 1.314-.443 1.89a3.455 3.455 0 0 1-1.287 1.385c-.561.347-1.24.52-2.037.52Zm0-1.495c.61 0 1.081-.214 1.41-.642.33-.427.496-.98.496-1.66 0-.688-.165-1.249-.495-1.681-.33-.433-.8-.649-1.41-.649-.607 0-1.076.216-1.408.649-.332.432-.498.993-.498 1.682 0 .679.166 1.232.498 1.66.332.427.801.64 1.407.64ZM417.756 142.749l-2.887-10.26h1.949l2.052 7.284 2.287-7.284h1.304l2.374 7.094 1.964-7.094h1.95l-3.005 10.26h-1.656l-2.286-6.845-2.272 6.845zM429.613 142.748v-7.328h1.817v7.328h-1.817Zm0-8.442v-1.817h1.817v1.817h-1.817ZM433.13 142.748v-7.328h1.7l.074 1.363-.425-.557c.278-.235.61-.447.997-.638.386-.19.835-.285 1.348-.285.938 0 1.634.311 2.088.934.455.623.682 1.43.682 2.422v4.09h-1.817v-3.943c0-.684-.114-1.19-.341-1.517-.227-.328-.597-.491-1.11-.491-.416 0-.755.1-1.019.304a2.82 2.82 0 0 0-.696.81l.337-.895v5.731h-1.817Z" fill="#2E3280" fill-rule="nonzero"/><path d="M367.697 165.649v-6.876a4.953 4.953 0 0 1-.727.506 3.572 3.572 0 0 1-.543.239l-.196-1.087c.22-.074.445-.179.675-.315a4.17 4.17 0 0 0 .641-.467c.198-.175.357-.358.48-.55h.793v8.55h-1.123ZM373.4 165.82c-.598 0-1.11-.133-1.535-.4a2.575 2.575 0 0 1-.974-1.115c-.224-.476-.336-1.03-.336-1.66 0-.672.11-1.304.333-1.894a6.48 6.48 0 0 1 .885-1.621 7.901 7.901 0 0 1 2.568-2.202l.794.745a7.061 7.061 0 0 0-1.976 1.457c-.283.299-.53.624-.745.974-.213.35-.38.721-.497 1.114a4.252 4.252 0 0 0-.177 1.23l-.391-.659c.195-.39.495-.7.9-.928.406-.228.879-.342 1.42-.342.497 0 .937.113 1.32.339.382.226.681.534.897.925.216.391.324.833.324 1.325 0 .53-.118.998-.354 1.405a2.524 2.524 0 0 1-.987.959c-.421.232-.91.348-1.468.348Zm0-1.002c.49 0 .88-.161 1.173-.485.293-.324.44-.72.44-1.188 0-.46-.147-.846-.44-1.157-.293-.312-.684-.467-1.172-.467-.489 0-.882.156-1.179.47-.297.313-.446.702-.446 1.166 0 .48.149.878.446 1.191.297.314.69.47 1.179.47ZM382.842 165.771c-.627 0-1.162-.14-1.603-.418a2.757 2.757 0 0 1-1.014-1.124 3.48 3.48 0 0 1-.351-1.573c0-.578.117-1.102.351-1.572.234-.47.572-.845 1.014-1.124.441-.279.976-.418 1.603-.418.623 0 1.156.14 1.6.418a2.75 2.75 0 0 1 1.017 1.124c.234.47.35.994.35 1.572a3.48 3.48 0 0 1-.35 1.573 2.75 2.75 0 0 1-1.017 1.124c-.444.279-.977.418-1.6.418Zm0-.977c.594 0 1.05-.188 1.368-.565.317-.377.476-.9.476-1.573 0-.671-.159-1.195-.476-1.572-.318-.377-.774-.565-1.368-.565-.59 0-1.045.188-1.365.565-.32.377-.48.9-.48 1.572s.16 1.196.48 1.573c.32.377.774.565 1.365.565ZM387.3 165.649v-5.13h-1.038l.146-.855h.892v-1.417c0-.533.142-.96.427-1.279.285-.32.705-.48 1.258-.48.204 0 .382.015.535.043.152.029.292.067.418.116l-.171.929a1.805 1.805 0 0 0-.287-.083 1.7 1.7 0 0 0-.324-.027c-.236 0-.421.066-.555.198-.135.132-.202.351-.202.657v1.343h1.612v.855H388.4v5.13h-1.1ZM395.862 165.82c-.469 0-.905-.061-1.31-.183a6.172 6.172 0 0 1-1.133-.464l.28-1.075c.351.2.696.361 1.036.485a3.3 3.3 0 0 0 1.139.186c.533 0 .95-.133 1.249-.4.299-.266.449-.61.449-1.029 0-.472-.163-.85-.489-1.135-.326-.285-.835-.428-1.527-.428h-.537v-1.05h.537c.526 0 .942-.124 1.25-.373.307-.248.46-.588.46-1.02 0-.46-.118-.8-.354-1.023-.236-.221-.574-.332-1.014-.332-.346 0-.67.067-.97.201-.302.135-.597.3-.886.495l-.196-1.185c.314-.179.653-.317 1.017-.415a4.6 4.6 0 0 1 1.194-.147c.53 0 .978.096 1.347.287.368.192.649.457.842.797.194.34.29.732.29 1.176 0 .553-.161 1.02-.485 1.401-.324.381-.76.63-1.31.748v-.28c.647.126 1.153.371 1.518.735.364.365.546.869.546 1.512 0 .521-.13.97-.388 1.346a2.5 2.5 0 0 1-1.053.868 3.594 3.594 0 0 1-1.502.302ZM401.419 165.649v-6.876a4.953 4.953 0 0 1-.727.506 3.572 3.572 0 0 1-.543.239l-.196-1.087c.22-.074.445-.179.675-.315a4.17 4.17 0 0 0 .641-.467c.198-.175.358-.358.48-.55h.794v8.55h-1.124ZM408.662 165.65l-2.284-5.986h1.22l1.675 4.776 1.66-4.776h1.234l-2.271 5.985zM415.526 165.771c-.627 0-1.162-.14-1.603-.418a2.757 2.757 0 0 1-1.014-1.124 3.48 3.48 0 0 1-.351-1.573c0-.578.117-1.102.351-1.572.234-.47.572-.845 1.014-1.124.441-.279.976-.418 1.603-.418.623 0 1.156.14 1.6.418a2.75 2.75 0 0 1 1.017 1.124c.234.47.35.994.35 1.572a3.48 3.48 0 0 1-.35 1.573 2.75 2.75 0 0 1-1.017 1.124c-.444.279-.977.418-1.6.418Zm0-.977c.594 0 1.05-.188 1.368-.565.317-.377.476-.9.476-1.573 0-.671-.159-1.195-.476-1.572-.318-.377-.774-.565-1.368-.565-.59 0-1.046.188-1.365.565-.32.377-.48.9-.48 1.572s.16 1.196.48 1.573c.32.377.774.565 1.365.565ZM421.608 165.771c-.378 0-.682-.07-.91-.208a1.252 1.252 0 0 1-.497-.534 1.578 1.578 0 0 1-.156-.687v-3.823h-1.026l.098-.855h.928v-1.478l1.1-.11v1.588h1.575v.855h-1.576v3.151c0 .383.022.66.067.83a.427.427 0 0 0 .333.324c.177.045.463.068.858.068h.281l-.085.879h-.99ZM426.482 165.771c-.705 0-1.297-.145-1.778-.434a2.847 2.847 0 0 1-1.09-1.15 3.397 3.397 0 0 1-.37-1.58c0-.557.116-1.068.346-1.532.23-.464.564-.836 1.001-1.115.438-.279.966-.418 1.585-.418.497 0 .94.099 1.328.296.39.198.695.485.916.861.222.377.333.834.333 1.371 0 .086-.003.178-.009.278-.006.1-.02.203-.04.308h-4.335c.052.554.185.986.396 1.295.212.31.479.527.8.654.322.126.672.189 1.05.189.278 0 .567-.029.868-.086.301-.057.586-.146.855-.268l.147.867a8.232 8.232 0 0 1-.85.308 3.891 3.891 0 0 1-1.153.156Zm-2.016-3.872h3.151c0-.28-.053-.525-.158-.733a1.088 1.088 0 0 0-.483-.479c-.216-.112-.49-.168-.824-.168-.489 0-.864.121-1.127.363-.263.243-.449.582-.559 1.017ZM431.562 165.771c-.529 0-.968-.063-1.316-.19-.348-.126-.593-.237-.735-.335l.134-1.063c.13.114.36.244.69.391.33.147.723.22 1.179.22.386 0 .683-.065.888-.196a.616.616 0 0 0 .309-.55.67.67 0 0 0-.199-.503 1.472 1.472 0 0 0-.476-.305 4.712 4.712 0 0 0-.522-.18 8.516 8.516 0 0 1-.846-.278 1.866 1.866 0 0 1-.736-.504c-.2-.224-.3-.538-.3-.94 0-.306.074-.596.22-.87.147-.276.385-.499.715-.67.33-.17.767-.256 1.313-.256.399 0 .724.042.974.125.25.084.467.172.65.266l-.134 1.001a2.523 2.523 0 0 0-.61-.372c-.233-.102-.518-.153-.856-.153-.342 0-.62.064-.836.193-.216.128-.324.332-.324.613 0 .281.115.48.345.599.23.118.58.248 1.047.39.147.041.317.1.51.178.194.077.382.18.565.311.183.13.335.3.455.51.12.21.18.471.18.785 0 .264-.063.534-.189.809s-.354.506-.684.693c-.33.187-.8.281-1.41.281Z" fill="#0A1F44" fill-rule="nonzero"/><path d="M589.875 142.953c-1.04 0-1.956-.22-2.748-.663a4.694 4.694 0 0 1-1.85-1.861c-.442-.8-.663-1.736-.663-2.81 0-1.075.228-2.012.685-2.811a4.817 4.817 0 0 1 1.887-1.861c.801-.443 1.717-.664 2.748-.664.542 0 1.038.058 1.488.173.45.114.838.257 1.165.428l-.205 1.788a7.68 7.68 0 0 0-1.147-.421 4.883 4.883 0 0 0-1.316-.165c-.718 0-1.317.152-1.799.454-.48.303-.844.721-1.088 1.254-.244.532-.366 1.14-.366 1.824 0 .684.12 1.293.359 1.825.24.533.597.95 1.073 1.253.477.303 1.069.455 1.777.455.494 0 .936-.054 1.327-.162.39-.107.784-.249 1.18-.425l.205 1.788c-.386.181-.81.326-1.272.436-.461.11-.941.165-1.44.165ZM595.46 142.895c-.391 0-.748-.087-1.07-.26a1.943 1.943 0 0 1-.77-.752c-.19-.327-.286-.723-.286-1.187 0-.415.097-.77.29-1.066.193-.296.447-.542.762-.74a4.352 4.352 0 0 1 1.026-.47c.369-.114.733-.198 1.092-.252.359-.054.675-.086.949-.095-.02-.42-.127-.726-.323-.916-.195-.19-.527-.286-.996-.286-.328 0-.646.045-.957.135-.31.09-.66.231-1.051.422l-.161-1.48c.44-.215.88-.377 1.322-.484.442-.108.89-.161 1.345-.161.547 0 1.019.097 1.414.293.396.195.701.51.916.941.215.433.323 1.003.323 1.712v1.978c0 .367.017.632.051.795.034.164.098.268.19.312a.971.971 0 0 0 .404.066h.234l-.16 1.495h-.66c-.274 0-.517-.036-.73-.107a1.652 1.652 0 0 1-.546-.296 1.535 1.535 0 0 1-.366-.447c-.24.268-.563.477-.971.626a3.677 3.677 0 0 1-1.271.224Zm.762-1.393c.16 0 .361-.042.6-.128.24-.085.455-.219.645-.4v-1.67c-.342.014-.683.07-1.025.168a2.323 2.323 0 0 0-.858.433.895.895 0 0 0-.344.718c0 .298.078.519.234.663.157.144.406.216.748.216ZM601.176 142.748v-7.328h1.7l.073 1.363-.425-.557c.278-.235.61-.447.997-.638.386-.19.835-.285 1.348-.285.938 0 1.634.311 2.089.934.454.623.681 1.43.681 2.422v4.09h-1.817v-3.943c0-.684-.114-1.19-.341-1.517-.227-.328-.597-.491-1.11-.491-.416 0-.755.1-1.019.304a2.82 2.82 0 0 0-.696.81l.337-.895v5.731h-1.817ZM612.227 142.895c-.743 0-1.367-.174-1.873-.52a3.24 3.24 0 0 1-1.143-1.386 4.598 4.598 0 0 1-.385-1.89c0-.684.128-1.315.385-1.891a3.24 3.24 0 0 1 1.143-1.385c.506-.347 1.13-.52 1.873-.52.537 0 .991.089 1.363.267.37.178.698.407.982.685l-.44.381v-4.88h1.817v10.992h-1.715l-.087-1.246.527.381c-.342.313-.696.56-1.062.74-.367.181-.829.272-1.385.272Zm.263-1.495c.401 0 .728-.098.982-.293.254-.196.442-.466.565-.81a3.58 3.58 0 0 0 .183-1.198 3.58 3.58 0 0 0-.183-1.199 1.713 1.713 0 0 0-.565-.81c-.254-.195-.581-.292-.982-.292-.38 0-.706.097-.974.293a1.837 1.837 0 0 0-.616.81 3.132 3.132 0 0 0-.212 1.198c0 .454.07.853.212 1.198.142.344.347.614.616.81.268.195.593.293.974.293ZM617.635 142.748v-7.328h1.817v7.328h-1.817Zm0-8.442v-1.817h1.817v1.817h-1.817ZM624.113 142.895c-.743 0-1.367-.174-1.872-.52a3.24 3.24 0 0 1-1.144-1.386 4.598 4.598 0 0 1-.384-1.89c0-.684.128-1.315.384-1.891a3.24 3.24 0 0 1 1.144-1.385c.505-.347 1.13-.52 1.872-.52.537 0 .992.089 1.363.267.371.178.699.407.982.685l-.44.381v-4.88h1.818v10.992h-1.715l-.088-1.246.528.381c-.342.313-.697.56-1.063.74-.366.181-.828.272-1.385.272Zm.264-1.495c.4 0 .728-.098.982-.293.254-.196.442-.466.564-.81a3.58 3.58 0 0 0 .183-1.198 3.58 3.58 0 0 0-.183-1.199 1.713 1.713 0 0 0-.564-.81c-.254-.195-.582-.292-.982-.292-.381 0-.706.097-.975.293a1.837 1.837 0 0 0-.616.81 3.132 3.132 0 0 0-.212 1.198c0 .454.07.853.212 1.198.142.344.347.614.616.81.269.195.594.293.975.293ZM631.104 142.895c-.39 0-.747-.087-1.07-.26a1.943 1.943 0 0 1-.77-.752c-.19-.327-.285-.723-.285-1.187 0-.415.096-.77.29-1.066.192-.296.446-.542.762-.74a4.352 4.352 0 0 1 1.025-.47c.37-.114.733-.198 1.092-.252.36-.054.676-.086.95-.095-.02-.42-.128-.726-.323-.916-.195-.19-.528-.286-.997-.286-.327 0-.646.045-.956.135-.31.09-.66.231-1.052.422l-.16-1.48c.439-.215.88-.377 1.322-.484.442-.108.89-.161 1.345-.161.547 0 1.018.097 1.414.293.396.195.701.51.916.941.215.433.322 1.003.322 1.712v1.978c0 .367.018.632.052.795.034.164.097.268.19.312a.971.971 0 0 0 .403.066h.235l-.161 1.495h-.66c-.274 0-.517-.036-.73-.107a1.652 1.652 0 0 1-.545-.296 1.535 1.535 0 0 1-.366-.447c-.24.268-.564.477-.971.626a3.677 3.677 0 0 1-1.272.224Zm.762-1.393c.161 0 .362-.042.601-.128.24-.085.454-.219.645-.4v-1.67c-.342.014-.684.07-1.026.168a2.323 2.323 0 0 0-.857.433.895.895 0 0 0-.345.718c0 .298.078.519.235.663.156.144.405.216.747.216ZM639.062 142.895c-.459 0-.832-.094-1.12-.282a1.723 1.723 0 0 1-.638-.722 2.142 2.142 0 0 1-.205-.916v-4.06h-1.041l.161-1.495h.88v-1.612l1.817-.19v1.802h1.612v1.495h-1.612v3.312c0 .371.022.639.066.803a.403.403 0 0 0 .3.307c.157.042.406.063.748.063h.498l-.161 1.495h-1.305ZM645.189 142.895c-.884 0-1.62-.177-2.21-.532a3.405 3.405 0 0 1-1.322-1.407 4.21 4.21 0 0 1-.44-1.916c0-.67.138-1.287.414-1.854a3.343 3.343 0 0 1 1.213-1.367c.532-.344 1.182-.516 1.95-.516.703 0 1.289.144 1.758.432.469.288.82.673 1.055 1.154a3.59 3.59 0 0 1 .352 1.594c0 .161-.01.324-.03.487-.019.164-.048.334-.087.51h-4.734c.068.454.211.822.428 1.103.218.28.484.487.8.619.314.132.653.198 1.014.198.425 0 .82-.055 1.187-.165.367-.11.704-.255 1.012-.436l.088 1.539a5.132 5.132 0 0 1-1.041.388 5.393 5.393 0 0 1-1.407.169Zm-2.037-4.632h2.96a1.92 1.92 0 0 0-.124-.67 1.277 1.277 0 0 0-.414-.566c-.193-.153-.453-.23-.78-.23-.47 0-.839.139-1.107.415a2.072 2.072 0 0 0-.535 1.051ZM651.286 142.895a5.64 5.64 0 0 1-1.308-.14 6.569 6.569 0 0 1-1.169-.403l.161-1.553c.376.22.747.397 1.11.531.364.134.747.202 1.147.202.362 0 .638-.059.828-.176.191-.118.286-.303.286-.557 0-.19-.05-.347-.15-.47-.1-.121-.25-.231-.45-.329s-.45-.203-.748-.315a6.381 6.381 0 0 1-1.147-.542 2.096 2.096 0 0 1-.718-.708c-.164-.276-.246-.616-.246-1.022 0-.42.11-.791.33-1.114.22-.322.533-.574.938-.755.406-.18.887-.27 1.444-.27.464 0 .88.05 1.25.153.368.103.709.242 1.022.418l-.162 1.553a6.006 6.006 0 0 0-.989-.567 2.637 2.637 0 0 0-1.092-.224c-.313 0-.554.064-.725.19a.635.635 0 0 0-.257.543c0 .283.12.496.36.637.239.142.622.316 1.15.52.342.133.639.27.89.411.252.142.46.298.627.47.166.17.29.364.37.582.08.217.12.468.12.75 0 .465-.11.86-.333 1.184-.222.325-.547.573-.974.744-.428.171-.95.257-1.565.257Z" fill="#2E3280" fill-rule="nonzero"/><path d="M619.467 165.82c-.599 0-1.11-.133-1.536-.4a2.575 2.575 0 0 1-.974-1.115c-.224-.476-.336-1.03-.336-1.66 0-.672.11-1.304.333-1.894a6.48 6.48 0 0 1 .885-1.621 7.901 7.901 0 0 1 2.568-2.202l.794.745a7.061 7.061 0 0 0-1.976 1.457c-.283.299-.53.624-.745.974-.213.35-.38.721-.497 1.114a4.252 4.252 0 0 0-.177 1.23l-.391-.659c.195-.39.495-.7.9-.928.406-.228.879-.342 1.42-.342.497 0 .937.113 1.32.339.382.226.681.534.897.925.216.391.324.833.324 1.325 0 .53-.118.998-.354 1.405a2.524 2.524 0 0 1-.987.959c-.421.232-.91.348-1.468.348Zm0-1.002c.488 0 .88-.161 1.172-.485.293-.324.44-.72.44-1.188 0-.46-.147-.846-.44-1.157-.293-.312-.684-.467-1.172-.467-.489 0-.882.156-1.179.47-.297.313-.446.702-.446 1.166 0 .48.149.878.446 1.191.297.314.69.47 1.179.47Z" fill="#0A1F44" fill-rule="nonzero"/></g></g></g><path fill="#E7EAED" mask="url(#b)" d="M-.5-.5h801v36H-.5z"/><g mask="url(#b)" stroke-width=".5"><g transform="translate(10 13)"><circle stroke="#E14942" fill="#FF6058" cx="5" cy="5" r="4.75"/><circle stroke="#E1A325" fill="#FFC130" cx="21" cy="5" r="4.75"/><circle stroke="#3EAF3F" fill="#27CA40" cx="37" cy="5" r="4.75"/></g></g><g mask="url(#b)"><path d="M72.256 7h173.488c3.567 0 4.86.371 6.163 1.069a7.27 7.27 0 0 1 3.024 3.024c.698 1.303 1.069 2.596 1.069 6.163V34.5H62V17.256c0-3.567.371-4.86 1.069-6.163a7.27 7.27 0 0 1 3.024-3.024C67.396 7.37 68.689 7 72.256 7Z" fill="#FFFFFF"/><text font-family="Helvetica" font-size="10" transform="translate(61.5 6.5)">
                                <tspan x="11.5" y="18.5" fill="#323232">RankedVote</tspan>
                            </text><path d="m242.458 19.625 2.28-2.28c.191-.19.532-.158.762.072.23.23.262.57.072.76l-2.28 2.281 2.28 2.28c.19.191.158.532-.072.762-.23.23-.57.262-.761.072l-2.28-2.28-2.281 2.28c-.19.19-.531.158-.761-.072-.23-.23-.263-.57-.073-.761l2.281-2.28-2.28-2.281c-.19-.19-.158-.531.072-.761.23-.23.57-.263.76-.073l2.281 2.281Z" fill="#737373" fill-rule="nonzero"/><path d="M272.15 19.954V16.09c0-.325.336-.589.75-.589.415 0 .75.264.75.59v3.864h3.865c.326 0 .59.336.59.75s-.264.75-.59.75h-3.865v3.865c0 .326-.335.59-.75.59-.414 0-.75-.264-.75-.59v-3.865h-3.865c-.325 0-.589-.336-.589-.75s.264-.75.59-.75h3.864Z" fill="#5F6367" fill-rule="nonzero"/></g><path fill="#FFFFFF" mask="url(#b)" d="M0 34h800v30H0z"/><g fill-rule="nonzero" mask="url(#b)"><path d="M72.538 45.462 74 44v4h-4l1.79-1.79a5.417 5.417 0 0 0-1.082-.817 1.725 1.725 0 0 0-.496-.203c-1.688-.46-3.48.197-4.448 1.598-.21.303-.375.635-.493.99-.26.78-.264 1.6-.025 2.368a3.997 3.997 0 0 0 2.627 2.615c2.13.674 4.417-.462 5.109-2.54l1.018.323c-.875 2.626-3.766 4.063-6.458 3.21a5.054 5.054 0 0 1-3.321-3.305 4.861 4.861 0 0 1 .031-2.994c.15-.448.36-.867.624-1.25 1.224-1.773 3.49-2.602 5.623-2.021.041.008.12.03.221.065.155.055.326.131.513.234a6.48 6.48 0 0 1 1.305.979Z" fill="#5F6367"/><g fill="#737373"><path d="M13.118 48.556a.59.59 0 0 0 0 1.179h9.23a.59.59 0 0 0 0-1.179h-9.23Z"/><path d="M12.73 48.69a.59.59 0 0 0 .832.834l4.476-4.461a.59.59 0 1 0-.832-.835L12.73 48.69Z"/><path d="M13.563 48.768a.59.59 0 0 0-.831.835l4.512 4.49a.59.59 0 0 0 .83-.836l-4.511-4.489Z"/></g><g fill="#737373"><path d="M47.882 48.556a.59.59 0 0 1 0 1.179h-9.23a.59.59 0 0 1 0-1.179h9.23Z"/><path d="M48.27 48.69a.59.59 0 0 1-.832.834l-4.476-4.461a.59.59 0 1 1 .832-.835l4.476 4.462Z"/><path d="M47.437 48.768a.59.59 0 0 1 .831.835l-4.512 4.49a.59.59 0 0 1-.83-.836l4.511-4.489Z"/></g></g><g mask="url(#b)"><g transform="translate(87 38)"><rect fill="#F1F3F4" width="652" height="22" rx="9.5"/><g fill="#5F6367"><path d="M11 11a1 1 0 0 1 .99-1h4.02c.546 0 .99.444.99 1v3a1 1 0 0 1-.99 1h-4.02a.993.993 0 0 1-.99-1v-3Z"/><path d="M12.667 11.284c0 .007 2.672.002 2.672.002-.007 0-.006-2.137-.006-2.137 0-.792-.598-1.435-1.333-1.435s-1.333.643-1.333 1.435v2.135ZM14 7c1.105 0 2 .964 2 2.15v2.134c0 .395-.3.716-.66.716h-2.68c-.364 0-.66-.313-.66-.716V9.149C12 7.962 12.898 7 14 7Z" fill-rule="nonzero"/></g><text font-family="Helvetica" font-size="11">
                                <tspan x="26" y="16" fill="#323232">https://app.rankedvote.co</tspan>
                            </text><path d="m640.472 16.131-1.216-4.02 3.346-2.536-4.198-.086-1.379-3.966-1.378 3.966-4.199.086 3.347 2.537-1.216 4.02 3.446-2.4 3.447 2.4Z" stroke="#5F6367"/></g></g><g mask="url(#b)"><use fill="#E5E5E5" xlink:href="#i" transform="translate(749 41)"/></g><path d="M782.071 46.25a1.179 1.179 0 1 1 0-2.357 1.179 1.179 0 0 1 0 2.357Zm0 3.929a1.179 1.179 0 1 1 0-2.358 1.179 1.179 0 0 1 0 2.358Zm0 3.928a1.179 1.179 0 1 1 0-2.357 1.179 1.179 0 0 1 0 2.357Z" fill="#5F6367" mask="url(#b)"/><path fill="#DEDEDE" mask="url(#b)" d="M0 64h800v.5H0z"/></g></svg>